<?xml version="1.0" standalone="no"?>
<!DOCTYPE svg PUBLIC "-//W3C//DTD SVG 1.1//EN" "http://www.w3.org/Graphics/SVG/1.1/DTD/svg11.dtd" >
<svg xmlns="http://www.w3.org/2000/svg" xmlns:xlink="http://www.w3.org/1999/xlink" version="1.1">
<metadata>
Created by FontForge 20201107 at Sun Jan 10 23:30:32 2021
 By Jimmy Wärting
Copyright \(c\) 2021 by typefactory. All rights reserved.
</metadata>
<defs>
<font id="JungleHope" horiz-adv-x="690" >
  <font-face 
    font-family="Jungle Hope"
    font-weight="400"
    font-stretch="normal"
    units-per-em="1000"
    panose-1="0 0 0 0 0 0 0 0 0 0"
    ascent="800"
    descent="-200"
    x-height="632"
    cap-height="780"
    bbox="-128.063 -475 1433.64 1169.39"
    underline-thickness="50"
    underline-position="-100"
    stemh="183"
    stemv="226"
    unicode-range="U+000D-FB06"
  />
<missing-glyph horiz-adv-x="270" 
 />
    <glyph glyph-name="f_i" unicode="fi" horiz-adv-x="726" 
d="M661 610c3 -8 6 -16 8 -25c42 -227 36 -508 36 -520c-2 -49 -42 -89 -92 -89h-2c-50 1 -90 43 -89 94c0 3 5 220 -22 415c-86 -4 -221 -11 -257 -20c3 -19 5 -39 7 -59l119 5c51 3 94 -36 96 -87c2 -50 -37 -93 -87 -95l-116 -6c5 -103 5 -185 5 -192
c0 -50 -41 -91 -91 -91h-1c-50 0 -91 40 -91 91c0 2 -2 107 -15 231c-8 13 -12 27 -13 43c-1 12 1 22 4 33c-9 63 -20 127 -36 181c-14 44 19 90 63 104c30 9 407 50 492 46c38 -2 69 -26 82 -59z" />
    <glyph glyph-name="f_l" unicode="fl" horiz-adv-x="1022" 
d="M900 189c51 5 96 -31 101 -81s-31 -95 -81 -101l-301 -31c-3 -1 -6 -1 -9 -1c-23 0 -45 8 -62 23c-19 18 -30 42 -30 68c0 3 -1 244 -23 417c-85 -3 -217 -11 -252 -19c3 -19 5 -39 7 -59l119 5c51 3 93 -36 96 -87c2 -50 -37 -93 -87 -95l-116 -6c4 -103 5 -185 5 -192
c0 -50 -41 -91 -92 -91v0c-50 0 -91 40 -91 91c0 2 -2 107 -15 231c-8 13 -13 27 -13 43c-1 12 1 22 4 33c-9 63 -21 127 -37 181c-13 44 19 90 64 104c26 8 328 41 454 46c10 6 21 10 33 13c71 14 109 -40 118 -90c23 -123 4 -311 7 -423z" />
    <glyph glyph-name="f_f_i" unicode="ffi" horiz-adv-x="1154" 
d="M1020 681c38 -6 70 -34 77 -74c43 -227 36 -508 36 -520c-1 -49 -42 -89 -91 -89h-3c-50 1 -90 43 -89 94c0 3 5 232 -24 430c-69 0 -202 -3 -242 -13c3 -26 6 -53 9 -81l117 5c51 3 94 -36 96 -87c2 -50 -37 -93 -87 -95l-116 -6c5 -103 5 -185 5 -192
c0 -50 -41 -91 -91 -91h-1c-50 0 -91 40 -91 91c0 2 -5 112 -20 241c-5 10 -8 22 -8 33c0 7 0 14 1 20c-6 48 -14 97 -24 142c-77 -4 -196 -13 -231 -22c2 -13 3 -26 5 -39l121 5c51 3 93 -36 96 -87c2 -50 -37 -93 -87 -95l-117 -6c5 -104 5 -185 6 -192
c0 -50 -41 -91 -92 -91v0c-50 0 -91 40 -91 91c0 2 -2 109 -17 234c-7 12 -11 26 -11 40c-1 10 0 19 2 28c-8 57 -20 115 -35 166c-13 45 19 91 64 104c27 9 324 46 438 49c56 9 368 25 449 22c17 -1 33 -6 46 -15z" />
    <glyph glyph-name="f_f_l" unicode="ffl" horiz-adv-x="1454" 
d="M1333 211c50 5 95 -31 100 -81c6 -50 -31 -95 -81 -101l-301 -31c-3 -1 -6 -1 -9 -1c-23 0 -44 8 -61 23c-19 18 -31 42 -31 68c0 3 -1 258 -24 433c-70 0 -202 -3 -242 -13c3 -26 6 -53 8 -81l118 5c51 3 93 -36 96 -87c2 -50 -37 -93 -87 -95l-116 -6
c4 -103 5 -185 5 -192c0 -50 -41 -91 -91 -91h-1c-50 0 -91 40 -91 91c0 2 -5 112 -20 241c-5 10 -8 22 -8 33c-1 7 0 14 1 20c-7 48 -14 97 -24 142c-77 -4 -196 -13 -231 -22c1 -13 3 -26 4 -39l122 5c50 3 93 -36 95 -87c3 -50 -36 -93 -87 -95l-116 -6
c5 -104 5 -185 5 -192c0 -50 -40 -91 -91 -91v0c-51 0 -91 40 -92 91c0 2 -2 109 -16 234c-7 12 -11 26 -12 40c0 10 1 19 3 28c-8 57 -20 115 -35 166c-13 45 19 91 64 104c27 9 324 46 438 49c56 9 368 25 449 22c3 0 5 -1 7 -1c8 4 17 7 26 9c70 14 108 -40 117 -90
c23 -123 5 -311 8 -423z" />
    <glyph glyph-name="s_t" unicode="st" horiz-adv-x="950" 
d="M834 602c50 2 93 -37 95 -88c2 -50 -38 -92 -88 -94c-21 -1 -40 -2 -59 -2c16 -191 1 -377 1 -386c-2 -50 -42 -90 -92 -90c-1 0 -1 1 -2 1c-51 1 -91 43 -89 93v0c0 3 -11 202 -39 390c-29 3 -51 6 -67 8c-18 3 -28 5 -29 5c-6 1 -12 3 -17 5c-19 5 -79 18 -117 21
c-55 6 -77 -5 -80 -8c0 0 -1 -1 -1 -4c-4 -17 -1 -20 5 -24c17 -15 53 -28 86 -39c41 -15 84 -30 121 -57c55 -41 80 -101 69 -167c-8 -53 -35 -96 -79 -125c-40 -26 -93 -39 -159 -39c-58 0 -126 10 -204 30c-48 13 -78 63 -65 112s63 78 112 65c44 -11 79 -18 109 -22
c24 -3 33 31 10 41c-45 19 -95 42 -117 60c-60 50 -83 118 -68 199c11 56 41 100 89 128c111 67 318 12 351 2v0c14 -3 44 -7 86 -10c14 8 29 15 44 18c31 5 68 -4 93 -24c31 -1 65 0 101 1z" />
    <glyph glyph-name="f_h" unicode="fh" horiz-adv-x="1038" 
d="M951 754c49 -14 77 -64 63 -113c-45 -160 -29 -457 -19 -558c5 -51 -31 -95 -81 -100c-3 -1 -7 -1 -10 -1c-46 0 -86 35 -90 82c-1 8 -10 94 -12 207l-88 -4c3 -115 -7 -198 -8 -205c-6 -46 -45 -80 -91 -80c-3 0 -7 0 -11 1c-50 6 -86 52 -79 102c0 1 -1 96 -16 220
c-8 13 -12 27 -13 43c-1 9 0 19 3 27c-6 39 -14 79 -24 118c-72 -4 -195 -13 -232 -22c2 -19 4 -39 6 -59l120 5c50 3 93 -36 95 -87c3 -50 -36 -93 -87 -95l-116 -6c5 -103 5 -185 5 -192c0 -50 -40 -91 -91 -91v0c-51 0 -92 40 -92 91c0 2 -2 107 -14 231
c-8 13 -13 27 -14 43c0 12 1 22 5 33c-9 63 -21 127 -37 181c-13 44 19 90 63 104c30 9 366 53 451 49c9 0 18 -2 26 -5c54 8 93 -35 105 -77c14 -49 24 -99 31 -147l105 5c5 84 15 168 34 237c14 48 65 77 113 63z" />
    <glyph glyph-name="f_k" unicode="fk" horiz-adv-x="1066" 
d="M876 370c100 -157 158 -271 160 -276c23 -45 4 -100 -41 -122c-13 -7 -27 -10 -41 -10c-33 0 -65 18 -81 50c-2 3 -47 92 -125 219c-10 -11 -18 -21 -26 -31c-3 -80 -9 -137 -9 -142c-1 -49 -42 -89 -91 -89h-3c-50 1 -90 43 -89 94v0c0 1 1 51 0 124c-7 18 -7 38 -2 56
c-3 74 -9 160 -21 242c-88 -6 -228 -18 -264 -27c2 -19 4 -39 6 -59l120 5c50 3 93 -36 95 -87c3 -50 -36 -93 -87 -95l-116 -6c5 -103 5 -185 5 -192c0 -50 -40 -91 -91 -91v0c-50 0 -91 40 -92 91c0 2 -1 107 -14 231c-8 13 -13 27 -14 43c0 12 1 22 5 33
c-9 63 -21 127 -37 181c-13 44 19 90 64 104c29 9 414 59 499 55v0c61 12 105 -38 114 -86c6 -32 11 -66 15 -100c41 57 75 110 86 143c16 48 68 74 116 57c47 -16 73 -68 57 -115c-18 -53 -60 -121 -108 -187c4 -4 7 -8 10 -13z" />
    <glyph glyph-name="f_j" unicode="fj" horiz-adv-x="794" 
d="M745 597c-20 -54 -2 -137 10 -215c11 -72 23 -146 16 -214c-12 -118 -79 -174 -133 -200c-31 -15 -65 -22 -100 -22c-67 0 -138 27 -200 79c-39 32 -45 90 -12 129c32 38 90 44 128 11c44 -36 84 -42 105 -32c31 15 -19 257 -33 413c-95 -10 -247 -30 -283 -39
c4 -32 7 -66 10 -101l116 5c51 3 93 -36 96 -87c2 -50 -37 -93 -87 -95l-115 -6c3 -103 4 -186 4 -192c0 -50 -41 -91 -91 -91h-1c-50 0 -91 40 -91 91c0 1 -2 104 -12 227c-10 13 -15 30 -16 47c-1 15 2 28 7 41c-9 77 -21 154 -39 215c-14 44 18 90 63 104
c28 8 385 66 502 71c79 33 190 -45 156 -139z" />
    <glyph glyph-name="e_t" unicode="et" horiz-adv-x="1014" 
d="M913 686c50 -5 86 -51 80 -101s-51 -86 -102 -80c-20 2 -41 4 -62 5c26 -210 8 -438 7 -449c-1 -49 -42 -89 -91 -89h-2c-51 1 -91 43 -90 94v0c1 2 -13 239 -46 439c-117 -9 -209 -24 -211 -25c-10 -1 -20 0 -30 2c-28 -3 -70 -11 -111 -21c2 -19 4 -39 6 -59l120 6
c50 2 93 -37 95 -88c3 -50 -36 -93 -87 -95l-116 -6c2 -33 3 -64 4 -91l201 22c50 5 95 -31 100 -82c6 -50 -31 -95 -81 -100l-300 -32h-10c-23 0 -44 8 -61 23c-19 17 -30 42 -30 68c-1 3 -42 304 -74 474c-9 46 19 91 63 104c30 9 223 64 308 60c2 0 5 0 7 -1h3
c53 4 337 42 510 22z" />
    <glyph glyph-name="c_t" unicode="ct" horiz-adv-x="1008" 
d="M857 649c60 9 117 -24 129 -73c11 -50 -28 -98 -88 -107c-18 -3 -36 -5 -54 -8c24 -206 6 -423 5 -433c-1 -50 -42 -89 -91 -89h-2c-51 1 -91 43 -89 93v0c0 3 -12 217 -42 410c-82 -4 -146 -4 -179 -4c-21 0 -33 1 -35 1c-7 0 -14 1 -21 2c-11 -2 -22 -2 -33 1
c-29 5 -118 10 -147 -99c-18 -68 -2 -117 43 -146c58 -36 143 -30 195 13c39 32 97 27 129 -12c33 -39 26 -98 -14 -130c-62 -51 -142 -77 -222 -77c-65 0 -130 17 -185 52c-114 71 -160 200 -123 345c33 133 108 191 164 216c68 31 139 28 196 17c2 0 3 -1 5 -1
c8 1 16 2 24 1c4 0 191 -10 435 28z" />
    <glyph glyph-name="s_l" unicode="sl" horiz-adv-x="1089" 
d="M968 193c50 5 95 -31 100 -81c6 -50 -31 -95 -81 -101l-300 -31c-4 -1 -7 -1 -10 -1c-22 0 -44 8 -61 23c-19 18 -30 42 -30 68c0 3 -1 210 -19 379c-14 1 -193 11 -237 15c-54 6 -77 -5 -80 -8c1 0 0 -1 -1 -4c-3 -17 0 -20 5 -24c18 -15 54 -28 86 -39
c42 -15 85 -30 121 -57c55 -41 80 -101 70 -167c-8 -53 -36 -96 -80 -125c-40 -26 -93 -39 -158 -39c-58 0 -126 10 -204 30c-49 13 -78 63 -65 112s63 78 112 65c43 -11 79 -18 108 -22c25 -3 34 31 11 41c-46 19 -96 42 -117 60c-60 50 -84 118 -68 199
c10 56 41 100 88 128c89 53 307 34 411 19c16 25 40 45 73 52c70 14 108 -40 117 -90c23 -123 5 -311 8 -423z" />
    <glyph glyph-name=".notdef" horiz-adv-x="270" 
 />
    <glyph glyph-name="NULL" horiz-adv-x="0" 
 />
    <glyph glyph-name="NULL" horiz-adv-x="0" 
 />
    <glyph glyph-name="CR" unicode="&#xd;" horiz-adv-x="270" 
 />
    <glyph glyph-name="space" unicode=" " horiz-adv-x="270" 
 />
    <glyph glyph-name="three" unicode="3" horiz-adv-x="574" 
d="M550 260c15 -80 -16 -160 -87 -220c-62 -52 -143 -80 -226 -80c-42 0 -83 7 -123 21c-48 17 -72 70 -55 117c17 48 70 72 117 55c67 -24 133 -4 169 27c7 5 29 26 25 46c-3 17 -9 20 -11 22c-16 9 -48 8 -76 4c-26 -9 -48 -13 -57 -14c-47 -7 -91 22 -103 68
c-11 46 14 92 59 109c85 31 72 110 -40 69c-47 -18 -100 8 -116 55c-17 48 8 100 55 117c27 10 168 55 278 0c51 -26 87 -69 104 -125c14 -46 13 -91 -2 -132c35 -23 75 -65 89 -139z" />
    <glyph glyph-name="four" unicode="4" horiz-adv-x="580" 
d="M205 408c24 -2 54 -1 87 3c-5 69 -12 138 -24 199c-9 49 24 97 73 106c50 10 98 -23 107 -72c11 -62 19 -131 25 -199c96 -20 128 -177 10 -220c2 -85 1 -145 1 -151c-1 -49 -42 -89 -92 -89h-2c-50 1 -90 43 -89 93c0 1 1 42 0 103c-21 -3 -42 -4 -61 -4
c-90 0 -151 19 -156 20c-38 12 -64 48 -63 88l3 293c1 50 42 91 92 91l1 -1c50 0 91 -42 90 -92z" />
    <glyph glyph-name="five" unicode="5" horiz-adv-x="570" 
d="M233 -40c-42 0 -84 7 -124 21c-47 17 -72 70 -54 117c17 48 66 54 117 55c196 2 233 139 -4 87c-26 -6 -53 -2 -75 13c-23 15 -37 39 -40 65l-32 290c-5 49 29 93 78 101c2 0 57 8 120 12c130 9 176 -7 205 -25c43 -25 57 -82 31 -125c-25 -42 -78 -56 -121 -34
c-18 5 -66 5 -121 0l11 -102c3 0 6 0 9 1c91 7 165 -6 220 -40c49 -31 81 -78 92 -136c16 -80 -16 -160 -86 -220c-62 -52 -144 -80 -226 -80z" />
    <glyph glyph-name="six" unicode="6" horiz-adv-x="540" 
d="M86 605c34 49 80 82 135 96c90 24 193 -10 240 -79c28 -42 17 -99 -25 -127c-41 -27 -96 -17 -125 22c-7 5 -30 14 -49 6c-20 -8 -36 -33 -46 -70c76 15 141 8 193 -20c43 -23 96 -71 109 -172c10 -80 -26 -161 -98 -217c-49 -39 -109 -59 -166 -59c-27 0 -55 5 -80 14
c-37 14 -177 87 -150 409c6 80 27 146 62 197zM322 324c-21 11 -70 4 -115 -11c3 -17 6 -32 10 -44c11 -39 58 -55 90 -30h1c19 16 30 35 29 50c-2 13 -6 30 -15 35z" />
    <glyph glyph-name="seven" unicode="7" horiz-adv-x="550" 
d="M157 -49c-5 0 -10 0 -16 1c-49 9 -83 56 -74 106c19 113 108 332 189 473c-67 3 -98 1 -121 -5c-48 -13 -98 16 -111 65c-13 48 16 99 65 111c89 24 297 5 358 -2c32 -3 59 -22 73 -50s12 -62 -4 -89c-95 -154 -252 -436 -269 -534c-8 -45 -46 -76 -90 -76z" />
    <glyph glyph-name="eight" unicode="8" horiz-adv-x="564" 
d="M20 467c0 143 131 229 258 229c59 0 114 -19 155 -52c50 -40 77 -100 77 -169c0 -45 -9 -85 -27 -120c28 -29 54 -75 60 -144c6 -73 -29 -141 -98 -187c-52 -34 -115 -51 -176 -51c-47 0 -92 10 -131 31c-74 40 -116 114 -116 205c0 44 15 84 44 117
c-30 39 -46 87 -46 141zM361 231c5 69 -134 69 -157 13c-2 -73 153 -57 157 -13zM278 513c-31 0 -75 -16 -75 -46c0 -25 8 -34 24 -41c18 -9 38 -10 38 -10h7c6 1 13 2 20 3c5 1 10 3 15 6c6 4 20 13 20 50c0 19 -6 25 -9 27c-9 7 -24 11 -40 11z" />
    <glyph glyph-name="nine" unicode="9" horiz-adv-x="540" 
d="M22 435c-10 80 26 161 98 217c73 57 168 74 246 44c37 -13 177 -86 150 -408c-6 -80 -27 -147 -62 -197c-34 -49 -80 -83 -135 -97c-19 -5 -39 -7 -59 -7c-73 0 -144 33 -181 87c-28 42 -17 98 25 127c41 27 96 17 125 -22c7 -6 29 -14 49 -6s36 33 46 70
c-76 -15 -141 -9 -193 20c-43 23 -96 71 -109 172zM232 508c-19 -16 -31 -35 -29 -50c2 -13 6 -30 15 -35c22 -11 72 -3 114 11c-7 56 -24 84 -34 93c-4 1 -8 1 -12 1c-17 0 -37 -7 -54 -20z" />
    <glyph glyph-name="A" unicode="A" horiz-adv-x="562" 
d="M112 13c-12 0 -24 2 -35 7c-47 19 -69 73 -50 119c2 3 120 289 178 528c11 47 57 76 103 69c41 7 83 -16 99 -56c60 -149 93 -327 110 -470c15 -16 25 -38 25 -62c0 -17 -5 -33 -13 -46c7 -86 9 -144 9 -150c1 -51 -39 -93 -89 -94h-2c-50 0 -90 39 -92 89
c0 1 -1 44 -6 110h-142c-5 0 -11 0 -16 1c-17 -28 -47 -45 -79 -45zM307 367c-15 -46 -31 -89 -45 -127h67c-6 41 -13 83 -22 127z" />
    <glyph glyph-name="B" unicode="B" horiz-adv-x="597" 
d="M486 570c15 -57 7 -112 -22 -160c3 -2 6 -3 8 -5c55 -35 90 -89 101 -156c16 -105 -19 -176 -52 -217c-40 -50 -100 -84 -168 -96c-17 -3 -35 -5 -52 -5c-45 0 -88 10 -126 29c-63 33 -105 88 -118 156c-1 6 -2 12 -2 17c0 2 -20 396 -33 480c-7 42 17 83 57 99
c18 7 176 64 296 3c56 -29 95 -79 111 -145zM214 558c4 -35 7 -71 10 -106c77 24 87 60 85 73c-6 38 -66 37 -95 33zM322 177c31 6 82 27 70 104c-3 20 -11 26 -18 31c-29 18 -86 19 -139 12c2 -56 3 -98 3 -118c10 -28 54 -34 84 -29z" />
    <glyph glyph-name="C" unicode="C" horiz-adv-x="638" 
d="M47 202c-30 74 -35 159 -15 252c28 132 88 219 179 258c66 28 133 24 187 11c61 -15 89 -84 57 -137v0c-21 -34 -62 -50 -100 -41c-24 6 -51 8 -72 -1c-41 -18 -62 -80 -72 -128c-22 -101 115 -236 243 -122c116 103 231 -95 117 -194c-66 -59 -146 -96 -231 -96
c-52 0 -104 13 -151 39c-65 35 -114 90 -142 159z" />
    <glyph glyph-name="D" unicode="D" horiz-adv-x="593" 
d="M55 133c0 3 -1 272 -33 480c-7 42 17 83 57 99c22 8 217 80 362 -20c88 -60 132 -163 132 -307c0 -215 -177 -398 -329 -412c-7 -1 -13 -1 -20 -1c-86 0 -150 55 -167 144c-2 6 -2 12 -2 17zM354 421c0 146 -107 142 -141 137c16 -131 19 -269 20 -318
c11 3 121 30 121 181z" />
    <glyph glyph-name="E" unicode="E" horiz-adv-x="568" 
d="M435 219c134 12 157 -234 23 -246l-300 -38c-4 -1 -8 -1 -12 -1c-22 0 -43 8 -60 23c-20 17 -31 42 -31 68c0 3 -1 130 -7 276c-12 15 -20 33 -21 54c-1 20 4 40 15 55c-5 73 -12 144 -21 203c-6 43 19 85 60 99c30 11 184 66 272 61c50 -3 89 -46 86 -96
c-2 -51 -45 -89 -96 -87c-23 1 -77 -11 -131 -27c4 -37 8 -72 11 -106l116 7c51 3 94 -36 97 -86c3 -51 -36 -94 -86 -97l-116 -6c1 -28 2 -55 2 -82z" />
    <glyph glyph-name="F" unicode="F" horiz-adv-x="460" 
d="M343 590c-23 1 -77 -11 -131 -27c4 -34 7 -69 10 -106l117 7c51 3 94 -36 97 -86c3 -51 -36 -94 -86 -97l-118 -6c5 -133 6 -241 6 -249c0 -51 -41 -92 -92 -92v0c-50 0 -91 41 -91 91c0 3 -1 130 -7 276c-12 15 -20 33 -21 54c-1 20 4 40 15 55c-5 73 -11 144 -20 203
c-7 43 18 85 59 99c30 11 184 66 272 61c50 -3 89 -46 86 -96c-2 -51 -45 -89 -96 -87z" />
    <glyph glyph-name="G" unicode="G" horiz-adv-x="619" 
d="M283 544c-41 -18 -65 -79 -73 -128c-45 -281 188 -248 197 -139h-85c-51 0 -94 42 -93 93c0 50 41 90 91 90h173c48 0 88 -37 91 -85l14 -204c2 -26 -7 -52 -26 -70c-62 -63 -147 -97 -232 -97c-52 0 -104 13 -151 39c-65 35 -114 90 -142 159c-30 74 -35 159 -15 252
c28 132 88 219 179 258c66 28 133 24 187 11c60 -15 89 -84 57 -137v0c-21 -34 -62 -50 -100 -41c-25 6 -51 8 -72 -1z" />
    <glyph glyph-name="H" unicode="H" horiz-adv-x="570" 
d="M138 -22c-51 6 -87 50 -82 101c0 3 9 111 4 254c-19 16 -31 39 -33 66c-1 26 8 49 25 67c-6 60 -15 123 -28 183c-16 72 33 115 82 127c50 11 102 -11 120 -83c15 -63 24 -128 29 -190l80 4c4 104 14 209 34 294c12 50 61 80 110 68c49 -11 80 -60 68 -110
c-56 -237 -20 -678 -20 -682c4 -50 -33 -94 -83 -99h-8c-47 0 -87 36 -91 84c-1 9 -10 120 -12 262l-73 -4c-3 -145 -21 -252 -22 -260c-5 -47 -45 -82 -91 -82h-9z" />
    <glyph glyph-name="I" unicode="I" horiz-adv-x="270" 
d="M144 -22c-50 1 -90 43 -89 93c0 4 6 333 -33 585c-8 50 27 115 88 124c61 10 110 -41 117 -91c43 -269 11 -607 11 -621c-1 -50 -42 -90 -92 -90h-2z" />
    <glyph glyph-name="J" unicode="J" horiz-adv-x="510" 
d="M360 -30c-33 -19 -69 -29 -106 -29c-70 0 -143 33 -207 97c-35 35 -35 93 0 129c36 36 94 36 130 0c35 -35 70 -45 92 -38c87 26 -58 524 -33 628c42 174 259 78 226 -44c-20 -72 -3 -174 9 -271c12 -84 23 -171 16 -248c-9 -105 -51 -181 -127 -224z" />
    <glyph glyph-name="K" unicode="K" horiz-adv-x="616" 
d="M462 803c48 -13 77 -64 63 -112c-18 -66 -66 -154 -118 -238c9 -8 17 -17 22 -28c100 -188 157 -323 159 -329c20 -47 -2 -100 -49 -120c-11 -4 -23 -7 -35 -7c-36 0 -70 22 -85 57c0 1 -45 107 -122 259c-10 -14 -18 -26 -25 -36c-3 -103 -9 -175 -9 -181
c-1 -50 -42 -90 -92 -90h-2c-50 1 -90 43 -89 93c0 4 -19 332 -58 585c-8 50 17 138 99 148c88 11 121 -66 129 -116c6 -39 11 -79 14 -119c41 68 74 131 85 171c14 49 64 77 113 63z" />
    <glyph glyph-name="L" unicode="L" horiz-adv-x="559" 
d="M22 656c-7 50 17 122 97 131c50 6 113 -4 125 -87c21 -152 -9 -396 -7 -527l199 25c50 7 96 -29 102 -79c7 -50 -29 -96 -79 -102l-300 -38c-4 -1 -8 -1 -12 -1c-22 0 -44 8 -60 23c-20 17 -31 42 -31 68c0 4 -2 380 -34 587z" />
    <glyph glyph-name="M" unicode="M" horiz-adv-x="850" 
d="M256 79c5 -50 -32 -95 -82 -101h-10c-46 0 -85 35 -90 82c-2 17 -74 419 -48 673c15 139 192 153 232 42c5 -6 10 -13 13 -21c25 -52 99 -232 160 -382c53 161 121 360 150 412c48 86 144 68 186 10c30 -17 48 -51 45 -87c-23 -236 17 -624 17 -628
c5 -50 -31 -95 -81 -101h-10c-46 0 -86 35 -91 82c-1 9 -13 127 -20 274c-52 -129 -97 -244 -98 -247c-14 -35 -48 -57 -84 -57h-6h-5c-36 0 -70 22 -84 57c-1 3 -47 116 -100 244c1 -139 5 -250 6 -252z" />
    <glyph glyph-name="N" unicode="N" horiz-adv-x="632" 
d="M140 804c41 10 85 -10 104 -50c15 -33 67 -131 128 -242c-1 74 3 148 14 212c31 169 248 132 223 -14c-40 -234 -10 -627 -10 -631c5 -50 -31 -95 -81 -101h-10c-45 0 -83 33 -90 77c-6 7 -12 14 -17 22c-7 13 -108 196 -196 359c5 -184 23 -355 23 -357
c5 -50 -32 -95 -82 -101h-9c-47 0 -86 35 -91 82c-2 17 -42 410 -18 664c5 50 50 87 100 82c4 0 8 -1 12 -2z" />
    <glyph glyph-name="O" unicode="O" 
d="M189 43c-64 35 -113 90 -141 159c-30 74 -35 159 -16 252c49 230 190 279 300 279c124 0 242 -86 302 -218c63 -142 41 -300 -59 -411c-1 -2 -2 -3 -3 -4c-63 -63 -147 -96 -231 -96c-52 0 -104 13 -152 39zM234 442c-17 -82 2 -145 53 -173c43 -23 97 -15 133 20
c60 69 32 149 21 172c-24 53 -67 89 -109 89c-30 0 -75 0 -98 -108z" />
    <glyph glyph-name="P" unicode="P" horiz-adv-x="544" 
d="M85 133c0 2 -45 387 -62 470c-30 140 262 173 381 112c57 -29 95 -79 112 -145c16 -61 6 -120 -28 -171c-52 -76 -214 -133 -223 -135c3 -74 3 -125 3 -130c0 -51 -41 -92 -91 -92v0c-51 0 -92 41 -92 91zM321 552c-18 10 -48 10 -77 6c4 -35 7 -71 10 -106
c37 13 69 31 82 50c4 5 6 10 3 23c-5 20 -14 25 -18 27z" />
    <glyph glyph-name="Q" unicode="Q" 
d="M48 202c-30 74 -35 159 -16 252c49 230 190 279 300 279c124 0 242 -86 302 -218c60 -136 43 -286 -46 -396c32 -68 49 -110 51 -113c19 -47 -3 -100 -49 -120c-12 -5 -24 -7 -36 -7c-35 0 -69 21 -84 56c0 1 -13 32 -37 83c-30 -9 -61 -14 -92 -14
c-52 0 -104 13 -152 39c-64 35 -113 90 -141 159zM211 416c-21 -101 3 -179 65 -213c23 -12 49 -17 75 -16c-10 20 -21 41 -33 62c-23 45 -6 100 38 124c45 24 100 7 124 -38c2 -3 3 -6 5 -10c6 52 -10 97 -18 115c-30 66 -84 110 -135 110c-37 0 -93 0 -121 -134z" />
    <glyph glyph-name="R" unicode="R" horiz-adv-x="576" 
d="M549 96c19 -47 -3 -100 -49 -120c-12 -4 -24 -7 -36 -7c-35 0 -69 22 -84 57c0 1 -42 99 -114 241c-3 -1 -7 -2 -10 -3c3 -74 3 -125 3 -130c0 -51 -41 -92 -91 -92v0c-51 0 -92 41 -92 91c0 2 -41 396 -54 480c-7 42 4 94 67 113c18 5 187 50 307 -11
c56 -29 95 -79 111 -145c16 -61 6 -120 -28 -171c-13 -18 -29 -36 -48 -52c74 -146 116 -246 118 -251zM328 502c3 5 5 10 2 23c-5 20 -13 25 -18 27c-18 10 -48 10 -77 6c4 -35 7 -71 10 -106c3 1 6 2 9 4c4 2 8 5 12 7c8 4 16 7 24 9c17 9 30 19 38 30z" />
    <glyph glyph-name="S" unicode="S" horiz-adv-x="556" 
d="M531 187c-9 -63 -40 -114 -90 -146c-39 -25 -89 -37 -148 -37c-60 0 -130 12 -209 37c-48 16 -75 67 -59 115c15 48 67 77 114 60c160 -59 162 36 134 48c-47 20 -100 43 -142 85c-55 55 -76 126 -63 213c14 85 62 129 100 151c53 31 123 40 207 26
c55 -10 97 -25 102 -27c47 -18 71 -71 53 -118s-71 -71 -118 -53c-51 19 -140 39 -163 -8c-10 -21 -1 -59 96 -101c42 -18 86 -36 122 -69c50 -45 72 -106 64 -176z" />
    <glyph glyph-name="T" unicode="T" horiz-adv-x="578" 
d="M322 -22c-50 1 -90 43 -89 93c0 4 22 266 -16 498c-35 -2 -62 -3 -80 -3c-19 0 -29 1 -30 1c-51 3 -89 47 -86 97s47 89 97 85c3 0 127 -6 327 40c50 11 99 -20 110 -69c11 -50 -20 -99 -69 -110c-18 -4 -35 -7 -52 -11c36 -246 -18 -519 -19 -531
c-1 -50 -41 -90 -91 -90h-2z" />
    <glyph glyph-name="U" unicode="U" horiz-adv-x="562" 
d="M290 -22c-141 0 -247 120 -258 292c-7 131 -21 270 -1 410c27 183 248 159 234 -15c-10 -128 -40 -251 -33 -374c3 -44 5 -130 58 -130c15 0 26 5 36 15c23 24 35 72 32 125c-7 124 -12 246 1 379c5 50 49 87 99 83c51 -5 88 -50 83 -100c-12 -120 -7 -235 0 -352
c6 -104 -24 -199 -82 -260c-45 -48 -104 -73 -169 -73z" />
    <glyph glyph-name="V" unicode="V" horiz-adv-x="542" 
d="M247 30c-42 0 -79 29 -89 71c-1 4 -113 430 -136 594c-23 168 220 224 224 38c1 -86 12 -181 26 -270c28 94 54 193 68 269c9 49 57 82 106 73c50 -9 83 -56 74 -106c-40 -219 -171 -592 -176 -608c-13 -37 -49 -61 -87 -61h-4h-6z" />
    <glyph glyph-name="W" unicode="W" horiz-adv-x="862" 
d="M840 699c-39 -219 -170 -592 -176 -608c-13 -37 -48 -61 -86 -61h-5h-6c-41 0 -79 29 -89 71c0 2 -27 104 -57 227c-39 -127 -75 -229 -78 -237c-13 -37 -48 -61 -86 -61h-5h-5c-42 0 -80 29 -89 71c-1 4 -113 430 -136 594c-24 168 220 224 223 38
c2 -86 13 -181 26 -270c28 94 55 193 69 269c1 6 2 12 5 17c28 124 218 149 221 -16c2 -86 13 -181 26 -270c28 94 55 193 68 269c9 49 57 82 107 73c49 -9 82 -56 73 -106z" />
    <glyph glyph-name="X" unicode="X" horiz-adv-x="634" 
d="M558 37c-12 -5 -24 -7 -36 -7c-35 0 -69 21 -84 56c-1 2 -30 65 -83 160c-95 -130 -172 -209 -178 -215c-18 -19 -41 -28 -65 -28c-23 0 -46 9 -64 26c-36 36 -37 94 -2 130v0c2 1 98 100 206 259c-45 72 -99 150 -159 226c-119 152 83 286 188 123
c31 -49 62 -101 92 -152c23 42 45 87 65 133c21 46 75 67 121 47c46 -21 67 -75 47 -121c-40 -90 -85 -173 -131 -248c75 -146 128 -260 131 -269c20 -46 -2 -100 -48 -120z" />
    <glyph glyph-name="Y" unicode="Y" horiz-adv-x="544" 
d="M515 674c-153 -347 -222 -688 -223 -692c-9 -43 -47 -73 -90 -73c-6 0 -12 0 -18 1c-49 10 -81 58 -71 108c1 8 25 124 74 290c-17 54 -61 185 -148 356c-81 161 132 274 189 100c22 -66 41 -122 57 -169c19 50 40 101 63 153c20 46 74 67 120 47c47 -21 68 -75 47 -121z
" />
    <glyph glyph-name="Z" unicode="Z" horiz-adv-x="546" 
d="M519 104c2 -51 -37 -93 -88 -96l-315 -13h-4c-32 0 -61 16 -78 43c-17 28 -18 64 -2 93l206 471l-80 12c-50 6 -85 53 -78 103s53 85 103 78l264 -37c29 -4 55 -23 69 -50c13 -27 13 -59 -2 -85l-243 -438l152 6c51 2 93 -37 96 -87z" />
    <glyph glyph-name="a" unicode="a" horiz-adv-x="572" 
d="M79 11c-47 23 -71 78 -53 123c1 2 114 241 150 438c9 44 32 69 74 63c46 9 109 -4 131 -42c79 -134 122 -299 145 -426c6 -11 10 -24 12 -37c1 -10 0 -19 -2 -28c11 -77 15 -130 15 -136c7 -50 -28 -92 -79 -94h-2c-49 0 -94 40 -101 89c0 1 -4 31 -13 77h-143
c-7 0 -14 1 -21 3c-15 -25 -42 -39 -71 -39c-14 0 -28 3 -42 9zM285 307c-9 -30 -18 -59 -27 -86h54c-8 28 -17 57 -27 86z" />
    <glyph glyph-name="b" unicode="b" horiz-adv-x="595" 
d="M485 489c14 -46 10 -93 -11 -134c3 -1 85 -31 98 -136c9 -74 -3 -141 -49 -193c-37 -43 -89 -72 -152 -85c-23 -5 -46 -7 -69 -7c-111 0 -219 53 -244 163c-2 7 -3 13 -3 20c0 1 -20 327 -33 394c-8 46 19 90 62 104c5 2 248 23 300 -4c50 -26 85 -68 101 -122zM216 456
c3 -20 5 -40 7 -59c59 17 80 34 87 41c-2 5 -5 8 -10 10c-19 11 -52 11 -84 8zM334 193c68 14 61 52 59 64c-1 5 -2 8 -9 12c-28 18 -90 20 -148 14c1 -33 2 -60 2 -76c10 -11 49 -24 96 -14z" />
    <glyph glyph-name="c" unicode="c" horiz-adv-x="618" 
d="M356 445c-28 6 -117 10 -146 -99c-18 -67 -3 -116 43 -145c58 -36 143 -31 195 12c39 33 97 27 129 -11c32 -39 25 -99 -14 -131c-62 -51 -142 -77 -222 -77c-65 0 -130 17 -185 52c-114 72 -160 201 -123 345c33 133 107 191 164 217c68 30 139 28 196 17
c59 -12 91 -78 64 -132c-19 -37 -60 -56 -101 -48z" />
    <glyph glyph-name="d" unicode="d" horiz-adv-x="593" 
d="M22 511c-8 46 18 90 62 104c23 8 234 72 375 -32c52 -37 114 -113 114 -256c0 -89 -39 -176 -110 -247c-61 -62 -141 -103 -212 -111c-9 -1 -18 -2 -26 -2c-85 0 -149 49 -168 130c-1 7 -2 13 -2 20c0 2 -1 224 -33 394zM248 454c1 -74 3 -163 -3 -209
c55 -3 119 65 121 104c4 97 -79 109 -118 105z" />
    <glyph glyph-name="e" unicode="e" horiz-adv-x="600" 
d="M385 513c-26 1 -79 -9 -130 -22c3 -19 5 -39 7 -59l119 6c51 2 93 -37 96 -87c2 -51 -37 -93 -87 -96l-116 -5c1 -33 2 -64 3 -91l201 21c50 5 95 -31 101 -81c5 -51 -31 -96 -82 -101l-300 -32h-10c-22 0 -44 8 -61 23c-19 18 -30 42 -30 68c0 3 -42 304 -74 475
c-8 45 19 90 64 104c29 9 222 63 307 59c50 -2 90 -45 87 -95c-2 -51 -45 -90 -95 -87z" />
    <glyph glyph-name="f" unicode="f" horiz-adv-x="489" 
d="M59 334c-8 63 -20 127 -36 181c-13 45 19 91 63 104c30 9 209 50 295 46c50 -2 89 -45 87 -95c-2 -51 -45 -90 -96 -87c-26 1 -78 -9 -129 -22c2 -19 4 -39 6 -59l120 6c50 2 93 -37 95 -87c3 -51 -36 -93 -87 -96l-116 -5c5 -104 5 -186 5 -192c0 -51 -41 -92 -91 -92v0
c-51 0 -92 41 -92 91c0 2 -2 107 -14 231c-8 13 -13 28 -14 44c0 11 1 22 4 32z" />
    <glyph glyph-name="g" unicode="g" horiz-adv-x="631" 
d="M33 391c34 133 108 191 164 217c68 30 138 28 195 17c60 -12 92 -79 64 -134v0c-19 -36 -60 -56 -100 -48c-29 6 -120 17 -145 -97c-15 -63 37 -179 169 -162c18 3 31 19 29 38h-86c-51 0 -94 42 -94 93c1 49 42 89 92 89l199 4c47 0 87 -37 91 -84l-12 -173
c2 -30 -10 -59 -33 -78c-63 -52 -144 -79 -224 -79c-65 0 -130 17 -185 52c-114 72 -160 201 -124 345z" />
    <glyph glyph-name="h" unicode="h" horiz-adv-x="600" 
d="M513 744c48 -13 76 -64 63 -113c-46 -159 -29 -457 -19 -558c5 -50 -32 -95 -82 -100h-9c-47 0 -86 35 -91 82c-1 7 -9 93 -12 206l-88 -4c3 -115 -7 -198 -8 -204c-5 -47 -45 -81 -90 -81c-4 0 -8 1 -11 1c-51 6 -86 52 -80 102c0 2 -1 97 -16 221c-8 12 -12 27 -13 42
c0 10 1 19 3 28c-9 55 -21 113 -37 169c-13 49 29 101 76 121c67 28 117 -21 130 -70c14 -49 24 -98 31 -147l106 5c4 84 14 168 34 237c13 49 64 77 113 63z" />
    <glyph glyph-name="i" unicode="i" horiz-adv-x="258" 
d="M95 655c49 9 97 -24 106 -73c43 -227 37 -508 36 -520c-1 -50 -42 -89 -91 -89h-2c-51 1 -91 43 -89 93c0 4 6 275 -33 482c-10 49 23 97 73 107z" />
    <glyph glyph-name="j" unicode="j" horiz-adv-x="510" 
d="M42 150c32 39 90 44 128 12c44 -36 84 -42 105 -32c40 19 -59 433 -32 524c47 163 263 66 218 -61c-20 -54 -2 -136 10 -214c11 -72 23 -147 16 -214c-12 -119 -79 -175 -133 -200c-31 -15 -65 -23 -100 -23c-67 0 -138 27 -200 79c-39 32 -45 90 -12 129z" />
    <glyph glyph-name="k" unicode="k" horiz-adv-x="591" 
d="M325 631c16 48 68 74 116 58s74 -68 57 -116c-17 -52 -60 -120 -107 -186c3 -4 7 -9 10 -13c100 -157 157 -272 159 -276c23 -46 5 -100 -40 -123c-14 -7 -28 -10 -41 -10c-34 0 -66 19 -82 51c-1 2 -46 92 -125 219c-9 -12 -18 -22 -26 -31c-3 -81 -8 -137 -9 -142
c-1 -50 -41 -89 -91 -89h-2c-51 1 -91 43 -89 93v0c0 1 1 51 -1 124c-6 18 -7 38 -2 57c-3 91 -12 203 -30 301c-9 49 12 107 83 125c63 17 110 -35 120 -84c6 -33 10 -66 14 -100c41 56 75 109 86 142z" />
    <glyph glyph-name="l" unicode="l" horiz-adv-x="558" 
d="M228 589c23 -124 5 -312 8 -424l201 22c50 5 95 -32 100 -82c6 -50 -31 -95 -81 -100l-301 -32h-9c-23 0 -44 8 -61 23c-19 17 -30 42 -31 68c0 3 -1 314 -32 484c-10 50 24 117 89 130c70 14 108 -40 117 -89z" />
    <glyph glyph-name="m" unicode="m" horiz-adv-x="868" 
d="M737 720c77 3 115 -77 110 -127c-22 -193 -21 -515 -20 -518c6 -50 -30 -96 -80 -102h-11c-46 0 -85 33 -91 80c-1 7 -12 102 -20 221c-37 -76 -74 -152 -100 -207c-16 -32 -49 -51 -83 -51h-5h-5c-34 0 -66 19 -82 51c-31 63 -74 153 -117 239c7 -125 20 -229 20 -231
c6 -50 -29 -96 -79 -102c-4 0 -8 -1 -12 -1c-45 0 -85 34 -90 81c-2 14 -71 351 -46 566c6 50 67 96 117 92c24 -2 42 -8 55 -18c28 -4 53 -20 68 -46c27 -48 114 -223 177 -353c61 107 141 247 185 325c5 25 20 50 41 69c4 6 9 9 14 11c16 12 35 20 54 21z" />
    <glyph glyph-name="n" unicode="n" horiz-adv-x="652" 
d="M400 612c11 82 61 111 128 110c66 -2 116 -85 101 -133c-93 -286 -31 -511 -30 -514c6 -50 -30 -96 -80 -102h-11c-41 0 -77 27 -88 66c-6 5 -11 11 -15 18c-7 10 -111 167 -200 304c5 -148 22 -284 22 -286c7 -50 -29 -96 -79 -102c-4 0 -8 -1 -12 -1
c-45 0 -84 34 -90 81c-2 14 -42 344 -18 559c6 51 51 87 101 81c4 0 7 -1 11 -2c38 9 80 -8 100 -44c18 -31 81 -130 149 -234c0 69 2 139 11 199z" />
    <glyph glyph-name="o" unicode="o" 
d="M33 391c28 110 102 241 298 241c135 0 265 -91 316 -221c47 -120 18 -245 -78 -335c-1 -1 -2 -2 -4 -3c-62 -52 -143 -79 -224 -79c-65 0 -130 17 -185 52c-114 72 -160 201 -123 345zM408 268c39 38 20 188 -92 188c-107 0 -98 -174 -62 -197c45 -28 112 -24 154 9z" />
    <glyph glyph-name="p" unicode="p" horiz-adv-x="514" 
d="M55 117c0 1 -20 327 -33 394c-8 46 19 88 62 104c289 105 384 -72 401 -126c16 -52 9 -105 -21 -149c-66 -97 -218 -126 -229 -129c3 -53 3 -90 3 -93c0 -51 -41 -92 -91 -92h-1c-50 0 -91 41 -91 91zM309 438c0 18 -30 36 -93 18c2 -20 4 -40 6 -59c46 3 88 27 87 41z
" />
    <glyph glyph-name="q" unicode="q" 
d="M647 411c43 -109 23 -223 -53 -310c26 -47 41 -76 42 -79c22 -45 4 -100 -41 -122c-13 -7 -27 -10 -41 -10c-33 0 -66 19 -82 51c0 1 -12 25 -35 66c-31 -9 -64 -13 -96 -13c-65 0 -130 17 -185 52c-114 72 -160 201 -123 345c28 110 102 241 298 241
c135 0 265 -91 316 -221zM485 284c3 22 -1 43 -8 60c-24 61 -85 105 -146 105c-60 0 -99 -17 -121 -103c-17 -67 -2 -116 44 -145c24 -15 53 -23 83 -24c-5 8 -10 16 -15 23c-27 43 -15 100 28 127c42 27 99 14 126 -28z" />
    <glyph glyph-name="r" unicode="r" horiz-adv-x="554" 
d="M464 340c-12 -19 -28 -35 -47 -51c67 -112 105 -187 107 -191c23 -46 5 -100 -41 -123c-13 -7 -27 -10 -40 -10c-34 0 -66 19 -82 51c-1 2 -42 83 -113 199c-4 -2 -9 -3 -13 -4c2 -53 2 -90 2 -93c0 -51 -40 -92 -91 -92v0c-51 0 -91 41 -92 91c0 1 -20 327 -32 394
c-9 46 18 90 61 104c5 2 46 14 99 21c81 11 149 2 201 -25c50 -26 85 -68 101 -122c16 -52 9 -105 -20 -149zM273 415c21 10 32 19 36 23c-2 5 -5 8 -10 10c-19 10 -51 11 -84 8c3 -20 5 -40 7 -59c6 1 11 3 16 5v0c11 7 23 11 35 13z" />
    <glyph glyph-name="s" unicode="s" horiz-adv-x="557" 
d="M138 280c-60 50 -83 119 -68 199c10 56 41 100 89 129c111 66 281 18 314 7c48 -15 75 -66 59 -114c-15 -49 -66 -75 -114 -60c-1 0 -42 13 -88 17c-54 5 -76 -5 -79 -8c0 0 -1 -2 -1 -5c-4 -17 -1 -19 5 -24c17 -14 53 -27 85 -39c42 -15 85 -30 121 -57
c56 -41 80 -100 70 -167c-8 -53 -35 -96 -79 -125c-40 -26 -93 -39 -159 -39c-58 0 -126 10 -204 31c-49 13 -78 63 -65 112c13 48 63 77 112 65c43 -12 79 -19 109 -22c24 -3 33 31 10 40c-45 20 -96 42 -117 60z" />
    <glyph glyph-name="t" unicode="t" horiz-adv-x="577" 
d="M263 652c3 1 7 2 10 3c8 1 17 2 25 1c44 5 94 12 151 23c49 9 97 -24 106 -73c10 -50 -23 -98 -73 -107c-25 -5 -48 -9 -71 -12c22 -204 5 -415 4 -425c-1 -50 -42 -89 -91 -89h-2c-51 1 -91 43 -89 93v0c0 3 -12 208 -41 398c-23 -1 -41 -1 -55 -1h-29
c-51 3 -90 46 -87 96c3 51 46 89 96 87c2 0 55 -2 146 6z" />
    <glyph glyph-name="u" unicode="u" horiz-adv-x="559" 
d="M29 576c10 85 56 129 141 119c65 -8 111 -64 94 -142c-23 -103 -46 -209 -38 -314c1 -20 -2 -84 62 -84c19 0 34 6 45 18c17 17 25 48 23 82c-7 105 -12 208 1 321c5 50 51 86 101 80c50 -5 86 -51 80 -101c-11 -97 -6 -192 0 -288c6 -84 -20 -164 -71 -219
c-46 -49 -109 -75 -179 -75c-141 0 -247 105 -258 256c-8 110 -16 227 -1 347z" />
    <glyph glyph-name="v" unicode="v" horiz-adv-x="584" 
d="M341 622c16 82 90 93 140 83c49 -11 97 -55 78 -135c-43 -184 -211 -485 -217 -498c-14 -35 -48 -56 -84 -56h-5h-5c-40 0 -77 27 -88 67c-1 4 -99 360 -136 495c-14 49 15 99 64 112c48 14 99 -15 112 -64c17 -60 46 -166 73 -264c24 70 48 156 68 260z" />
    <glyph glyph-name="w" unicode="w" horiz-adv-x="902" 
d="M481 705c49 -11 97 -55 78 -135c-3 -15 -7 -31 -13 -48c14 -50 30 -106 45 -160c24 70 48 156 68 260c16 82 90 93 140 83c49 -11 97 -55 78 -135c-43 -184 -211 -485 -217 -498c-15 -35 -48 -56 -84 -56h-5h-5c-41 0 -77 27 -89 67c0 2 -20 73 -45 164
c-46 -95 -86 -169 -89 -175c-15 -35 -49 -56 -84 -56h-6h-5c-40 0 -77 27 -88 67c-1 4 -99 360 -136 495c-13 49 15 99 64 112c49 14 99 -15 112 -64c17 -60 46 -166 73 -264c23 66 46 146 65 242c1 13 4 26 9 37c23 65 89 73 134 64z" />
    <glyph glyph-name="x" unicode="x" horiz-adv-x="634" 
d="M109 515c-63 66 -35 132 4 164c39 33 113 40 163 -19c35 -41 68 -85 100 -129c23 35 45 72 65 111c24 44 79 61 124 37c45 -23 61 -79 38 -123c-37 -69 -77 -133 -119 -192c70 -116 116 -208 119 -215c23 -45 6 -100 -39 -123c-14 -7 -28 -10 -42 -10
c-33 0 -65 18 -81 50c-1 1 -34 57 -86 135c-98 -112 -178 -181 -184 -186c-17 -14 -38 -21 -59 -21c-26 0 -52 10 -70 32c-33 38 -28 96 11 129c2 2 90 77 192 199c-42 55 -89 111 -136 161z" />
    <glyph glyph-name="y" unicode="y" horiz-adv-x="540" 
d="M471 679c45 -23 62 -79 38 -123c-152 -286 -220 -568 -221 -571c-10 -42 -48 -70 -89 -70c-7 0 -14 1 -21 2c-49 12 -80 61 -68 110c2 7 25 103 74 241c-2 7 -3 15 -2 23c-1 7 -28 81 -141 253c-42 63 -13 124 26 156s130 36 159 -60c19 -58 35 -106 49 -146
c22 48 46 98 72 148c24 44 79 61 124 37z" />
    <glyph glyph-name="z" unicode="z" horiz-adv-x="584" 
d="M32 33c-17 30 -15 67 4 96l239 360l-115 13c-51 6 -87 51 -81 101s51 86 102 81l263 -31c32 -4 171 -53 99 -173l-256 -304l137 5c50 1 93 -38 94 -88c2 -51 -37 -93 -88 -95l-315 -11c-1 0 -2 -1 -3 -1c-33 0 -64 18 -80 47z" />
    <glyph glyph-name="exclam" unicode="!" horiz-adv-x="268" 
d="M59 310c0 3 6 274 -33 481c-9 50 24 98 73 107c50 9 98 -23 107 -73c43 -227 36 -508 36 -520c-1 -50 -42 -89 -91 -89h-3c-50 1 -90 43 -89 94zM134 164c60 0 110 -49 113 -111v0c1 -29 -10 -57 -31 -79c-22 -23 -52 -36 -82 -36c-60 0 -110 49 -113 111
c-1 29 10 57 31 79c22 23 52 36 82 36z" />
    <glyph glyph-name="quotedbl" unicode="&#x22;" horiz-adv-x="518" 
d="M119 863c36 102 197 55 157 -60c-19 -53 -94 -151 -126 -189c-29 -34 -81 -35 -111 -2v0c-24 28 -25 68 -1 96c23 28 70 122 81 155zM335 863c35 102 196 55 156 -60c-19 -53 -94 -151 -126 -189c-29 -34 -81 -35 -111 -2v0c-24 28 -25 68 -1 96c23 28 70 122 82 155z
" />
    <glyph glyph-name="numbersign" unicode="#" horiz-adv-x="725" 
d="M483 -4c-51 1 -91 43 -90 93c0 1 1 30 0 76c-21 -1 -42 -2 -62 -3c0 -44 -1 -72 -1 -76c-1 -50 -41 -90 -91 -90h-2c-50 1 -91 43 -90 93c0 1 1 27 1 68c-22 1 -35 1 -38 1c-50 1 -90 43 -89 94c1 49 42 89 92 89h2v0s11 -1 29 -1c0 11 -1 22 -2 34h-32
c-50 1 -90 43 -89 94c1 50 43 90 94 89v0h13c-4 31 -8 60 -13 87c-10 50 23 98 73 107c49 10 97 -23 106 -73c7 -37 13 -77 17 -118c20 1 41 2 62 3c-4 29 -8 56 -13 81c-9 50 23 98 73 107c50 10 98 -23 107 -73c6 -30 10 -62 14 -95c15 2 29 4 42 7c50 9 98 -24 107 -73
c10 -50 -23 -98 -73 -107c-20 -4 -40 -7 -60 -10c0 -10 1 -21 1 -31c9 2 17 3 25 5c50 9 98 -24 107 -73c10 -50 -23 -98 -73 -107c-18 -4 -36 -7 -54 -9c1 -57 0 -95 0 -99c-1 -50 -42 -90 -92 -90h-1zM327 345c20 1 41 2 62 3c0 11 -1 22 -1 33c-22 -1 -43 -2 -63 -3
c1 -12 1 -23 2 -33z" />
    <glyph glyph-name="dollar" unicode="$" horiz-adv-x="556" 
d="M371 -116c8 -89 -146 -86 -149 3c-1 45 -1 80 -1 108c-42 6 -87 17 -137 33c-48 15 -75 66 -59 114c15 48 67 77 114 60c160 -58 162 36 134 48c-47 20 -100 43 -142 85c-55 55 -76 127 -63 213c14 85 62 129 100 151c30 17 65 28 106 31c-4 46 -8 104 -10 119
c-8 89 146 86 149 -3c2 -57 2 -98 0 -129c35 -8 60 -18 64 -19c47 -18 71 -71 53 -118s-71 -71 -118 -53c-51 19 -140 39 -163 -8c-10 -20 -1 -59 96 -101c42 -18 86 -36 122 -69c50 -45 72 -106 64 -175c-9 -64 -40 -115 -90 -147c-23 -14 -49 -25 -79 -31
c3 -44 8 -97 9 -112z" />
    <glyph glyph-name="percent" unicode="%" horiz-adv-x="634" 
d="M307 624c53 225 271 134 210 -48c-78 -234 -270 -546 -279 -559c-17 -26 -46 -40 -75 -40c-18 0 -36 6 -52 17c-41 28 -52 85 -23 127c2 3 147 192 219 503zM216 535c-22 -23 -52 -36 -82 -36c-61 0 -110 49 -113 111c-1 29 9 57 30 79c22 23 52 36 83 36
c60 0 110 -49 112 -111v0c2 -29 -9 -57 -30 -79zM500 212c61 0 110 -48 113 -110v0c1 -29 -9 -57 -31 -79c-21 -23 -51 -36 -82 -36c-60 0 -110 48 -112 110c-2 29 9 57 30 79c22 23 52 36 82 36z" />
    <glyph glyph-name="ampersand" unicode="&#x26;" horiz-adv-x="763" 
d="M21 244c2 82 53 134 113 176c-13 18 -24 35 -35 53c-37 60 -36 139 3 208c41 75 115 119 197 119c86 0 162 -42 203 -112c35 -58 38 -124 10 -176c-31 -56 -71 -99 -114 -133c20 -23 41 -44 61 -64c47 68 78 133 79 133c21 46 76 65 121 44c46 -22 65 -76 44 -122
c-2 -4 -40 -84 -100 -168c22 -11 38 -15 49 -15c50 0 91 -41 91 -92c0 -50 -41 -91 -91 -91c-52 0 -110 20 -173 60c-61 -49 -122 -74 -183 -74c-95 0 -169 28 -218 83c-59 67 -59 147 -57 171zM265 598c-10 -14 -11 -27 -10 -30c9 -15 19 -30 30 -46c24 20 45 43 62 70
c-5 9 -19 25 -48 25c-17 0 -28 -10 -34 -19zM203 230c0 -4 1 -23 12 -36c13 -14 42 -22 81 -22c9 0 21 4 35 12c-28 28 -57 59 -85 91c-20 -14 -38 -28 -42 -36c0 -4 0 -5 -1 -9z" />
    <glyph glyph-name="parenleft" unicode="(" horiz-adv-x="300" 
d="M275 -262c-7 0 -15 0 -22 2c-176 43 -218 341 -228 468c-22 274 33 629 258 723c46 19 100 -3 119 -49c20 -47 -2 -100 -49 -120c-81 -34 -139 -186 -148 -388c-5 -110 5 -224 28 -316c25 -98 55 -135 65 -141c48 -12 77 -61 65 -110c-10 -41 -47 -69 -88 -69z" />
    <glyph glyph-name="quotesingle" unicode="'" horiz-adv-x="302" 
d="M119 861c36 102 197 55 156 -60c-18 -53 -94 -151 -126 -189c-29 -34 -81 -35 -111 -2v0c-24 28 -24 68 0 96c23 28 69 122 81 155z" />
    <glyph glyph-name="parenright" unicode=")" horiz-adv-x="380" 
d="M97 -256c-11 -5 -23 -7 -35 -7c-36 0 -70 21 -84 56c-20 47 2 100 49 120c81 34 139 186 148 388c5 109 -5 224 -28 316c-25 98 -55 134 -65 140c-48 13 -77 62 -66 110c12 50 62 80 111 68c176 -43 218 -341 228 -468c22 -275 -33 -629 -258 -723z" />
    <glyph glyph-name="asterisk" unicode="*" horiz-adv-x="455" 
d="M434 839c-1 -34 -26 -63 -59 -68c-16 -2 -33 -5 -50 -10c18 -31 34 -47 34 -47c30 -26 33 -71 6 -101c-14 -16 -33 -24 -53 -24c-17 0 -34 6 -47 18c-3 3 -20 18 -40 47c-8 -12 -16 -23 -24 -33c-27 -34 -79 -36 -108 -3l-1 1c-23 26 -24 64 -3 90c12 17 26 36 39 57
c-16 4 -32 6 -47 9c-33 5 -59 33 -59 67c-1 1 -1 2 -1 2c-1 44 38 78 81 72c19 -3 39 -7 60 -12c2 20 4 39 6 56c7 43 51 70 93 56c0 0 1 -1 2 -1c32 -11 52 -43 46 -77c-1 -11 -3 -23 -4 -35c17 4 34 7 49 9c43 7 82 -28 80 -71v-2z" />
    <glyph glyph-name="comma" unicode="," horiz-adv-x="249" 
d="M83 -85l24 43c9 17 1 37 -17 42c-32 9 -72 34 -69 105c2 44 35 82 79 89c157 25 192 -232 -17 -279z" />
    <glyph glyph-name="plus" unicode="+" horiz-adv-x="716" 
d="M109 278c-51 2 -90 45 -88 95c2 51 45 90 95 88c2 0 65 -3 148 -5c2 87 5 154 5 161c2 50 45 89 95 87c51 -2 90 -45 88 -95c0 -2 -3 -69 -5 -156c57 0 111 1 151 3c50 3 94 -35 97 -86c3 -50 -35 -93 -86 -96c-39 -3 -91 -4 -145 -4h-20c0 -54 0 -105 3 -143
c3 -50 -35 -93 -86 -97h-6c-47 0 -88 38 -91 86c-2 42 -3 98 -3 157c-83 2 -146 5 -152 5z" />
    <glyph glyph-name="hyphen" unicode="-" horiz-adv-x="594" 
d="M21 382c4 50 47 88 98 85c2 0 214 -14 357 -5c50 3 93 -35 97 -86c3 -50 -36 -93 -86 -96c-40 -3 -83 -4 -126 -4c-126 0 -248 8 -254 8c-51 4 -89 47 -86 98z" />
    <glyph glyph-name="period" unicode="." horiz-adv-x="268" 
d="M134 190c60 0 110 -49 113 -111v0c1 -29 -10 -57 -31 -79c-22 -23 -52 -36 -82 -36c-60 0 -110 49 -113 111c-1 29 10 57 31 79c22 23 52 36 82 36z" />
    <glyph glyph-name="slash" unicode="/" horiz-adv-x="496" 
d="M187 28c-18 -26 -47 -40 -76 -40c-18 0 -36 6 -51 17c-42 28 -52 85 -24 127c2 3 147 192 220 503c53 225 270 134 209 -48c-77 -234 -269 -546 -278 -559z" />
    <glyph glyph-name="colon" unicode=":" horiz-adv-x="268" 
d="M134 657c60 0 110 -49 113 -111v0c1 -29 -10 -57 -31 -79c-22 -23 -52 -36 -82 -36c-60 0 -110 49 -113 111c-1 29 10 57 31 79c22 23 52 36 82 36zM134 297c60 0 110 -48 113 -110v0c1 -29 -10 -57 -31 -79c-22 -23 -52 -36 -82 -36c-60 0 -110 48 -113 110
c-1 29 10 57 31 79c22 23 52 36 82 36z" />
    <glyph glyph-name="semicolon" unicode=";" horiz-adv-x="268" 
d="M109 283c157 25 192 -232 -17 -279l24 43c9 17 1 37 -17 42c-32 9 -72 34 -69 105c2 44 35 82 79 89zM134 657c60 0 110 -49 113 -111v0c1 -29 -10 -57 -31 -79c-22 -23 -52 -36 -82 -36c-60 0 -110 49 -113 111c-1 29 10 57 31 79c22 23 52 36 82 36z" />
    <glyph glyph-name="less" unicode="&#x3c;" horiz-adv-x="715" 
d="M685 130c-15 -32 -48 -51 -82 -51c-13 0 -27 3 -40 10c-106 52 -401 194 -482 224c-42 15 -66 58 -59 100c-7 44 20 88 64 101c4 1 386 117 486 154c48 17 100 -8 117 -55c18 -48 -7 -100 -54 -117c-55 -20 -185 -61 -298 -96c140 -65 297 -142 307 -147
c45 -23 64 -77 41 -123z" />
    <glyph glyph-name="equal" unicode="=" horiz-adv-x="716" 
d="M109 408c-51 3 -90 45 -88 96c2 50 45 89 95 87c4 0 338 -14 482 -5c50 3 94 -35 97 -85c3 -51 -35 -94 -86 -97c-39 -3 -91 -4 -145 -4c-158 0 -345 8 -355 8zM598 304c50 3 94 -35 97 -86c3 -50 -35 -93 -86 -96c-39 -3 -91 -4 -145 -4c-158 0 -345 8 -355 8
c-51 2 -90 45 -88 95c2 51 45 90 95 88c4 0 338 -14 482 -5z" />
    <glyph glyph-name="greater" unicode="&#x3e;" horiz-adv-x="716" 
d="M635 444c41 -15 65 -57 59 -99c7 -45 -20 -88 -64 -102c-4 -1 -386 -117 -486 -153c-11 -4 -21 -6 -32 -6c-37 0 -72 23 -85 60c-18 48 7 100 54 118c55 20 185 60 298 95c-140 66 -297 143 -307 148c-45 22 -64 77 -42 122c23 45 77 64 123 42
c106 -53 401 -195 482 -225z" />
    <glyph glyph-name="question" unicode="?" horiz-adv-x="514" 
d="M488 798c27 -142 -60 -233 -123 -299c-65 -68 -98 -106 -85 -176c9 -50 -24 -98 -74 -107c-5 -1 -11 -1 -16 -1c-44 0 -82 31 -90 75c-30 165 64 264 133 336c61 64 84 93 75 138c0 3 -1 4 -1 4c-3 3 -25 14 -80 9c-46 -5 -87 -17 -87 -17c-48 -16 -99 11 -115 59
c-15 48 12 100 60 115c33 10 203 59 314 -8c48 -28 78 -72 89 -128zM199 158c61 0 110 -48 113 -110v0c1 -29 -9 -57 -31 -79c-21 -23 -51 -36 -82 -36c-60 0 -110 48 -112 110c-2 29 9 57 30 79c22 23 52 36 82 36z" />
    <glyph glyph-name="underscore" unicode="_" horiz-adv-x="716" 
d="M609 -35c-39 -3 -91 -4 -145 -4c-158 0 -345 8 -355 9c-51 2 -90 44 -88 95c2 50 45 89 95 87c4 0 338 -14 482 -5c50 3 94 -35 97 -85c3 -51 -35 -94 -86 -97z" />
    <glyph glyph-name="asciicircum" unicode="^" horiz-adv-x="438" 
d="M394 618c-18 -20 -43 -30 -68 -30c-22 0 -43 7 -61 23c-4 3 -25 23 -51 59c-10 -15 -21 -29 -31 -42c-34 -44 -100 -46 -138 -4c0 1 -1 1 -2 2c-29 32 -30 81 -3 116c29 38 64 89 81 136c14 41 54 65 95 61c42 4 82 -20 96 -61c31 -88 74 -130 75 -131
c37 -33 41 -91 7 -129z" />
    <glyph glyph-name="bracketright" unicode="]" horiz-adv-x="285" 
d="M45 -87c9 80 22 212 30 353c16 276 2 414 -12 480h-2c-50 -3 -93 36 -96 86s35 94 86 97l71 4c36 2 69 -17 86 -49c19 -36 77 -146 49 -629c-13 -230 -38 -432 -39 -441c-6 -43 -42 -77 -86 -79l-115 -6c-1 0 -3 -1 -4 -1c-49 0 -89 38 -92 87c-2 51 36 94 87 96z" />
    <glyph glyph-name="backslash" unicode="\" horiz-adv-x="496" 
d="M385 -10c-29 0 -58 14 -76 40c-9 13 -201 325 -278 559c-61 182 156 273 209 48c73 -311 218 -500 220 -503c28 -42 18 -99 -24 -127c-15 -11 -33 -17 -51 -17z" />
    <glyph glyph-name="bracketleft" unicode="[" horiz-adv-x="286" 
d="M365 850c2 -50 -37 -93 -87 -96l-37 -2c-9 -79 -22 -212 -30 -352c-16 -277 -2 -414 12 -481h2c50 3 93 -35 96 -86c3 -50 -35 -93 -86 -96l-71 -4c-2 -1 -4 -1 -5 -1c-34 0 -65 19 -81 49c-19 36 -77 146 -50 630c13 230 39 432 40 440c6 44 42 77 86 80l114 6
c51 2 94 -36 97 -87z" />
    <glyph glyph-name="braceleft" unicode="{" horiz-adv-x="389" 
d="M322 -241c-70 17 -119 70 -148 159c-17 55 -28 125 -35 234c-2 25 -13 48 -30 66l-62 63c-17 18 -27 43 -26 68c2 25 13 49 33 66l54 45c20 17 33 42 36 69c8 76 19 164 47 240c34 89 88 150 161 181c46 19 100 -3 119 -49c20 -47 -2 -100 -49 -120
c-63 -27 -84 -151 -96 -270c-7 -65 -35 -126 -80 -172c44 -48 71 -110 75 -175c5 -77 12 -132 22 -171c11 -42 21 -54 24 -56c48 -13 78 -62 66 -111c-10 -41 -48 -69 -89 -69c-7 0 -14 0 -22 2z" />
    <glyph glyph-name="bar" unicode="|" horiz-adv-x="270" 
d="M21 -212c0 2 26 250 39 519c22 485 -17 600 -29 624c-24 45 -6 100 38 123c45 24 100 7 124 -38c33 -62 73 -205 49 -719c-13 -273 -39 -526 -39 -528c-5 -47 -45 -82 -91 -82h-10c-50 5 -86 50 -81 101z" />
    <glyph glyph-name="braceright" unicode="}" horiz-adv-x="418" 
d="M227 -56c-33 -89 -87 -150 -160 -181c-12 -5 -23 -7 -35 -7c-36 0 -70 21 -85 56c-19 47 3 100 49 120c64 27 85 151 97 270c6 66 35 126 80 172c-44 48 -71 110 -75 175c-5 77 -12 132 -22 171c-11 42 -21 54 -24 56c-48 13 -78 62 -66 111s62 79 111 67
c69 -17 119 -70 147 -159c18 -55 29 -125 36 -234c2 -25 12 -48 30 -66l61 -63c18 -18 28 -42 26 -68c-1 -25 -12 -49 -32 -65l-54 -46c-20 -17 -33 -42 -36 -69c-8 -76 -19 -164 -48 -240z" />
    <glyph glyph-name="asciitilde" unicode="~" horiz-adv-x="536" 
d="M22 372c11 70 41 117 89 138c74 33 144 -12 200 -48c9 -7 23 -15 35 -22c21 36 65 53 107 39c47 -16 73 -67 58 -115c-24 -71 -66 -99 -98 -110c-16 -6 -32 -8 -47 -8c-58 0 -111 34 -155 62c-5 3 -10 7 -16 11c-17 -36 -56 -58 -98 -51c-49 8 -83 55 -75 104z" />
    <glyph glyph-name="grave" unicode="`" horiz-adv-x="262" 
d="M163 803c11 -34 38 -69 61 -97s23 -69 -1 -96v0c-30 -33 -82 -33 -111 2c-32 37 -69 89 -87 142c-14 38 6 80 45 94c38 13 79 -7 93 -45z" />
    <glyph glyph-name="at" unicode="@" horiz-adv-x="788" 
d="M767 346c4 -96 -32 -188 -102 -261c-72 -75 -171 -119 -271 -119c-200 0 -363 161 -373 366c-4 96 32 189 101 261c73 76 171 119 272 119c200 0 363 -161 373 -366v0zM570 104c62 39 112 103 112 202c-7 155 -110 320 -288 320c-71 0 -269 -50 -288 -254
c-14 -155 91 -320 288 -320c35 0 82 8 128 27h-1c-34 0 -66 25 -70 58c-1 0 -3 19 -10 50h-100c-5 0 -9 0 -14 1c-11 -16 -29 -25 -50 -25c-9 0 -19 2 -29 6c-33 15 -50 51 -38 80c1 2 80 157 106 286c6 29 22 46 51 41c32 7 76 -2 92 -27c55 -88 85 -195 101 -278
c5 -8 7 -16 8 -25c1 -6 1 -12 -1 -18c8 -50 11 -84 11 -88c2 -14 -1 -26 -8 -36zM411 306c-6 18 -12 37 -19 56c-7 -19 -13 -38 -19 -56h38z" />
    <glyph glyph-name="Euro" unicode="&#x20ac;" horiz-adv-x="604" 
d="M536 26c-53 -31 -114 -41 -175 -32s-122 37 -175 83c-57 48 -100 112 -123 182c-49 13 -56 77 -18 105c-1 24 0 47 4 71c-47 26 -35 107 34 113c73 159 196 214 287 232c23 5 46 7 67 8c61 2 108 -55 93 -114c-10 -39 -45 -67 -85 -69c-14 0 -30 -2 -46 -6
c-39 -8 -73 -26 -100 -54c71 -1 147 -2 204 -2c86 0 102 -121 11 -122c-39 0 -21 -3 -75 -3c-70 0 -144 2 -207 3c-3 -15 -5 -30 -5 -44c88 -2 199 -3 276 -3c86 0 102 -121 11 -122c-39 0 -21 -3 -75 -3c-56 0 -114 1 -168 2c11 -14 22 -26 34 -35c36 -32 95 -59 139 -31
c43 26 100 12 126 -30c27 -45 11 -102 -34 -129z" />
    <glyph glyph-name="copyright" unicode="&#xa9;" horiz-adv-x="749" 
d="M455 316c22 19 55 16 73 -6c19 -23 15 -57 -8 -75c-35 -29 -81 -44 -127 -44c-37 0 -74 10 -106 30c-65 41 -91 114 -70 197c19 76 62 109 94 124c39 17 79 16 112 9c34 -6 52 -44 36 -75c-10 -21 -34 -32 -57 -27c-16 3 -67 6 -84 -57c-10 -38 -1 -66 25 -83
c33 -20 82 -17 112 7zM728 380c5 -91 -30 -179 -95 -248c-69 -71 -163 -112 -258 -112c-190 0 -345 152 -354 347c-4 91 30 179 96 248c69 71 163 112 258 112c189 0 345 -152 353 -347v0zM375 101c94 0 273 59 273 241c-6 147 -104 304 -273 304c-67 0 -256 -48 -273 -241
c-14 -147 86 -304 273 -304z" />
    <glyph glyph-name="germandbls" unicode="&#xdf;" horiz-adv-x="601" 
d="M571 338c27 -121 -6 -196 -38 -238c-39 -51 -101 -81 -173 -84c-51 -2 -93 37 -95 88c-3 50 37 93 87 95c12 0 29 3 37 13c4 6 17 28 4 87c-1 5 -5 22 -32 41c-73 50 -103 143 -73 227c12 33 17 57 18 73c-21 3 -55 1 -93 -4c24 -235 25 -593 25 -610
c0 -50 -41 -91 -91 -91v0c-51 0 -92 41 -92 91c0 5 -1 463 -33 670c-7 47 22 91 68 103c2 1 53 14 114 20c96 12 166 2 214 -28c36 -22 59 -54 67 -93c11 -51 3 -114 -25 -192c-2 -6 0 -13 5 -16c56 -39 93 -92 106 -152z" />
    <glyph glyph-name="multiply" unicode="&#xd7;" horiz-adv-x="574" 
d="M182 593c1 -1 44 -47 101 -107c63 59 113 105 117 109c38 35 95 32 130 -5c34 -37 31 -95 -6 -129c-1 -1 -51 -47 -114 -107c41 -41 80 -78 109 -105c38 -33 42 -91 8 -129c-18 -20 -43 -31 -68 -31c-22 0 -43 8 -61 23c-33 30 -75 71 -119 115c-39 -38 -74 -75 -99 -103
c-18 -21 -43 -31 -68 -31c-22 0 -43 7 -61 23c-38 33 -41 91 -8 129c28 32 67 72 109 113c-57 61 -100 107 -104 112c-34 37 -32 95 5 129s95 32 129 -6z" />
    <glyph glyph-name="plusminus" unicode="&#xb1;" horiz-adv-x="716" 
d="M598 127c50 3 94 -35 97 -85c3 -51 -35 -94 -86 -97c-39 -3 -91 -4 -145 -4c-158 0 -345 8 -355 9c-51 2 -90 44 -88 95c2 50 45 89 95 87c4 0 338 -14 482 -5zM109 426c-51 2 -90 45 -88 95c2 51 45 90 95 88c2 0 65 -3 148 -5c2 87 5 154 5 160c2 51 45 90 95 88
c51 -2 90 -45 88 -95c0 -2 -3 -69 -5 -156c57 0 111 0 151 3c50 3 94 -35 97 -86c3 -50 -35 -94 -86 -97c-39 -2 -91 -3 -145 -3h-20c0 -54 0 -105 3 -143c3 -50 -35 -94 -86 -97h-6c-47 0 -88 37 -91 86c-2 42 -3 98 -3 157c-83 2 -146 5 -152 5z" />
    <glyph glyph-name="lessequal" unicode="&#x2264;" horiz-adv-x="716" 
d="M598 139c50 3 94 -35 97 -85c3 -51 -35 -94 -86 -97c-39 -3 -91 -4 -145 -4c-158 0 -345 8 -355 9c-51 2 -90 44 -88 95c2 50 45 89 95 87c4 0 338 -14 482 -5zM81 400c-42 15 -65 58 -59 100c-7 44 20 88 64 101c4 1 386 117 486 154c48 17 100 -8 117 -55
c18 -48 -7 -100 -54 -117c-55 -20 -185 -61 -298 -96c140 -65 297 -142 307 -147c45 -23 64 -77 41 -123c-15 -32 -48 -51 -82 -51c-13 0 -27 3 -40 10c-106 52 -401 194 -482 224z" />
    <glyph glyph-name="notequal" unicode="&#x2260;" horiz-adv-x="720" 
d="M21 533c2 50 45 89 95 87c2 0 125 -5 253 -7c17 55 31 107 42 149c12 49 62 79 111 67s79 -62 66 -111c-7 -31 -17 -67 -28 -105c14 1 26 1 38 2c50 3 94 -35 97 -85c3 -51 -35 -94 -86 -97c-29 -2 -66 -3 -105 -4c-11 -33 -21 -66 -32 -99c48 0 92 1 126 3
c50 3 94 -35 97 -86c3 -50 -35 -93 -86 -96c-39 -3 -91 -4 -145 -4h-53c-24 -72 -41 -122 -44 -128c-13 -38 -48 -61 -86 -61c-10 0 -20 1 -30 5c-48 16 -73 68 -56 116c0 1 10 29 25 72c-62 2 -106 4 -111 4c-51 2 -90 45 -88 95c2 51 45 90 95 88c2 0 74 -3 164 -5
c11 31 22 65 33 98c-107 2 -197 6 -204 6c-51 3 -90 45 -88 96zM113 408c-51 3 -90 45 -88 96c2 50 45 89 95 87c4 0 338 -14 482 -5c50 3 94 -35 97 -85c3 -51 -35 -94 -86 -97c-39 -3 -91 -4 -145 -4c-158 0 -345 8 -355 8zM602 304c50 3 94 -35 97 -86
c3 -50 -35 -93 -86 -96c-39 -3 -91 -4 -145 -4c-158 0 -345 8 -355 8c-51 2 -90 45 -88 95c2 51 45 90 95 88c4 0 338 -14 482 -5z" />
    <glyph glyph-name="greaterequal" unicode="&#x2265;" horiz-adv-x="716" 
d="M598 142c50 3 94 -35 97 -85c3 -51 -35 -94 -86 -97c-39 -3 -91 -4 -145 -4c-158 0 -345 8 -355 9c-51 2 -90 44 -88 95c2 50 45 89 95 87c4 0 338 -14 482 -5zM635 529c41 -15 65 -57 59 -99c7 -45 -20 -88 -64 -102c-4 -1 -386 -117 -486 -153c-11 -4 -21 -6 -32 -6
c-37 0 -72 23 -85 60c-18 48 7 100 54 118c55 20 185 60 298 95c-140 66 -297 143 -307 148c-45 22 -64 77 -42 122c23 45 77 64 123 42c106 -53 401 -195 482 -225z" />
    <glyph glyph-name="dieresis" unicode="&#xa8;" horiz-adv-x="512" 
d="M134 812c60 0 110 -48 113 -110v0c1 -29 -10 -57 -31 -79c-22 -23 -52 -36 -82 -36c-61 0 -110 48 -113 110c-1 29 10 57 31 79c22 23 51 36 82 36zM378 812c60 0 110 -48 113 -110v0c1 -29 -10 -57 -31 -79c-22 -23 -52 -36 -82 -36c-60 0 -110 48 -113 110
c-1 29 10 57 31 79c22 23 52 36 82 36z" />
    <glyph glyph-name="ring" unicode="&#x2da;" horiz-adv-x="338" 
d="M277 635c-29 -30 -68 -48 -108 -48c-79 0 -144 64 -148 146c-2 38 13 75 40 103c29 30 68 48 108 48c79 0 144 -64 148 -146v0c2 -38 -13 -75 -40 -103zM129 740c1 -21 15 -44 40 -44c10 0 22 5 30 14c3 3 10 12 10 21c-1 21 -15 44 -40 44c-10 0 -22 -5 -30 -14
c-3 -4 -10 -12 -10 -21z" />
    <glyph glyph-name="caron" unicode="&#x2c7;" horiz-adv-x="362" 
d="M99 637c-12 34 -38 69 -61 97c-24 28 -23 69 1 96c29 33 82 33 111 -2c10 -12 20 -25 31 -40c10 15 21 28 31 40c29 35 81 35 111 2c24 -27 25 -68 1 -96c-23 -28 -49 -63 -61 -97s-47 -54 -82 -47c-35 -7 -70 13 -82 47z" />
    <glyph glyph-name="acute" unicode="&#xb4;" horiz-adv-x="262" 
d="M39 611v0c-24 27 -25 68 -1 96c23 28 49 63 61 97c13 38 55 58 93 45c38 -14 59 -56 45 -94c-18 -53 -55 -105 -87 -142c-29 -35 -81 -35 -111 -2z" />
    <glyph glyph-name="tilde" unicode="&#x2dc;" horiz-adv-x="410" 
d="M386 664c-13 -41 -39 -59 -59 -68c-14 -7 -29 -9 -44 -9c-37 0 -74 17 -108 32c-8 4 -19 9 -29 12c-14 -23 -41 -36 -69 -32c-37 6 -62 41 -56 78c8 50 34 73 55 84c52 28 106 3 155 -19c10 -5 26 -11 37 -16c17 22 47 33 75 23c36 -11 55 -50 43 -85z" />
    <glyph glyph-name="circumflex" unicode="&#x2c6;" horiz-adv-x="362" 
d="M39 612v0c-24 27 -25 68 -1 96c23 28 49 63 61 97s47 54 82 47c35 7 70 -13 82 -47s38 -69 61 -97c24 -28 23 -69 -1 -96v0c-30 -33 -82 -33 -111 2c-10 12 -21 25 -31 40c-11 -15 -21 -28 -31 -40c-29 -35 -82 -35 -111 -2z" />
    <glyph glyph-name="dotaccent" unicode="&#x2d9;" horiz-adv-x="268" 
d="M134 812c60 0 110 -48 113 -110v0c1 -29 -10 -57 -31 -79c-22 -23 -52 -36 -82 -36c-60 0 -110 48 -113 110c-1 29 10 57 31 79c22 23 52 36 82 36z" />
    <glyph glyph-name="hungarumlaut" unicode="&#x2dd;" horiz-adv-x="466" 
d="M243 611c-24 27 -25 68 -1 96c23 28 49 63 61 97c13 38 55 58 93 45c38 -14 59 -56 45 -94c-18 -53 -55 -105 -87 -142c-29 -35 -81 -35 -111 -2zM39 611c-24 27 -25 68 -1 96c23 28 49 63 61 97c13 38 55 58 93 45c38 -14 59 -56 45 -94c-18 -53 -55 -105 -87 -142
c-29 -35 -81 -35 -111 -2z" />
    <glyph glyph-name="macron" unicode="&#xaf;" horiz-adv-x="504" 
d="M21 678c3 42 39 74 82 71c1 0 179 -12 299 -4c42 3 78 -29 81 -72c3 -42 -30 -78 -72 -81c-33 -2 -69 -3 -105 -3c-106 0 -208 7 -213 7c-43 3 -75 39 -72 82z" />
    <glyph glyph-name="OE" unicode="&#x152;" horiz-adv-x="1014" 
d="M881 236c134 12 157 -234 23 -246l-300 -38c-4 -1 -8 -1 -12 -1c-22 0 -43 8 -60 23c-20 17 -31 42 -31 68v21c-50 -27 -105 -42 -161 -42c-52 0 -104 13 -151 39c-64 35 -113 90 -142 159c-30 74 -35 159 -15 252c49 230 190 279 299 279c55 0 109 -17 157 -47
c10 11 23 21 39 26c30 11 184 66 272 61c50 -3 89 -46 86 -96c-2 -51 -45 -90 -96 -87c-23 1 -77 -11 -131 -27c4 -37 8 -72 11 -106l116 7c51 3 94 -36 97 -86c3 -51 -36 -94 -86 -97l-116 -6c1 -28 2 -55 2 -82zM420 306c60 69 31 149 21 172c-24 53 -68 89 -109 89
c-30 0 -75 0 -98 -108c-17 -82 2 -145 53 -173c43 -23 97 -15 133 20z" />
    <glyph glyph-name="oe" unicode="&#x153;" horiz-adv-x="1008" 
d="M987 125c5 -50 -31 -95 -81 -100l-301 -32h-10c-22 0 -44 8 -61 23c-14 13 -24 30 -28 48c-50 -26 -108 -40 -165 -40c-65 0 -130 17 -185 52c-114 72 -160 201 -123 345c28 110 102 241 298 241c42 0 84 -9 122 -25c11 12 25 21 41 26c30 8 222 63 307 59
c51 -2 90 -45 88 -95c-3 -51 -45 -90 -96 -88c-26 1 -79 -9 -130 -21c3 -19 5 -39 7 -59l119 6c51 2 94 -37 96 -88c2 -50 -37 -93 -87 -95l-116 -6c1 -33 2 -64 3 -91l201 22c51 5 96 -31 101 -82zM408 298c39 38 21 188 -92 188c-107 0 -98 -174 -62 -197
c45 -28 112 -24 154 9z" />
    <glyph glyph-name="AE" unicode="&#xc6;" horiz-adv-x="1017" 
d="M885 236c133 12 156 -234 23 -246l-301 -38c-4 -1 -7 -1 -11 -1c-22 0 -44 8 -61 23c-19 17 -31 42 -31 68v36c-8 -3 -17 -4 -26 -4h-236c-27 -46 -44 -74 -45 -78c-15 -35 -49 -56 -85 -56c-11 0 -23 2 -35 7c-47 19 -69 73 -49 120l27 89c1 3 191 285 310 521
c22 45 61 79 110 67c15 -4 29 -11 41 -21c4 2 9 5 14 6c30 11 184 66 272 61c51 -3 89 -46 87 -96c-3 -51 -46 -90 -96 -87c-24 1 -77 -11 -131 -27c4 -37 7 -72 10 -106l117 7c50 3 93 -36 96 -86c3 -51 -35 -94 -86 -97l-115 -6c1 -28 1 -55 2 -82zM478 257
c7 0 15 -1 22 -3c-1 21 -2 42 -3 64c-12 15 -20 33 -21 54c-1 20 5 40 15 55c-1 29 -4 57 -6 84c-42 -85 -91 -174 -136 -254h129z" />
    <glyph glyph-name="Ccedilla" unicode="&#xc7;" horiz-adv-x="638" 
d="M454 311c116 103 231 -95 117 -194c-57 -50 -124 -85 -196 -93c-2 -6 -5 -12 -8 -17c2 -2 5 -3 7 -4c36 -25 62 -65 70 -110c7 -43 -2 -85 -27 -119c-53 -72 -152 -91 -225 -42c-9 6 -19 14 -27 23c-26 27 -8 73 30 75c8 1 16 2 23 2c11 1 23 -3 32 -10c1 0 1 -1 2 -1
c29 -20 63 -4 81 20c8 10 6 26 5 32c-3 17 -12 33 -24 41c-4 3 -9 5 -14 6c-21 -12 -49 -8 -66 12c-19 20 -19 51 -1 72c7 8 15 18 22 29c-23 6 -45 15 -66 27c-65 35 -114 90 -142 159c-30 74 -35 159 -15 252c28 132 88 219 179 258c66 28 133 24 187 11
c61 -15 89 -84 57 -137c-21 -34 -62 -50 -100 -41c-24 6 -51 8 -72 -1c-41 -18 -62 -80 -72 -128c-22 -101 115 -236 243 -122z" />
    <glyph glyph-name="ae" unicode="&#xe6;" horiz-adv-x="920" 
d="M899 99c5 -50 -31 -95 -81 -101l-301 -31c-3 -1 -6 -1 -9 -1c-23 0 -45 8 -61 23c-20 18 -31 42 -31 68c0 1 -1 4 -2 11h-177c-3 0 -6 1 -10 1c-9 -24 -14 -39 -15 -42c-14 -35 -47 -55 -83 -55c-14 0 -30 3 -45 10c-51 25 -77 85 -57 135c1 2 141 281 274 451
c30 38 37 73 77 69c36 10 222 62 306 58c50 -2 89 -44 87 -95c-2 -50 -45 -89 -96 -87c-26 1 -78 -9 -129 -22c2 -19 5 -39 9 -60l147 7c50 2 93 -37 95 -87c3 -50 -36 -93 -87 -96l-122 -5c5 -33 9 -64 9 -91l202 21c50 5 95 -31 100 -81zM310 251h62c-6 26 -12 54 -18 81
c-16 -27 -31 -55 -44 -81z" />
    <glyph glyph-name="ccedilla" unicode="&#xe7;" horiz-adv-x="618" 
d="M577 232c32 -39 25 -99 -14 -131c-49 -40 -110 -65 -173 -73l-9 -21c2 -2 4 -3 6 -4c37 -25 62 -65 70 -110c8 -43 -2 -85 -27 -119c-53 -72 -151 -91 -224 -42c-10 6 -19 14 -27 23c-26 27 -8 73 30 75c8 1 16 2 22 2c12 1 23 -3 32 -10c1 0 2 -1 2 -1
c29 -20 64 -4 82 20c7 10 6 26 5 32c-3 17 -13 33 -24 41c-5 3 -9 5 -14 6c-22 -12 -49 -8 -67 12s-18 51 -1 72c8 8 15 18 22 28c-40 8 -78 23 -112 44c-114 72 -160 201 -123 345c33 133 107 191 164 217c68 30 139 28 196 17c59 -12 91 -78 64 -132v0
c-19 -37 -60 -56 -101 -48c-28 6 -117 11 -146 -99c-18 -67 -3 -116 43 -145c58 -36 143 -31 195 13c39 32 97 27 129 -12z" />
    <glyph glyph-name="oslash" unicode="&#xf8;" horiz-adv-x="626" 
d="M573 472c57 -128 37 -271 -53 -371c-1 -2 -2 -3 -3 -4c-57 -57 -132 -86 -208 -86c-42 0 -82 9 -121 27c-22 -37 -35 -60 -37 -63c-41 -60 -130 -18 -78 58c0 0 13 23 35 60c-27 27 -49 59 -63 96c-27 67 -32 144 -15 228c44 207 172 251 271 251c30 0 59 -6 88 -16
c6 15 12 29 16 43c46 128 166 82 132 -7c-12 -29 -27 -63 -45 -101c33 -31 61 -70 81 -115zM212 406c-9 -45 -6 -83 8 -112c34 65 70 135 103 206c-8 1 -15 3 -22 3c-27 0 -68 0 -89 -97zM380 268c49 55 34 118 23 146c-32 -59 -66 -119 -98 -176c27 -1 54 10 75 30z" />
    <glyph glyph-name="Oslash" unicode="&#xd8;" 
d="M634 532c63 -142 41 -300 -59 -411c-1 -2 -2 -3 -3 -4c-63 -63 -147 -96 -231 -96c-46 0 -91 10 -134 30c-24 -41 -39 -66 -41 -69c-46 -67 -144 -20 -87 64c0 0 15 25 39 66c-30 30 -54 66 -70 107c-30 74 -35 159 -16 252c49 230 190 279 300 279c33 0 66 -7 98 -18
c6 16 13 32 18 48c50 141 184 91 146 -8c-13 -32 -30 -70 -50 -112c36 -35 67 -78 90 -128zM234 459c-10 -50 -7 -92 8 -124c38 72 78 150 115 228c-9 2 -17 4 -25 4c-30 0 -75 0 -98 -108zM420 306c54 61 37 131 25 162c-35 -65 -73 -132 -108 -195c30 -1 60 11 83 33z" />
    <glyph glyph-name="ogonek" unicode="&#x2db;" horiz-adv-x="300" 
d="M276 -2c43 -30 22 -97 -30 -98h-1c-6 0 -14 0 -21 1c-2 2 -4 4 -7 6c-6 3 -12 6 -17 11c-5 1 -10 2 -16 2c-14 0 -31 -8 -43 -20c-4 -5 -14 -17 -13 -29c1 -31 21 -63 56 -63h2c12 1 24 -2 33 -9c5 -4 11 -9 18 -14c29 -24 19 -71 -18 -80c-11 -2 -23 -4 -35 -4
c-88 0 -159 70 -163 160c-2 42 14 82 44 114c19 20 43 35 68 44c-2 4 -3 8 -5 12c-10 28 5 59 34 69c28 10 59 -5 69 -33c8 -23 25 -47 41 -66c1 -1 3 -2 4 -3z" />
    <glyph glyph-name="cedilla" unicode="&#xb8;" horiz-adv-x="284" 
d="M234 -233c-53 -72 -152 -91 -224 -42c-10 7 -19 14 -27 23c-26 28 -8 73 29 76c9 0 16 1 23 1c12 1 23 -3 32 -10c1 0 2 -1 2 -1c29 -19 64 -4 82 21c7 10 5 25 4 31c-3 17 -12 33 -23 41c-5 3 -10 5 -14 7c-22 -12 -50 -9 -67 11c-18 21 -18 51 -1 72c18 20 37 47 46 72
c10 28 41 43 69 33c29 -10 44 -41 34 -69c-4 -11 -9 -22 -15 -33c3 -1 5 -3 7 -4c37 -25 62 -64 70 -109c7 -44 -2 -86 -27 -120z" />
    <glyph glyph-name="Aacute" unicode="&#xc1;" horiz-adv-x="562" 
d="M112 13c-12 0 -24 2 -35 7c-47 19 -69 73 -50 119c2 3 120 289 178 528c11 47 57 76 103 69c41 7 83 -16 99 -56c60 -149 93 -327 110 -470c15 -16 25 -38 25 -62c0 -17 -5 -33 -13 -46c7 -86 9 -144 9 -150c1 -51 -39 -93 -89 -94h-2c-50 0 -90 39 -92 89
c0 1 -1 44 -6 110h-142c-5 0 -11 0 -16 1c-17 -28 -47 -45 -79 -45zM307 367c-15 -46 -31 -89 -45 -127h67c-6 41 -13 83 -22 127zM223 818v0c-24 27 -25 68 -1 96c23 28 49 63 61 97c13 38 55 58 93 45c38 -14 59 -56 45 -94c-18 -53 -55 -105 -87 -142
c-29 -35 -81 -35 -111 -2z" />
    <glyph glyph-name="Acircumflex" unicode="&#xc2;" horiz-adv-x="562" 
d="M112 13c-12 0 -24 2 -35 7c-47 19 -69 73 -50 119c2 3 120 289 178 528c11 47 57 76 103 69c41 7 83 -16 99 -56c60 -149 93 -327 110 -470c15 -16 25 -38 25 -62c0 -17 -5 -33 -13 -46c7 -86 9 -144 9 -150c1 -51 -39 -93 -89 -94h-2c-50 0 -90 39 -92 89
c0 1 -1 44 -6 110h-142c-5 0 -11 0 -16 1c-17 -28 -47 -45 -79 -45zM307 367c-15 -46 -31 -89 -45 -127h67c-6 41 -13 83 -22 127zM174 819v0c-24 27 -25 68 -1 96c23 28 49 63 61 97s47 54 82 47c35 7 70 -13 82 -47s38 -69 61 -97c24 -28 23 -69 -1 -96v0
c-30 -33 -82 -33 -111 2c-10 12 -21 25 -31 40c-11 -15 -21 -28 -31 -40c-29 -35 -82 -35 -111 -2z" />
    <glyph glyph-name="Agrave" unicode="&#xc0;" horiz-adv-x="562" 
d="M112 13c-12 0 -24 2 -35 7c-47 19 -69 73 -50 119c2 3 120 289 178 528c11 47 57 76 103 69c41 7 83 -16 99 -56c60 -149 93 -327 110 -470c15 -16 25 -38 25 -62c0 -17 -5 -33 -13 -46c7 -86 9 -144 9 -150c1 -51 -39 -93 -89 -94h-2c-50 0 -90 39 -92 89
c0 1 -1 44 -6 110h-142c-5 0 -11 0 -16 1c-17 -28 -47 -45 -79 -45zM307 367c-15 -46 -31 -89 -45 -127h67c-6 41 -13 83 -22 127zM346 1011c11 -34 38 -69 61 -97s23 -69 -1 -96v0c-30 -33 -82 -33 -111 2c-32 37 -69 89 -87 142c-14 38 6 80 45 94c38 13 79 -7 93 -45z
" />
    <glyph glyph-name="Adieresis" unicode="&#xc4;" horiz-adv-x="562" 
d="M112 13c-12 0 -24 2 -35 7c-47 19 -69 73 -50 119c2 3 120 289 178 528c11 47 57 76 103 69c41 7 83 -16 99 -56c60 -149 93 -327 110 -470c15 -16 25 -38 25 -62c0 -17 -5 -33 -13 -46c7 -86 9 -144 9 -150c1 -51 -39 -93 -89 -94h-2c-50 0 -90 39 -92 89
c0 1 -1 44 -6 110h-142c-5 0 -11 0 -16 1c-17 -28 -47 -45 -79 -45zM307 367c-15 -46 -31 -89 -45 -127h67c-6 41 -13 83 -22 127zM189 1020c60 0 110 -48 113 -110v0c1 -29 -10 -57 -31 -79c-22 -23 -52 -36 -82 -36c-61 0 -110 48 -113 110c-1 29 10 57 31 79
c22 23 51 36 82 36zM433 1020c60 0 110 -48 113 -110v0c1 -29 -10 -57 -31 -79c-22 -23 -52 -36 -82 -36c-60 0 -110 48 -113 110c-1 29 10 57 31 79c22 23 52 36 82 36z" />
    <glyph glyph-name="Amacron" unicode="&#x100;" horiz-adv-x="562" 
d="M112 13c-12 0 -24 2 -35 7c-47 19 -69 73 -50 119c2 3 120 289 178 528c11 47 57 76 103 69c41 7 83 -16 99 -56c60 -149 93 -327 110 -470c15 -16 25 -38 25 -62c0 -17 -5 -33 -13 -46c7 -86 9 -144 9 -150c1 -51 -39 -93 -89 -94h-2c-50 0 -90 39 -92 89
c0 1 -1 44 -6 110h-142c-5 0 -11 0 -16 1c-17 -28 -47 -45 -79 -45zM307 367c-15 -46 -31 -89 -45 -127h67c-6 41 -13 83 -22 127zM87 886c3 42 39 74 82 71c1 0 179 -12 299 -4c42 3 78 -29 81 -72c3 -42 -30 -78 -72 -81c-33 -2 -69 -3 -105 -3c-106 0 -208 7 -213 7
c-43 3 -75 39 -72 82z" />
    <glyph glyph-name="Aogonek" unicode="&#x104;" horiz-adv-x="562" 
d="M540 -178c43 -30 22 -97 -30 -98h-1c-6 0 -14 0 -21 1l-7 6c-6 3 -12 6 -17 11c-5 1 -10 2 -16 2c-14 0 -31 -8 -43 -20c-4 -5 -14 -17 -13 -29c1 -31 21 -63 56 -63h2c12 1 24 -2 33 -9l18 -14c29 -24 19 -71 -18 -80c-11 -2 -23 -4 -35 -4c-88 0 -159 70 -163 160
c-2 42 14 82 44 114c19 20 43 35 68 44l-5 12c-3 8 -4 16 -3 24c-20 16 -33 40 -34 68c0 1 -1 44 -6 110h-142c-5 0 -11 0 -16 1c-17 -28 -47 -45 -79 -45c-12 0 -24 2 -35 7c-47 19 -69 73 -50 119c2 3 120 289 178 528c11 47 57 76 103 69c41 7 83 -16 99 -56
c60 -149 93 -327 110 -470c15 -16 25 -38 25 -62c0 -17 -5 -33 -13 -46c7 -86 9 -144 9 -150c0 -31 -14 -59 -37 -76c9 -18 22 -36 35 -51zM307 367c-15 -46 -31 -89 -45 -127h67c-6 41 -13 83 -22 127z" />
    <glyph glyph-name="Aring" unicode="&#xc5;" horiz-adv-x="562" 
d="M112 13c-12 0 -24 2 -35 7c-47 19 -69 73 -50 119c2 3 120 289 178 528c11 47 57 76 103 69c41 7 83 -16 99 -56c60 -149 93 -327 110 -470c15 -16 25 -38 25 -62c0 -17 -5 -33 -13 -46c7 -86 9 -144 9 -150c1 -51 -39 -93 -89 -94h-2c-50 0 -90 39 -92 89
c0 1 -1 44 -6 110h-142c-5 0 -11 0 -16 1c-17 -28 -47 -45 -79 -45zM307 367c-15 -46 -31 -89 -45 -127h67c-6 41 -13 83 -22 127zM422 843c-29 -30 -68 -48 -108 -48c-79 0 -144 64 -148 146c-2 38 13 75 40 103c29 30 68 48 108 48c79 0 144 -64 148 -146v0
c2 -38 -13 -75 -40 -103zM274 948c1 -21 15 -44 40 -44c10 0 22 5 30 14c3 3 10 12 10 21c-1 21 -15 44 -40 44c-10 0 -22 -5 -30 -14c-3 -4 -10 -12 -10 -21z" />
    <glyph glyph-name="Atilde" unicode="&#xc3;" horiz-adv-x="562" 
d="M112 13c-12 0 -24 2 -35 7c-47 19 -69 73 -50 119c2 3 120 289 178 528c11 47 57 76 103 69c41 7 83 -16 99 -56c60 -149 93 -327 110 -470c15 -16 25 -38 25 -62c0 -17 -5 -33 -13 -46c7 -86 9 -144 9 -150c1 -51 -39 -93 -89 -94h-2c-50 0 -90 39 -92 89
c0 1 -1 44 -6 110h-142c-5 0 -11 0 -16 1c-17 -28 -47 -45 -79 -45zM307 367c-15 -46 -31 -89 -45 -127h67c-6 41 -13 83 -22 127zM495 872c-13 -41 -39 -59 -59 -68c-14 -7 -29 -9 -44 -9c-37 0 -74 17 -108 32c-8 4 -19 9 -29 12c-14 -23 -41 -36 -69 -32
c-37 6 -62 41 -56 78c8 50 34 73 55 84c52 28 106 3 155 -19c10 -5 26 -11 37 -16c17 22 47 33 75 23c36 -11 55 -50 43 -85z" />
    <glyph glyph-name="AEacute" unicode="&#x1fc;" horiz-adv-x="1017" 
d="M885 236c133 12 156 -234 23 -246l-301 -38c-4 -1 -7 -1 -11 -1c-22 0 -44 8 -61 23c-19 17 -31 42 -31 68v36c-8 -3 -17 -4 -26 -4h-236c-27 -46 -44 -74 -45 -78c-15 -35 -49 -56 -85 -56c-11 0 -23 2 -35 7c-47 19 -69 73 -49 120l27 89c1 3 191 285 310 521
c22 45 61 79 110 67c15 -4 29 -11 41 -21c4 2 9 5 14 6c30 11 184 66 272 61c51 -3 89 -46 87 -96c-3 -51 -46 -90 -96 -87c-24 1 -77 -11 -131 -27c4 -37 7 -72 10 -106l117 7c50 3 93 -36 96 -86c3 -51 -35 -94 -86 -97l-115 -6c1 -28 1 -55 2 -82zM478 257
c7 0 15 -1 22 -3c-1 21 -2 42 -3 64c-12 15 -20 33 -21 54c-1 20 5 40 15 55c-1 29 -4 57 -6 84c-42 -85 -91 -174 -136 -254h129zM451 826v0c-24 27 -25 68 -1 96c23 28 49 63 61 97c13 38 55 58 93 45c38 -14 59 -56 45 -94c-18 -53 -55 -105 -87 -142
c-29 -35 -81 -35 -111 -2z" />
    <glyph glyph-name="Cacute" unicode="&#x106;" horiz-adv-x="638" 
d="M47 202c-30 74 -35 159 -15 252c28 132 88 219 179 258c66 28 133 24 187 11c61 -15 89 -84 57 -137v0c-21 -34 -62 -50 -100 -41c-24 6 -51 8 -72 -1c-41 -18 -62 -80 -72 -128c-22 -101 115 -236 243 -122c116 103 231 -95 117 -194c-66 -59 -146 -96 -231 -96
c-52 0 -104 13 -151 39c-65 35 -114 90 -142 159zM233 815v0c-24 27 -25 68 -1 96c23 28 49 63 61 97c13 38 55 58 93 45c38 -14 59 -56 45 -94c-18 -53 -55 -105 -87 -142c-29 -35 -81 -35 -111 -2z" />
    <glyph glyph-name="Ccaron" unicode="&#x10c;" horiz-adv-x="638" 
d="M47 202c-30 74 -35 159 -15 252c28 132 88 219 179 258c66 28 133 24 187 11c61 -15 89 -84 57 -137v0c-21 -34 -62 -50 -100 -41c-24 6 -51 8 -72 -1c-41 -18 -62 -80 -72 -128c-22 -101 115 -236 243 -122c116 103 231 -95 117 -194c-66 -59 -146 -96 -231 -96
c-52 0 -104 13 -151 39c-65 35 -114 90 -142 159zM244 842c-12 34 -38 69 -61 97c-24 28 -23 69 1 96c29 33 82 33 111 -2c10 -12 20 -25 31 -40c10 15 21 28 31 40c29 35 81 35 111 2c24 -27 25 -68 1 -96c-23 -28 -49 -63 -61 -97s-47 -54 -82 -47c-35 -7 -70 13 -82 47z
" />
    <glyph glyph-name="Ccircumflex" unicode="&#x108;" horiz-adv-x="638" 
d="M47 202c-30 74 -35 159 -15 252c28 132 88 219 179 258c66 28 133 24 187 11c61 -15 89 -84 57 -137v0c-21 -34 -62 -50 -100 -41c-24 6 -51 8 -72 -1c-41 -18 -62 -80 -72 -128c-22 -101 115 -236 243 -122c116 103 231 -95 117 -194c-66 -59 -146 -96 -231 -96
c-52 0 -104 13 -151 39c-65 35 -114 90 -142 159zM184 816v0c-24 27 -25 68 -1 96c23 28 49 63 61 97s47 54 82 47c35 7 70 -13 82 -47s38 -69 61 -97c24 -28 23 -69 -1 -96v0c-30 -33 -82 -33 -111 2c-10 12 -21 25 -31 40c-11 -15 -21 -28 -31 -40
c-29 -35 -82 -35 -111 -2z" />
    <glyph glyph-name="Cdotaccent" unicode="&#x10a;" horiz-adv-x="638" 
d="M47 202c-30 74 -35 159 -15 252c28 132 88 219 179 258c66 28 133 24 187 11c61 -15 89 -84 57 -137v0c-21 -34 -62 -50 -100 -41c-24 6 -51 8 -72 -1c-41 -18 -62 -80 -72 -128c-22 -101 115 -236 243 -122c116 103 231 -95 117 -194c-66 -59 -146 -96 -231 -96
c-52 0 -104 13 -151 39c-65 35 -114 90 -142 159zM327 1017c60 0 110 -48 113 -110v0c1 -29 -10 -57 -31 -79c-22 -23 -52 -36 -82 -36c-60 0 -110 48 -113 110c-1 29 10 57 31 79c22 23 52 36 82 36z" />
    <glyph glyph-name="Dcaron" unicode="&#x10e;" horiz-adv-x="593" 
d="M55 133c0 3 -1 272 -33 480c-7 42 17 83 57 99c22 8 217 80 362 -20c88 -60 132 -163 132 -307c0 -215 -177 -398 -329 -412c-7 -1 -13 -1 -20 -1c-86 0 -150 55 -167 144c-2 6 -2 12 -2 17zM354 421c0 146 -107 142 -141 137c16 -131 19 -269 20 -318
c11 3 121 30 121 181zM178 849c-12 34 -38 69 -61 97c-24 28 -23 69 1 96c29 33 82 33 111 -2c10 -12 20 -25 31 -40c10 15 21 28 31 40c29 35 81 35 111 2c24 -27 25 -68 1 -96c-23 -28 -49 -63 -61 -97s-47 -54 -82 -47c-35 -7 -70 13 -82 47z" />
    <glyph glyph-name="Eacute" unicode="&#xc9;" horiz-adv-x="568" 
d="M435 219c134 12 157 -234 23 -246l-300 -38c-4 -1 -8 -1 -12 -1c-22 0 -43 8 -60 23c-20 17 -31 42 -31 68c0 3 -1 130 -7 276c-12 15 -20 33 -21 54c-1 20 4 40 15 55c-5 73 -12 144 -21 203c-6 43 19 85 60 99c30 11 184 66 272 61c50 -3 89 -46 86 -96
c-2 -51 -45 -89 -96 -87c-23 1 -77 -11 -131 -27c4 -37 8 -72 11 -106l116 7c51 3 94 -36 97 -86c3 -51 -36 -94 -86 -97l-116 -6c1 -28 2 -55 2 -82zM121 839v0c-24 27 -25 68 -1 96c23 28 49 63 61 97c13 38 55 58 93 45c38 -14 59 -56 45 -94c-18 -53 -55 -105 -87 -142
c-29 -35 -81 -35 -111 -2z" />
    <glyph glyph-name="Ecaron" unicode="&#x11a;" horiz-adv-x="568" 
d="M435 219c134 12 157 -234 23 -246l-300 -38c-4 -1 -8 -1 -12 -1c-22 0 -43 8 -60 23c-20 17 -31 42 -31 68c0 3 -1 130 -7 276c-12 15 -20 33 -21 54c-1 20 4 40 15 55c-5 73 -12 144 -21 203c-6 43 19 85 60 99c30 11 184 66 272 61c50 -3 89 -46 86 -96
c-2 -51 -45 -89 -96 -87c-23 1 -77 -11 -131 -27c4 -37 8 -72 11 -106l116 7c51 3 94 -36 97 -86c3 -51 -36 -94 -86 -97l-116 -6c1 -28 2 -55 2 -82zM132 866c-12 34 -38 69 -61 97c-24 28 -23 69 1 96c29 33 82 33 111 -2c10 -12 20 -25 31 -40c10 15 21 28 31 40
c29 35 81 35 111 2c24 -27 25 -68 1 -96c-23 -28 -49 -63 -61 -97s-47 -54 -82 -47c-35 -7 -70 13 -82 47z" />
    <glyph glyph-name="Ecircumflex" unicode="&#xca;" horiz-adv-x="568" 
d="M435 219c134 12 157 -234 23 -246l-300 -38c-4 -1 -8 -1 -12 -1c-22 0 -43 8 -60 23c-20 17 -31 42 -31 68c0 3 -1 130 -7 276c-12 15 -20 33 -21 54c-1 20 4 40 15 55c-5 73 -12 144 -21 203c-6 43 19 85 60 99c30 11 184 66 272 61c50 -3 89 -46 86 -96
c-2 -51 -45 -89 -96 -87c-23 1 -77 -11 -131 -27c4 -37 8 -72 11 -106l116 7c51 3 94 -36 97 -86c3 -51 -36 -94 -86 -97l-116 -6c1 -28 2 -55 2 -82zM72 840v0c-24 27 -25 68 -1 96c23 28 49 63 61 97s47 54 82 47c35 7 70 -13 82 -47s38 -69 61 -97c24 -28 23 -69 -1 -96
v0c-30 -33 -82 -33 -111 2c-10 12 -21 25 -31 40c-11 -15 -21 -28 -31 -40c-29 -35 -82 -35 -111 -2z" />
    <glyph glyph-name="Edieresis" unicode="&#xcb;" horiz-adv-x="568" 
d="M435 219c134 12 157 -234 23 -246l-300 -38c-4 -1 -8 -1 -12 -1c-22 0 -43 8 -60 23c-20 17 -31 42 -31 68c0 3 -1 130 -7 276c-12 15 -20 33 -21 54c-1 20 4 40 15 55c-5 73 -12 144 -21 203c-6 43 19 85 60 99c30 11 184 66 272 61c50 -3 89 -46 86 -96
c-2 -51 -45 -89 -96 -87c-23 1 -77 -11 -131 -27c4 -37 8 -72 11 -106l116 7c51 3 94 -36 97 -86c3 -51 -36 -94 -86 -97l-116 -6c1 -28 2 -55 2 -82zM87 1041c60 0 110 -48 113 -110v0c1 -29 -10 -57 -31 -79c-22 -23 -52 -36 -82 -36c-61 0 -110 48 -113 110
c-1 29 10 57 31 79c22 23 51 36 82 36zM331 1041c60 0 110 -48 113 -110v0c1 -29 -10 -57 -31 -79c-22 -23 -52 -36 -82 -36c-60 0 -110 48 -113 110c-1 29 10 57 31 79c22 23 52 36 82 36z" />
    <glyph glyph-name="Edotaccent" unicode="&#x116;" horiz-adv-x="568" 
d="M435 219c134 12 157 -234 23 -246l-300 -38c-4 -1 -8 -1 -12 -1c-22 0 -43 8 -60 23c-20 17 -31 42 -31 68c0 3 -1 130 -7 276c-12 15 -20 33 -21 54c-1 20 4 40 15 55c-5 73 -12 144 -21 203c-6 43 19 85 60 99c30 11 184 66 272 61c50 -3 89 -46 86 -96
c-2 -51 -45 -89 -96 -87c-23 1 -77 -11 -131 -27c4 -37 8 -72 11 -106l116 7c51 3 94 -36 97 -86c3 -51 -36 -94 -86 -97l-116 -6c1 -28 2 -55 2 -82zM215 1041c60 0 110 -48 113 -110v0c1 -29 -10 -57 -31 -79c-22 -23 -52 -36 -82 -36c-60 0 -110 48 -113 110
c-1 29 10 57 31 79c22 23 52 36 82 36z" />
    <glyph glyph-name="Egrave" unicode="&#xc8;" horiz-adv-x="568" 
d="M435 219c134 12 157 -234 23 -246l-300 -38c-4 -1 -8 -1 -12 -1c-22 0 -43 8 -60 23c-20 17 -31 42 -31 68c0 3 -1 130 -7 276c-12 15 -20 33 -21 54c-1 20 4 40 15 55c-5 73 -12 144 -21 203c-6 43 19 85 60 99c30 11 184 66 272 61c50 -3 89 -46 86 -96
c-2 -51 -45 -89 -96 -87c-23 1 -77 -11 -131 -27c4 -37 8 -72 11 -106l116 7c51 3 94 -36 97 -86c3 -51 -36 -94 -86 -97l-116 -6c1 -28 2 -55 2 -82zM244 1032c11 -34 38 -69 61 -97s23 -69 -1 -96v0c-30 -33 -82 -33 -111 2c-32 37 -69 89 -87 142c-14 38 6 80 45 94
c38 13 79 -7 93 -45z" />
    <glyph glyph-name="Emacron" unicode="&#x112;" horiz-adv-x="568" 
d="M435 219c134 12 157 -234 23 -246l-300 -38c-4 -1 -8 -1 -12 -1c-22 0 -43 8 -60 23c-20 17 -31 42 -31 68c0 3 -1 130 -7 276c-12 15 -20 33 -21 54c-1 20 4 40 15 55c-5 73 -12 144 -21 203c-6 43 19 85 60 99c30 11 184 66 272 61c50 -3 89 -46 86 -96
c-2 -51 -45 -89 -96 -87c-23 1 -77 -11 -131 -27c4 -37 8 -72 11 -106l116 7c51 3 94 -36 97 -86c3 -51 -36 -94 -86 -97l-116 -6c1 -28 2 -55 2 -82zM-15 907c3 42 39 74 82 71c1 0 179 -12 299 -4c42 3 78 -29 81 -72c3 -42 -30 -78 -72 -81c-33 -2 -69 -3 -105 -3
c-106 0 -208 7 -213 7c-43 3 -75 39 -72 82z" />
    <glyph glyph-name="Eogonek" unicode="&#x118;" horiz-adv-x="568" 
d="M414 -100c43 -30 22 -97 -30 -98h-1c-6 0 -14 0 -21 1l-7 6c-6 3 -12 6 -17 11c-5 1 -10 2 -16 2c-14 0 -31 -8 -43 -20c-4 -5 -14 -17 -13 -29c1 -31 21 -63 56 -63h2c12 1 24 -2 33 -9l18 -14c29 -24 19 -71 -18 -80c-11 -2 -23 -4 -35 -4c-88 0 -159 70 -163 160
c-2 42 14 82 44 114c19 20 43 35 68 44l-5 12c-2 5 -3 11 -3 16l-105 -14c-4 -1 -8 -1 -12 -1c-22 0 -43 8 -60 23c-20 17 -31 42 -31 68c0 3 -1 130 -7 276c-12 15 -20 33 -21 54c-1 20 4 40 15 55c-5 73 -12 144 -21 203c-6 43 19 85 60 99c30 11 184 66 272 61
c50 -3 89 -46 86 -96c-2 -51 -45 -89 -96 -87c-23 1 -77 -11 -131 -27c4 -37 8 -72 11 -106l116 7c51 3 94 -36 97 -86c3 -51 -36 -94 -86 -97l-116 -6c1 -28 2 -55 2 -82l199 26c134 12 157 -234 23 -246l-87 -11c9 -21 24 -42 39 -59z" />
    <glyph glyph-name="Gcircumflex" unicode="&#x11c;" horiz-adv-x="619" 
d="M283 544c-41 -18 -65 -79 -73 -128c-45 -281 188 -248 197 -139h-85c-51 0 -94 42 -93 93c0 50 41 90 91 90h173c48 0 88 -37 91 -85l14 -204c2 -26 -7 -52 -26 -70c-62 -63 -147 -97 -232 -97c-52 0 -104 13 -151 39c-65 35 -114 90 -142 159c-30 74 -35 159 -15 252
c28 132 88 219 179 258c66 28 133 24 187 11c60 -15 89 -84 57 -137v0c-21 -34 -62 -50 -100 -41c-25 6 -51 8 -72 -1zM158 819v0c-24 27 -25 68 -1 96c23 28 49 63 61 97s47 54 82 47c35 7 70 -13 82 -47s38 -69 61 -97c24 -28 23 -69 -1 -96v0c-30 -33 -82 -33 -111 2
c-10 12 -21 25 -31 40c-11 -15 -21 -28 -31 -40c-29 -35 -82 -35 -111 -2z" />
    <glyph glyph-name="Gcommaaccent" unicode="&#x122;" horiz-adv-x="619" 
d="M283 544c-41 -18 -65 -79 -73 -128c-45 -281 188 -248 197 -139h-85c-51 0 -94 42 -93 93c0 50 41 90 91 90h173c48 0 88 -37 91 -85l14 -204c2 -26 -7 -52 -26 -70c-62 -63 -147 -97 -232 -97c-52 0 -104 13 -151 39c-65 35 -114 90 -142 159c-30 74 -35 159 -15 252
c28 132 88 219 179 258c66 28 133 24 187 11c60 -15 89 -84 57 -137v0c-21 -34 -62 -50 -100 -41c-25 6 -51 8 -72 -1zM303 -343l24 43c9 17 1 37 -17 42c-32 9 -72 34 -69 105c2 44 35 82 79 89c157 25 192 -232 -17 -279z" />
    <glyph glyph-name="Gdotaccent" unicode="&#x120;" horiz-adv-x="619" 
d="M283 544c-41 -18 -65 -79 -73 -128c-45 -281 188 -248 197 -139h-85c-51 0 -94 42 -93 93c0 50 41 90 91 90h173c48 0 88 -37 91 -85l14 -204c2 -26 -7 -52 -26 -70c-62 -63 -147 -97 -232 -97c-52 0 -104 13 -151 39c-65 35 -114 90 -142 159c-30 74 -35 159 -15 252
c28 132 88 219 179 258c66 28 133 24 187 11c60 -15 89 -84 57 -137v0c-21 -34 -62 -50 -100 -41c-25 6 -51 8 -72 -1zM301 1020c60 0 110 -48 113 -110v0c1 -29 -10 -57 -31 -79c-22 -23 -52 -36 -82 -36c-60 0 -110 48 -113 110c-1 29 10 57 31 79c22 23 52 36 82 36z" />
    <glyph glyph-name="Hcircumflex" unicode="&#x124;" horiz-adv-x="570" 
d="M138 -22c-51 6 -87 50 -82 101c0 3 9 111 4 254c-19 16 -31 39 -33 66c-1 26 8 49 25 67c-6 60 -15 123 -28 183c-16 72 33 115 82 127c50 11 102 -11 120 -83c15 -63 24 -128 29 -190l80 4c4 104 14 209 34 294c12 50 61 80 110 68c49 -11 80 -60 68 -110
c-56 -237 -20 -678 -20 -682c4 -50 -33 -94 -83 -99h-8c-47 0 -87 36 -91 84c-1 9 -10 120 -12 262l-73 -4c-3 -145 -21 -252 -22 -260c-5 -47 -45 -82 -91 -82h-9zM139 925v0c-24 27 -25 68 -1 96c23 28 49 63 61 97s47 54 82 47c35 7 70 -13 82 -47s38 -69 61 -97
c24 -28 23 -69 -1 -96v0c-30 -33 -82 -33 -111 2c-10 12 -21 25 -31 40c-11 -15 -21 -28 -31 -40c-29 -35 -82 -35 -111 -2z" />
    <glyph glyph-name="Iacute" unicode="&#xcd;" horiz-adv-x="270" 
d="M144 -22c-50 1 -90 43 -89 93c0 4 6 333 -33 585c-8 50 27 115 88 124c61 10 110 -41 117 -91c43 -269 11 -607 11 -621c-1 -50 -42 -90 -92 -90h-2zM37 857v0c-24 27 -25 68 -1 96c23 28 49 63 61 97c13 38 55 58 93 45c38 -14 59 -56 45 -94c-18 -53 -55 -105 -87 -142
c-29 -35 -81 -35 -111 -2z" />
    <glyph glyph-name="Icircumflex" unicode="&#xce;" horiz-adv-x="270" 
d="M144 -22c-50 1 -90 43 -89 93c0 4 6 333 -33 585c-8 50 27 115 88 124c61 10 110 -41 117 -91c43 -269 11 -607 11 -621c-1 -50 -42 -90 -92 -90h-2zM-12 858v0c-24 27 -25 68 -1 96c23 28 49 63 61 97s47 54 82 47c35 7 70 -13 82 -47s38 -69 61 -97
c24 -28 23 -69 -1 -96v0c-30 -33 -82 -33 -111 2c-10 12 -21 25 -31 40c-11 -15 -21 -28 -31 -40c-29 -35 -82 -35 -111 -2z" />
    <glyph glyph-name="Idieresis" unicode="&#xcf;" horiz-adv-x="270" 
d="M144 -22c-50 1 -90 43 -89 93c0 4 6 333 -33 585c-8 50 27 115 88 124c61 10 110 -41 117 -91c43 -269 11 -607 11 -621c-1 -50 -42 -90 -92 -90h-2zM3 1059c60 0 110 -48 113 -110v0c1 -29 -10 -57 -31 -79c-22 -23 -52 -36 -82 -36c-61 0 -110 48 -113 110
c-1 29 10 57 31 79c22 23 51 36 82 36zM247 1059c60 0 110 -48 113 -110v0c1 -29 -10 -57 -31 -79c-22 -23 -52 -36 -82 -36c-60 0 -110 48 -113 110c-1 29 10 57 31 79c22 23 52 36 82 36z" />
    <glyph glyph-name="Idotaccent" unicode="&#x130;" horiz-adv-x="270" 
d="M144 -22c-50 1 -90 43 -89 93c0 4 6 333 -33 585c-8 50 27 115 88 124c61 10 110 -41 117 -91c43 -269 11 -607 11 -621c-1 -50 -42 -90 -92 -90h-2zM131 1059c60 0 110 -48 113 -110v0c1 -29 -10 -57 -31 -79c-22 -23 -52 -36 -82 -36c-60 0 -110 48 -113 110
c-1 29 10 57 31 79c22 23 52 36 82 36z" />
    <glyph glyph-name="Igrave" unicode="&#xcc;" horiz-adv-x="270" 
d="M144 -22c-50 1 -90 43 -89 93c0 4 6 333 -33 585c-8 50 27 115 88 124c61 10 110 -41 117 -91c43 -269 11 -607 11 -621c-1 -50 -42 -90 -92 -90h-2zM160 1050c11 -34 38 -69 61 -97s23 -69 -1 -96v0c-30 -33 -82 -33 -111 2c-32 37 -69 89 -87 142c-14 38 6 80 45 94
c38 13 79 -7 93 -45z" />
    <glyph glyph-name="Imacron" unicode="&#x12a;" horiz-adv-x="270" 
d="M144 -22c-50 1 -90 43 -89 93c0 4 6 333 -33 585c-8 50 27 115 88 124c61 10 110 -41 117 -91c43 -269 11 -607 11 -621c-1 -50 -42 -90 -92 -90h-2zM-99 925c3 42 39 74 82 71c1 0 179 -12 299 -4c42 3 78 -29 81 -72c3 -42 -30 -78 -72 -81c-33 -2 -69 -3 -105 -3
c-106 0 -208 7 -213 7c-43 3 -75 39 -72 82z" />
    <glyph glyph-name="Iogonek" unicode="&#x12e;" horiz-adv-x="270" 
d="M227 -2c43 -30 22 -97 -30 -98h-1c-6 0 -14 0 -21 1l-7 6c-6 3 -12 6 -17 11c-5 1 -10 2 -16 2c-14 0 -31 -8 -43 -20c-4 -5 -14 -17 -13 -29c1 -31 21 -63 56 -63h2c12 1 24 -2 33 -9l18 -14c29 -24 19 -71 -18 -80c-11 -2 -23 -4 -35 -4c-88 0 -159 70 -163 160
c-2 42 14 82 44 114c16 17 36 31 57 40c-12 15 -19 35 -18 56c0 4 6 333 -33 585c-8 50 27 115 88 124c61 10 110 -41 117 -91c43 -269 11 -607 11 -621c-1 -22 -9 -43 -22 -58c2 -3 4 -6 7 -9z" />
    <glyph glyph-name="Itilde" unicode="&#x128;" horiz-adv-x="270" 
d="M144 -22c-50 1 -90 43 -89 93c0 4 6 333 -33 585c-8 50 27 115 88 124c61 10 110 -41 117 -91c43 -269 11 -607 11 -621c-1 -50 -42 -90 -92 -90h-2zM309 911c-13 -41 -39 -59 -59 -68c-14 -7 -29 -9 -44 -9c-37 0 -74 17 -108 32c-8 4 -19 9 -29 12
c-14 -23 -41 -36 -69 -32c-37 6 -62 41 -56 78c8 50 34 73 55 84c52 28 106 3 155 -19c10 -5 26 -11 37 -16c17 22 47 33 75 23c36 -11 55 -50 43 -85z" />
    <glyph glyph-name="Jcircumflex" unicode="&#x134;" horiz-adv-x="510" 
d="M360 -30c-33 -19 -69 -29 -106 -29c-70 0 -143 33 -207 97c-35 35 -35 93 0 129c36 36 94 36 130 0c35 -35 70 -45 92 -38c87 26 -58 524 -33 628c42 174 259 78 226 -44c-20 -72 -3 -174 9 -271c12 -84 23 -171 16 -248c-9 -105 -51 -181 -127 -224zM191 928v0
c-24 27 -25 68 -1 96c23 28 49 63 61 97s47 54 82 47c35 7 70 -13 82 -47s38 -69 61 -97c24 -28 23 -69 -1 -96v0c-30 -33 -82 -33 -111 2c-10 12 -21 25 -31 40c-11 -15 -21 -28 -31 -40c-29 -35 -82 -35 -111 -2z" />
    <glyph glyph-name="Kcommaaccent" unicode="&#x136;" horiz-adv-x="616" 
d="M462 803c48 -13 77 -64 63 -112c-18 -66 -66 -154 -118 -238c9 -8 17 -17 22 -28c100 -188 157 -323 159 -329c20 -47 -2 -100 -49 -120c-11 -4 -23 -7 -35 -7c-36 0 -70 22 -85 57c0 1 -45 107 -122 259c-10 -14 -18 -26 -25 -36c-3 -103 -9 -175 -9 -181
c-1 -50 -42 -90 -92 -90h-2c-50 1 -90 43 -89 93c0 4 -19 332 -58 585c-8 50 17 138 99 148c88 11 121 -66 129 -116c6 -39 11 -79 14 -119c41 68 74 131 85 171c14 49 64 77 113 63zM282 -336l24 43c9 17 1 37 -17 42c-32 9 -72 34 -69 105c2 44 35 82 79 89
c157 25 192 -232 -17 -279z" />
    <glyph glyph-name="Lacute" unicode="&#x139;" horiz-adv-x="559" 
d="M22 656c-7 50 17 122 97 131c50 6 113 -4 125 -87c21 -152 -9 -396 -7 -527l199 25c50 7 96 -29 102 -79c7 -50 -29 -96 -79 -102l-300 -38c-4 -1 -8 -1 -12 -1c-22 0 -44 8 -60 23c-20 17 -31 42 -31 68c0 4 -2 380 -34 587zM44 875v0c-24 27 -25 68 -1 96
c23 28 49 63 61 97c13 38 55 58 93 45c38 -14 59 -56 45 -94c-18 -53 -55 -105 -87 -142c-29 -35 -81 -35 -111 -2z" />
    <glyph glyph-name="Lcaron" unicode="&#x13d;" horiz-adv-x="559" 
d="M22 656c-7 50 17 122 97 131c50 6 113 -4 125 -87c21 -152 -9 -396 -7 -527l199 25c50 7 96 -29 102 -79c7 -50 -29 -96 -79 -102l-300 -38c-4 -1 -8 -1 -12 -1c-22 0 -44 8 -60 23c-20 17 -31 42 -31 68c0 4 -2 380 -34 587zM75 889c-12 34 -38 69 -61 97
c-24 28 -23 69 1 96c29 33 82 33 111 -2c10 -12 20 -25 31 -40c10 15 21 28 31 40c29 35 81 35 111 2c24 -27 25 -68 1 -96c-23 -28 -49 -63 -61 -97s-47 -54 -82 -47c-35 -7 -70 13 -82 47z" />
    <glyph glyph-name="Lcommaaccent" unicode="&#x13b;" horiz-adv-x="559" 
d="M22 656c-7 50 17 122 97 131c50 6 113 -4 125 -87c21 -152 -9 -396 -7 -527l199 25c50 7 96 -29 102 -79c7 -50 -29 -96 -79 -102l-300 -38c-4 -1 -8 -1 -12 -1c-22 0 -44 8 -60 23c-20 17 -31 42 -31 68c0 4 -2 380 -34 587zM263 -331l24 43c9 17 1 37 -17 42
c-32 9 -72 34 -69 105c2 44 35 82 79 89c157 25 192 -232 -17 -279z" />
    <glyph glyph-name="Nacute" unicode="&#x143;" horiz-adv-x="632" 
d="M140 804c41 10 85 -10 104 -50c15 -33 67 -131 128 -242c-1 74 3 148 14 212c31 169 248 132 223 -14c-40 -234 -10 -627 -10 -631c5 -50 -31 -95 -81 -101h-10c-45 0 -83 33 -90 77c-6 7 -12 14 -17 22c-7 13 -108 196 -196 359c5 -184 23 -355 23 -357
c5 -50 -32 -95 -82 -101h-9c-47 0 -86 35 -91 82c-2 17 -42 410 -18 664c5 50 50 87 100 82c4 0 8 -1 12 -2zM230 885v0c-24 27 -25 68 -1 96c23 28 49 63 61 97c13 38 55 58 93 45c38 -14 59 -56 45 -94c-18 -53 -55 -105 -87 -142c-29 -35 -81 -35 -111 -2z" />
    <glyph glyph-name="Ncaron" unicode="&#x147;" horiz-adv-x="632" 
d="M140 804c41 10 85 -10 104 -50c15 -33 67 -131 128 -242c-1 74 3 148 14 212c31 169 248 132 223 -14c-40 -234 -10 -627 -10 -631c5 -50 -31 -95 -81 -101h-10c-45 0 -83 33 -90 77c-6 7 -12 14 -17 22c-7 13 -108 196 -196 359c5 -184 23 -355 23 -357
c5 -50 -32 -95 -82 -101h-9c-47 0 -86 35 -91 82c-2 17 -42 410 -18 664c5 50 50 87 100 82c4 0 8 -1 12 -2zM241 912c-12 34 -38 69 -61 97c-24 28 -23 69 1 96c29 33 82 33 111 -2c10 -12 20 -25 31 -40c10 15 21 28 31 40c29 35 81 35 111 2c24 -27 25 -68 1 -96
c-23 -28 -49 -63 -61 -97s-47 -54 -82 -47c-35 -7 -70 13 -82 47z" />
    <glyph glyph-name="Ncommaaccent" unicode="&#x145;" horiz-adv-x="632" 
d="M140 804c41 10 85 -10 104 -50c15 -33 67 -131 128 -242c-1 74 3 148 14 212c31 169 248 132 223 -14c-40 -234 -10 -627 -10 -631c5 -50 -31 -95 -81 -101h-10c-45 0 -83 33 -90 77c-6 7 -12 14 -17 22c-7 13 -108 196 -196 359c5 -184 23 -355 23 -357
c5 -50 -32 -95 -82 -101h-9c-47 0 -86 35 -91 82c-2 17 -42 410 -18 664c5 50 50 87 100 82c4 0 8 -1 12 -2zM282 -334l24 43c9 17 1 37 -17 42c-32 9 -72 34 -69 105c2 44 35 82 79 89c157 25 192 -232 -17 -279z" />
    <glyph glyph-name="Ntilde" unicode="&#xd1;" horiz-adv-x="632" 
d="M140 804c41 10 85 -10 104 -50c15 -33 67 -131 128 -242c-1 74 3 148 14 212c31 169 248 132 223 -14c-40 -234 -10 -627 -10 -631c5 -50 -31 -95 -81 -101h-10c-45 0 -83 33 -90 77c-6 7 -12 14 -17 22c-7 13 -108 196 -196 359c5 -184 23 -355 23 -357
c5 -50 -32 -95 -82 -101h-9c-47 0 -86 35 -91 82c-2 17 -42 410 -18 664c5 50 50 87 100 82c4 0 8 -1 12 -2zM502 939c-13 -41 -39 -59 -59 -68c-14 -7 -29 -9 -44 -9c-37 0 -74 17 -108 32c-8 4 -19 9 -29 12c-14 -23 -41 -36 -69 -32c-37 6 -62 41 -56 78
c8 50 34 73 55 84c52 28 106 3 155 -19c10 -5 26 -11 37 -16c17 22 47 33 75 23c36 -11 55 -50 43 -85z" />
    <glyph glyph-name="Oacute" unicode="&#xd3;" 
d="M189 43c-64 35 -113 90 -141 159c-30 74 -35 159 -16 252c49 230 190 279 300 279c124 0 242 -86 302 -218c63 -142 41 -300 -59 -411c-1 -2 -2 -3 -3 -4c-63 -63 -147 -96 -231 -96c-52 0 -104 13 -152 39zM234 442c-17 -82 2 -145 53 -173c43 -23 97 -15 133 20
c60 69 32 149 21 172c-24 53 -67 89 -109 89c-30 0 -75 0 -98 -108zM233 818v0c-24 27 -25 68 -1 96c23 28 49 63 61 97c13 38 55 58 93 45c38 -14 59 -56 45 -94c-18 -53 -55 -105 -87 -142c-29 -35 -81 -35 -111 -2z" />
    <glyph glyph-name="Ocircumflex" unicode="&#xd4;" 
d="M189 43c-64 35 -113 90 -141 159c-30 74 -35 159 -16 252c49 230 190 279 300 279c124 0 242 -86 302 -218c63 -142 41 -300 -59 -411c-1 -2 -2 -3 -3 -4c-63 -63 -147 -96 -231 -96c-52 0 -104 13 -152 39zM234 442c-17 -82 2 -145 53 -173c43 -23 97 -15 133 20
c60 69 32 149 21 172c-24 53 -67 89 -109 89c-30 0 -75 0 -98 -108zM184 819v0c-24 27 -25 68 -1 96c23 28 49 63 61 97s47 54 82 47c35 7 70 -13 82 -47s38 -69 61 -97c24 -28 23 -69 -1 -96v0c-30 -33 -82 -33 -111 2c-10 12 -21 25 -31 40c-11 -15 -21 -28 -31 -40
c-29 -35 -82 -35 -111 -2z" />
    <glyph glyph-name="Odieresis" unicode="&#xd6;" 
d="M189 43c-64 35 -113 90 -141 159c-30 74 -35 159 -16 252c49 230 190 279 300 279c124 0 242 -86 302 -218c63 -142 41 -300 -59 -411c-1 -2 -2 -3 -3 -4c-63 -63 -147 -96 -231 -96c-52 0 -104 13 -152 39zM234 442c-17 -82 2 -145 53 -173c43 -23 97 -15 133 20
c60 69 32 149 21 172c-24 53 -67 89 -109 89c-30 0 -75 0 -98 -108zM199 1020c60 0 110 -48 113 -110v0c1 -29 -10 -57 -31 -79c-22 -23 -52 -36 -82 -36c-61 0 -110 48 -113 110c-1 29 10 57 31 79c22 23 51 36 82 36zM443 1020c60 0 110 -48 113 -110v0
c1 -29 -10 -57 -31 -79c-22 -23 -52 -36 -82 -36c-60 0 -110 48 -113 110c-1 29 10 57 31 79c22 23 52 36 82 36z" />
    <glyph glyph-name="Ograve" unicode="&#xd2;" 
d="M189 43c-64 35 -113 90 -141 159c-30 74 -35 159 -16 252c49 230 190 279 300 279c124 0 242 -86 302 -218c63 -142 41 -300 -59 -411c-1 -2 -2 -3 -3 -4c-63 -63 -147 -96 -231 -96c-52 0 -104 13 -152 39zM234 442c-17 -82 2 -145 53 -173c43 -23 97 -15 133 20
c60 69 32 149 21 172c-24 53 -67 89 -109 89c-30 0 -75 0 -98 -108zM356 1011c11 -34 38 -69 61 -97s23 -69 -1 -96v0c-30 -33 -82 -33 -111 2c-32 37 -69 89 -87 142c-14 38 6 80 45 94c38 13 79 -7 93 -45z" />
    <glyph glyph-name="Ohungarumlaut" unicode="&#x150;" 
d="M189 43c-64 35 -113 90 -141 159c-30 74 -35 159 -16 252c49 230 190 279 300 279c124 0 242 -86 302 -218c63 -142 41 -300 -59 -411c-1 -2 -2 -3 -3 -4c-63 -63 -147 -96 -231 -96c-52 0 -104 13 -152 39zM234 442c-17 -82 2 -145 53 -173c43 -23 97 -15 133 20
c60 69 32 149 21 172c-24 53 -67 89 -109 89c-30 0 -75 0 -98 -108zM343 819c-24 27 -25 68 -1 96c23 28 49 63 61 97c13 38 55 58 93 45c38 -14 59 -56 45 -94c-18 -53 -55 -105 -87 -142c-29 -35 -81 -35 -111 -2zM139 819c-24 27 -25 68 -1 96c23 28 49 63 61 97
c13 38 55 58 93 45c38 -14 59 -56 45 -94c-18 -53 -55 -105 -87 -142c-29 -35 -81 -35 -111 -2z" />
    <glyph glyph-name="Omacron" unicode="&#x14c;" 
d="M189 43c-64 35 -113 90 -141 159c-30 74 -35 159 -16 252c49 230 190 279 300 279c124 0 242 -86 302 -218c63 -142 41 -300 -59 -411c-1 -2 -2 -3 -3 -4c-63 -63 -147 -96 -231 -96c-52 0 -104 13 -152 39zM234 442c-17 -82 2 -145 53 -173c43 -23 97 -15 133 20
c60 69 32 149 21 172c-24 53 -67 89 -109 89c-30 0 -75 0 -98 -108zM97 886c3 42 39 74 82 71c1 0 179 -12 299 -4c42 3 78 -29 81 -72c3 -42 -30 -78 -72 -81c-33 -2 -69 -3 -105 -3c-106 0 -208 7 -213 7c-43 3 -75 39 -72 82z" />
    <glyph glyph-name="Oslashacute" unicode="&#x1fe;" 
d="M233 818v0c-24 27 -25 68 -1 96c23 28 49 63 61 97c13 38 55 58 93 45c38 -14 59 -56 45 -94c-18 -53 -55 -105 -87 -142c-29 -35 -81 -35 -111 -2zM634 532c63 -142 41 -300 -59 -411c-1 -2 -2 -3 -3 -4c-63 -63 -147 -96 -231 -96c-46 0 -91 10 -134 30
c-24 -41 -39 -66 -41 -69c-46 -67 -144 -20 -87 64c0 0 15 25 39 66c-30 30 -54 66 -70 107c-30 74 -35 159 -16 252c49 230 190 279 300 279c33 0 66 -7 98 -18c6 16 13 32 18 48c50 141 184 91 146 -8c-13 -32 -30 -70 -50 -112c36 -35 67 -78 90 -128zM234 459
c-10 -50 -7 -92 8 -124c38 72 78 150 115 228c-9 2 -17 4 -25 4c-30 0 -75 0 -98 -108zM420 306c54 61 37 131 25 162c-35 -65 -73 -132 -108 -195c30 -1 60 11 83 33z" />
    <glyph glyph-name="Otilde" unicode="&#xd5;" 
d="M189 43c-64 35 -113 90 -141 159c-30 74 -35 159 -16 252c49 230 190 279 300 279c124 0 242 -86 302 -218c63 -142 41 -300 -59 -411c-1 -2 -2 -3 -3 -4c-63 -63 -147 -96 -231 -96c-52 0 -104 13 -152 39zM234 442c-17 -82 2 -145 53 -173c43 -23 97 -15 133 20
c60 69 32 149 21 172c-24 53 -67 89 -109 89c-30 0 -75 0 -98 -108zM505 872c-13 -41 -39 -59 -59 -68c-14 -7 -29 -9 -44 -9c-37 0 -74 17 -108 32c-8 4 -19 9 -29 12c-14 -23 -41 -36 -69 -32c-37 6 -62 41 -56 78c8 50 34 73 55 84c52 28 106 3 155 -19
c10 -5 26 -11 37 -16c17 22 47 33 75 23c36 -11 55 -50 43 -85z" />
    <glyph glyph-name="Racute" unicode="&#x154;" horiz-adv-x="576" 
d="M549 96c19 -47 -3 -100 -49 -120c-12 -4 -24 -7 -36 -7c-35 0 -69 22 -84 57c0 1 -42 99 -114 241c-3 -1 -7 -2 -10 -3c3 -74 3 -125 3 -130c0 -51 -41 -92 -91 -92v0c-51 0 -92 41 -92 91c0 2 -41 396 -54 480c-7 42 4 94 67 113c18 5 187 50 307 -11
c56 -29 95 -79 111 -145c16 -61 6 -120 -28 -171c-13 -18 -29 -36 -48 -52c74 -146 116 -246 118 -251zM328 502c3 5 5 10 2 23c-5 20 -13 25 -18 27c-18 10 -48 10 -77 6c4 -35 7 -71 10 -106c3 1 6 2 9 4c4 2 8 5 12 7c8 4 16 7 24 9c17 9 30 19 38 30zM146 822v0
c-24 27 -25 68 -1 96c23 28 49 63 61 97c13 38 55 58 93 45c38 -14 59 -56 45 -94c-18 -53 -55 -105 -87 -142c-29 -35 -81 -35 -111 -2z" />
    <glyph glyph-name="Rcaron" unicode="&#x158;" horiz-adv-x="576" 
d="M549 96c19 -47 -3 -100 -49 -120c-12 -4 -24 -7 -36 -7c-35 0 -69 22 -84 57c0 1 -42 99 -114 241c-3 -1 -7 -2 -10 -3c3 -74 3 -125 3 -130c0 -51 -41 -92 -91 -92v0c-51 0 -92 41 -92 91c0 2 -41 396 -54 480c-7 42 4 94 67 113c18 5 187 50 307 -11
c56 -29 95 -79 111 -145c16 -61 6 -120 -28 -171c-13 -18 -29 -36 -48 -52c74 -146 116 -246 118 -251zM328 502c3 5 5 10 2 23c-5 20 -13 25 -18 27c-18 10 -48 10 -77 6c4 -35 7 -71 10 -106c3 1 6 2 9 4c4 2 8 5 12 7c8 4 16 7 24 9c17 9 30 19 38 30zM157 849
c-12 34 -38 69 -61 97c-24 28 -23 69 1 96c29 33 82 33 111 -2c10 -12 20 -25 31 -40c10 15 21 28 31 40c29 35 81 35 111 2c24 -27 25 -68 1 -96c-23 -28 -49 -63 -61 -97s-47 -54 -82 -47c-35 -7 -70 13 -82 47z" />
    <glyph glyph-name="Rcommaaccent" unicode="&#x156;" horiz-adv-x="576" 
d="M549 96c19 -47 -3 -100 -49 -120c-12 -4 -24 -7 -36 -7c-35 0 -69 22 -84 57c0 1 -42 99 -114 241c-3 -1 -7 -2 -10 -3c3 -74 3 -125 3 -130c0 -51 -41 -92 -91 -92v0c-51 0 -92 41 -92 91c0 2 -41 396 -54 480c-7 42 4 94 67 113c18 5 187 50 307 -11
c56 -29 95 -79 111 -145c16 -61 6 -120 -28 -171c-13 -18 -29 -36 -48 -52c74 -146 116 -246 118 -251zM328 502c3 5 5 10 2 23c-5 20 -13 25 -18 27c-18 10 -48 10 -77 6c4 -35 7 -71 10 -106c3 1 6 2 9 4c4 2 8 5 12 7c8 4 16 7 24 9c17 9 30 19 38 30zM270 -342l24 43
c9 17 1 37 -17 42c-32 9 -72 34 -69 105c2 44 35 82 79 89c157 25 192 -232 -17 -279z" />
    <glyph glyph-name="Sacute" unicode="&#x15a;" horiz-adv-x="556" 
d="M531 187c-9 -63 -40 -114 -90 -146c-39 -25 -89 -37 -148 -37c-60 0 -130 12 -209 37c-48 16 -75 67 -59 115c15 48 67 77 114 60c160 -59 162 36 134 48c-47 20 -100 43 -142 85c-55 55 -76 126 -63 213c14 85 62 129 100 151c53 31 123 40 207 26
c55 -10 97 -25 102 -27c47 -18 71 -71 53 -118s-71 -71 -118 -53c-51 19 -140 39 -163 -8c-10 -21 -1 -59 96 -101c42 -18 86 -36 122 -69c50 -45 72 -106 64 -176zM207 818v0c-24 27 -25 68 -1 96c23 28 49 63 61 97c13 38 55 58 93 45c38 -14 59 -56 45 -94
c-18 -53 -55 -105 -87 -142c-29 -35 -81 -35 -111 -2z" />
    <glyph glyph-name="Scaron" unicode="&#x160;" horiz-adv-x="556" 
d="M531 187c-9 -63 -40 -114 -90 -146c-39 -25 -89 -37 -148 -37c-60 0 -130 12 -209 37c-48 16 -75 67 -59 115c15 48 67 77 114 60c160 -59 162 36 134 48c-47 20 -100 43 -142 85c-55 55 -76 126 -63 213c14 85 62 129 100 151c53 31 123 40 207 26
c55 -10 97 -25 102 -27c47 -18 71 -71 53 -118s-71 -71 -118 -53c-51 19 -140 39 -163 -8c-10 -21 -1 -59 96 -101c42 -18 86 -36 122 -69c50 -45 72 -106 64 -176zM218 845c-12 34 -38 69 -61 97c-24 28 -23 69 1 96c29 33 82 33 111 -2c10 -12 20 -25 31 -40
c10 15 21 28 31 40c29 35 81 35 111 2c24 -27 25 -68 1 -96c-23 -28 -49 -63 -61 -97s-47 -54 -82 -47c-35 -7 -70 13 -82 47z" />
    <glyph glyph-name="Scedilla" unicode="&#x15e;" horiz-adv-x="556" 
d="M399 -233c-53 -72 -152 -91 -224 -42c-10 7 -19 14 -27 23c-26 28 -8 73 29 76c9 0 16 1 23 1c12 1 23 -3 32 -10c1 0 2 -1 2 -1c29 -19 64 -4 82 21c7 10 5 25 4 31c-3 17 -12 33 -23 41l-14 7c-22 -12 -50 -9 -67 11c-18 21 -18 51 -1 72l10 11c-43 6 -90 17 -141 33
c-48 16 -75 67 -59 115c15 48 67 77 114 60c160 -59 162 36 134 48c-47 20 -100 43 -142 85c-55 55 -76 126 -63 213c14 85 62 129 100 151c53 31 123 40 207 26c55 -10 97 -25 102 -27c47 -18 71 -71 53 -118s-71 -71 -118 -53c-51 19 -140 39 -163 -8
c-10 -21 -1 -59 96 -101c42 -18 86 -36 122 -69c50 -45 72 -106 64 -176c-9 -63 -40 -114 -90 -146c-25 -16 -54 -27 -88 -33l-4 -8c3 -1 5 -3 7 -4c37 -25 62 -64 70 -109c7 -44 -2 -86 -27 -120z" />
    <glyph glyph-name="Scircumflex" unicode="&#x15c;" horiz-adv-x="556" 
d="M531 187c-9 -63 -40 -114 -90 -146c-39 -25 -89 -37 -148 -37c-60 0 -130 12 -209 37c-48 16 -75 67 -59 115c15 48 67 77 114 60c160 -59 162 36 134 48c-47 20 -100 43 -142 85c-55 55 -76 126 -63 213c14 85 62 129 100 151c53 31 123 40 207 26
c55 -10 97 -25 102 -27c47 -18 71 -71 53 -118s-71 -71 -118 -53c-51 19 -140 39 -163 -8c-10 -21 -1 -59 96 -101c42 -18 86 -36 122 -69c50 -45 72 -106 64 -176zM158 819v0c-24 27 -25 68 -1 96c23 28 49 63 61 97s47 54 82 47c35 7 70 -13 82 -47s38 -69 61 -97
c24 -28 23 -69 -1 -96v0c-30 -33 -82 -33 -111 2c-10 12 -21 25 -31 40c-11 -15 -21 -28 -31 -40c-29 -35 -82 -35 -111 -2z" />
    <glyph glyph-name="Scommaaccent" unicode="&#x218;" horiz-adv-x="556" 
d="M531 187c-9 -63 -40 -114 -90 -146c-39 -25 -89 -37 -148 -37c-60 0 -130 12 -209 37c-48 16 -75 67 -59 115c15 48 67 77 114 60c160 -59 162 36 134 48c-47 20 -100 43 -142 85c-55 55 -76 126 -63 213c14 85 62 129 100 151c53 31 123 40 207 26
c55 -10 97 -25 102 -27c47 -18 71 -71 53 -118s-71 -71 -118 -53c-51 19 -140 39 -163 -8c-10 -21 -1 -59 96 -101c42 -18 86 -36 122 -69c50 -45 72 -106 64 -176zM227 -341l24 43c9 17 1 37 -17 42c-32 9 -72 34 -69 105c2 44 35 82 79 89c157 25 192 -232 -17 -279z" />
    <glyph glyph-name="Tcaron" unicode="&#x164;" horiz-adv-x="578" 
d="M322 -22c-50 1 -90 43 -89 93c0 4 22 266 -16 498c-35 -2 -62 -3 -80 -3c-19 0 -29 1 -30 1c-51 3 -89 47 -86 97s47 89 97 85c3 0 127 -6 327 40c50 11 99 -20 110 -69c11 -50 -20 -99 -69 -110c-18 -4 -35 -7 -52 -11c36 -246 -18 -519 -19 -531
c-1 -50 -41 -90 -91 -90h-2zM218 884c-12 34 -38 69 -61 97c-24 28 -23 69 1 96c29 33 82 33 111 -2c10 -12 20 -25 31 -40c10 15 21 28 31 40c29 35 81 35 111 2c24 -27 25 -68 1 -96c-23 -28 -49 -63 -61 -97s-47 -54 -82 -47c-35 -7 -70 13 -82 47z" />
    <glyph glyph-name="Tcommaaccent" unicode="&#x162;" horiz-adv-x="578" 
d="M322 -22c-50 1 -90 43 -89 93c0 4 22 266 -16 498c-35 -2 -62 -3 -80 -3c-19 0 -29 1 -30 1c-51 3 -89 47 -86 97s47 89 97 85c3 0 127 -6 327 40c50 11 99 -20 110 -69c11 -50 -20 -99 -69 -110c-18 -4 -35 -7 -52 -11c36 -246 -18 -519 -19 -531
c-1 -50 -41 -90 -91 -90h-2zM291 -350l24 43c9 17 1 37 -17 42c-32 9 -72 34 -69 105c2 44 35 82 79 89c157 25 192 -232 -17 -279z" />
    <glyph glyph-name="Uacute" unicode="&#xda;" horiz-adv-x="562" 
d="M290 -22c-141 0 -247 120 -258 292c-7 131 -21 270 -1 410c27 183 248 159 234 -15c-10 -128 -40 -251 -33 -374c3 -44 5 -130 58 -130c15 0 26 5 36 15c23 24 35 72 32 125c-7 124 -12 246 1 379c5 50 49 87 99 83c51 -5 88 -50 83 -100c-12 -120 -7 -235 0 -352
c6 -104 -24 -199 -82 -260c-45 -48 -104 -73 -169 -73zM226 878v0c-24 27 -25 68 -1 96c23 28 49 63 61 97c13 38 55 58 93 45c38 -14 59 -56 45 -94c-18 -53 -55 -105 -87 -142c-29 -35 -81 -35 -111 -2z" />
    <glyph glyph-name="Ucircumflex" unicode="&#xdb;" horiz-adv-x="562" 
d="M290 -22c-141 0 -247 120 -258 292c-7 131 -21 270 -1 410c27 183 248 159 234 -15c-10 -128 -40 -251 -33 -374c3 -44 5 -130 58 -130c15 0 26 5 36 15c23 24 35 72 32 125c-7 124 -12 246 1 379c5 50 49 87 99 83c51 -5 88 -50 83 -100c-12 -120 -7 -235 0 -352
c6 -104 -24 -199 -82 -260c-45 -48 -104 -73 -169 -73zM177 879v0c-24 27 -25 68 -1 96c23 28 49 63 61 97s47 54 82 47c35 7 70 -13 82 -47s38 -69 61 -97c24 -28 23 -69 -1 -96v0c-30 -33 -82 -33 -111 2c-10 12 -21 25 -31 40c-11 -15 -21 -28 -31 -40
c-29 -35 -82 -35 -111 -2z" />
    <glyph glyph-name="Udieresis" unicode="&#xdc;" horiz-adv-x="562" 
d="M290 -22c-141 0 -247 120 -258 292c-7 131 -21 270 -1 410c27 183 248 159 234 -15c-10 -128 -40 -251 -33 -374c3 -44 5 -130 58 -130c15 0 26 5 36 15c23 24 35 72 32 125c-7 124 -12 246 1 379c5 50 49 87 99 83c51 -5 88 -50 83 -100c-12 -120 -7 -235 0 -352
c6 -104 -24 -199 -82 -260c-45 -48 -104 -73 -169 -73zM192 1080c60 0 110 -48 113 -110v0c1 -29 -10 -57 -31 -79c-22 -23 -52 -36 -82 -36c-61 0 -110 48 -113 110c-1 29 10 57 31 79c22 23 51 36 82 36zM436 1080c60 0 110 -48 113 -110v0c1 -29 -10 -57 -31 -79
c-22 -23 -52 -36 -82 -36c-60 0 -110 48 -113 110c-1 29 10 57 31 79c22 23 52 36 82 36z" />
    <glyph glyph-name="Ugrave" unicode="&#xd9;" horiz-adv-x="562" 
d="M290 -22c-141 0 -247 120 -258 292c-7 131 -21 270 -1 410c27 183 248 159 234 -15c-10 -128 -40 -251 -33 -374c3 -44 5 -130 58 -130c15 0 26 5 36 15c23 24 35 72 32 125c-7 124 -12 246 1 379c5 50 49 87 99 83c51 -5 88 -50 83 -100c-12 -120 -7 -235 0 -352
c6 -104 -24 -199 -82 -260c-45 -48 -104 -73 -169 -73zM349 1071c11 -34 38 -69 61 -97s23 -69 -1 -96v0c-30 -33 -82 -33 -111 2c-32 37 -69 89 -87 142c-14 38 6 80 45 94c38 13 79 -7 93 -45z" />
    <glyph glyph-name="Uhungarumlaut" unicode="&#x170;" horiz-adv-x="562" 
d="M290 -22c-141 0 -247 120 -258 292c-7 131 -21 270 -1 410c27 183 248 159 234 -15c-10 -128 -40 -251 -33 -374c3 -44 5 -130 58 -130c15 0 26 5 36 15c23 24 35 72 32 125c-7 124 -12 246 1 379c5 50 49 87 99 83c51 -5 88 -50 83 -100c-12 -120 -7 -235 0 -352
c6 -104 -24 -199 -82 -260c-45 -48 -104 -73 -169 -73zM336 879c-24 27 -25 68 -1 96c23 28 49 63 61 97c13 38 55 58 93 45c38 -14 59 -56 45 -94c-18 -53 -55 -105 -87 -142c-29 -35 -81 -35 -111 -2zM132 879c-24 27 -25 68 -1 96c23 28 49 63 61 97c13 38 55 58 93 45
c38 -14 59 -56 45 -94c-18 -53 -55 -105 -87 -142c-29 -35 -81 -35 -111 -2z" />
    <glyph glyph-name="Umacron" unicode="&#x16a;" horiz-adv-x="562" 
d="M290 -22c-141 0 -247 120 -258 292c-7 131 -21 270 -1 410c27 183 248 159 234 -15c-10 -128 -40 -251 -33 -374c3 -44 5 -130 58 -130c15 0 26 5 36 15c23 24 35 72 32 125c-7 124 -12 246 1 379c5 50 49 87 99 83c51 -5 88 -50 83 -100c-12 -120 -7 -235 0 -352
c6 -104 -24 -199 -82 -260c-45 -48 -104 -73 -169 -73zM90 946c3 42 39 74 82 71c1 0 179 -12 299 -4c42 3 78 -29 81 -72c3 -42 -30 -78 -72 -81c-33 -2 -69 -3 -105 -3c-106 0 -208 7 -213 7c-43 3 -75 39 -72 82z" />
    <glyph glyph-name="Uogonek" unicode="&#x172;" horiz-adv-x="562" 
d="M382 -82c43 -30 22 -97 -30 -98h-1c-6 0 -14 0 -21 1l-7 6c-6 3 -12 6 -17 11c-5 1 -10 2 -16 2c-14 0 -31 -8 -43 -20c-4 -5 -14 -17 -13 -29c1 -31 21 -63 56 -63h2c12 1 24 -2 33 -9l18 -14c29 -24 19 -71 -18 -80c-11 -2 -23 -4 -35 -4c-88 0 -159 70 -163 160
c-2 42 14 82 44 114c19 20 43 35 68 44l-5 12c-4 12 -4 23 -1 34c-112 27 -192 137 -201 285c-7 131 -21 270 -1 410c27 183 248 159 234 -15c-10 -128 -40 -251 -33 -374c3 -44 5 -130 58 -130c15 0 26 5 36 15c23 24 35 72 32 125c-7 124 -12 246 1 379c5 50 49 87 99 83
c51 -5 88 -50 83 -100c-12 -120 -7 -235 0 -352c6 -104 -24 -199 -82 -260c-34 -36 -75 -59 -121 -68c9 -22 25 -44 40 -62z" />
    <glyph glyph-name="Uring" unicode="&#x16e;" horiz-adv-x="562" 
d="M290 -22c-141 0 -247 120 -258 292c-7 131 -21 270 -1 410c27 183 248 159 234 -15c-10 -128 -40 -251 -33 -374c3 -44 5 -130 58 -130c15 0 26 5 36 15c23 24 35 72 32 125c-7 124 -12 246 1 379c5 50 49 87 99 83c51 -5 88 -50 83 -100c-12 -120 -7 -235 0 -352
c6 -104 -24 -199 -82 -260c-45 -48 -104 -73 -169 -73zM425 903c-29 -30 -68 -48 -108 -48c-79 0 -144 64 -148 146c-2 38 13 75 40 103c29 30 68 48 108 48c79 0 144 -64 148 -146v0c2 -38 -13 -75 -40 -103zM277 1008c1 -21 15 -44 40 -44c10 0 22 5 30 14
c3 3 10 12 10 21c-1 21 -15 44 -40 44c-10 0 -22 -5 -30 -14c-3 -4 -10 -12 -10 -21z" />
    <glyph glyph-name="Utilde" unicode="&#x168;" horiz-adv-x="562" 
d="M290 -22c-141 0 -247 120 -258 292c-7 131 -21 270 -1 410c27 183 248 159 234 -15c-10 -128 -40 -251 -33 -374c3 -44 5 -130 58 -130c15 0 26 5 36 15c23 24 35 72 32 125c-7 124 -12 246 1 379c5 50 49 87 99 83c51 -5 88 -50 83 -100c-12 -120 -7 -235 0 -352
c6 -104 -24 -199 -82 -260c-45 -48 -104 -73 -169 -73zM498 932c-13 -41 -39 -59 -59 -68c-14 -7 -29 -9 -44 -9c-37 0 -74 17 -108 32c-8 4 -19 9 -29 12c-14 -23 -41 -36 -69 -32c-37 6 -62 41 -56 78c8 50 34 73 55 84c52 28 106 3 155 -19c10 -5 26 -11 37 -16
c17 22 47 33 75 23c36 -11 55 -50 43 -85z" />
    <glyph glyph-name="Wacute" unicode="&#x1e82;" horiz-adv-x="862" 
d="M840 699c-39 -219 -170 -592 -176 -608c-13 -37 -48 -61 -86 -61h-5h-6c-41 0 -79 29 -89 71c0 2 -27 104 -57 227c-39 -127 -75 -229 -78 -237c-13 -37 -48 -61 -86 -61h-5h-5c-42 0 -80 29 -89 71c-1 4 -113 430 -136 594c-24 168 220 224 223 38
c2 -86 13 -181 26 -270c28 94 55 193 69 269c1 6 2 12 5 17c28 124 218 149 221 -16c2 -86 13 -181 26 -270c28 94 55 193 68 269c9 49 57 82 107 73c49 -9 82 -56 73 -106zM363 924v0c-24 27 -25 68 -1 96c23 28 49 63 61 97c13 38 55 58 93 45c38 -14 59 -56 45 -94
c-18 -53 -55 -105 -87 -142c-29 -35 -81 -35 -111 -2z" />
    <glyph glyph-name="Wcircumflex" unicode="&#x174;" horiz-adv-x="862" 
d="M840 699c-39 -219 -170 -592 -176 -608c-13 -37 -48 -61 -86 -61h-5h-6c-41 0 -79 29 -89 71c0 2 -27 104 -57 227c-39 -127 -75 -229 -78 -237c-13 -37 -48 -61 -86 -61h-5h-5c-42 0 -80 29 -89 71c-1 4 -113 430 -136 594c-24 168 220 224 223 38
c2 -86 13 -181 26 -270c28 94 55 193 69 269c1 6 2 12 5 17c28 124 218 149 221 -16c2 -86 13 -181 26 -270c28 94 55 193 68 269c9 49 57 82 107 73c49 -9 82 -56 73 -106zM314 925v0c-24 27 -25 68 -1 96c23 28 49 63 61 97s47 54 82 47c35 7 70 -13 82 -47s38 -69 61 -97
c24 -28 23 -69 -1 -96v0c-30 -33 -82 -33 -111 2c-10 12 -21 25 -31 40c-11 -15 -21 -28 -31 -40c-29 -35 -82 -35 -111 -2z" />
    <glyph glyph-name="Wdieresis" unicode="&#x1e84;" horiz-adv-x="862" 
d="M840 699c-39 -219 -170 -592 -176 -608c-13 -37 -48 -61 -86 -61h-5h-6c-41 0 -79 29 -89 71c0 2 -27 104 -57 227c-39 -127 -75 -229 -78 -237c-13 -37 -48 -61 -86 -61h-5h-5c-42 0 -80 29 -89 71c-1 4 -113 430 -136 594c-24 168 220 224 223 38
c2 -86 13 -181 26 -270c28 94 55 193 69 269c1 6 2 12 5 17c28 124 218 149 221 -16c2 -86 13 -181 26 -270c28 94 55 193 68 269c9 49 57 82 107 73c49 -9 82 -56 73 -106zM329 1126c60 0 110 -48 113 -110v0c1 -29 -10 -57 -31 -79c-22 -23 -52 -36 -82 -36
c-61 0 -110 48 -113 110c-1 29 10 57 31 79c22 23 51 36 82 36zM573 1126c60 0 110 -48 113 -110v0c1 -29 -10 -57 -31 -79c-22 -23 -52 -36 -82 -36c-60 0 -110 48 -113 110c-1 29 10 57 31 79c22 23 52 36 82 36z" />
    <glyph glyph-name="Wgrave" unicode="&#x1e80;" horiz-adv-x="862" 
d="M840 699c-39 -219 -170 -592 -176 -608c-13 -37 -48 -61 -86 -61h-5h-6c-41 0 -79 29 -89 71c0 2 -27 104 -57 227c-39 -127 -75 -229 -78 -237c-13 -37 -48 -61 -86 -61h-5h-5c-42 0 -80 29 -89 71c-1 4 -113 430 -136 594c-24 168 220 224 223 38
c2 -86 13 -181 26 -270c28 94 55 193 69 269c1 6 2 12 5 17c28 124 218 149 221 -16c2 -86 13 -181 26 -270c28 94 55 193 68 269c9 49 57 82 107 73c49 -9 82 -56 73 -106zM486 1117c11 -34 38 -69 61 -97s23 -69 -1 -96v0c-30 -33 -82 -33 -111 2c-32 37 -69 89 -87 142
c-14 38 6 80 45 94c38 13 79 -7 93 -45z" />
    <glyph glyph-name="Yacute" unicode="&#xdd;" horiz-adv-x="544" 
d="M515 674c-153 -347 -222 -688 -223 -692c-9 -43 -47 -73 -90 -73c-6 0 -12 0 -18 1c-49 10 -81 58 -71 108c1 8 25 124 74 290c-17 54 -61 185 -148 356c-81 161 132 274 189 100c22 -66 41 -122 57 -169c19 50 40 101 63 153c20 46 74 67 120 47c47 -21 68 -75 47 -121z
M207 913v0c-24 27 -25 68 -1 96c23 28 49 63 61 97c13 38 55 58 93 45c38 -14 59 -56 45 -94c-18 -53 -55 -105 -87 -142c-29 -35 -81 -35 -111 -2z" />
    <glyph glyph-name="Ycircumflex" unicode="&#x176;" horiz-adv-x="544" 
d="M515 674c-153 -347 -222 -688 -223 -692c-9 -43 -47 -73 -90 -73c-6 0 -12 0 -18 1c-49 10 -81 58 -71 108c1 8 25 124 74 290c-17 54 -61 185 -148 356c-81 161 132 274 189 100c22 -66 41 -122 57 -169c19 50 40 101 63 153c20 46 74 67 120 47c47 -21 68 -75 47 -121z
M158 914v0c-24 27 -25 68 -1 96c23 28 49 63 61 97s47 54 82 47c35 7 70 -13 82 -47s38 -69 61 -97c24 -28 23 -69 -1 -96v0c-30 -33 -82 -33 -111 2c-10 12 -21 25 -31 40c-11 -15 -21 -28 -31 -40c-29 -35 -82 -35 -111 -2z" />
    <glyph glyph-name="Ydieresis" unicode="&#x178;" horiz-adv-x="544" 
d="M515 674c-153 -347 -222 -688 -223 -692c-9 -43 -47 -73 -90 -73c-6 0 -12 0 -18 1c-49 10 -81 58 -71 108c1 8 25 124 74 290c-17 54 -61 185 -148 356c-81 161 132 274 189 100c22 -66 41 -122 57 -169c19 50 40 101 63 153c20 46 74 67 120 47c47 -21 68 -75 47 -121z
M173 1115c60 0 110 -48 113 -110v0c1 -29 -10 -57 -31 -79c-22 -23 -52 -36 -82 -36c-61 0 -110 48 -113 110c-1 29 10 57 31 79c22 23 51 36 82 36zM417 1115c60 0 110 -48 113 -110v0c1 -29 -10 -57 -31 -79c-22 -23 -52 -36 -82 -36c-60 0 -110 48 -113 110
c-1 29 10 57 31 79c22 23 52 36 82 36z" />
    <glyph glyph-name="Ygrave" unicode="&#x1ef2;" horiz-adv-x="544" 
d="M515 674c-153 -347 -222 -688 -223 -692c-9 -43 -47 -73 -90 -73c-6 0 -12 0 -18 1c-49 10 -81 58 -71 108c1 8 25 124 74 290c-17 54 -61 185 -148 356c-81 161 132 274 189 100c22 -66 41 -122 57 -169c19 50 40 101 63 153c20 46 74 67 120 47c47 -21 68 -75 47 -121z
M330 1106c11 -34 38 -69 61 -97s23 -69 -1 -96v0c-30 -33 -82 -33 -111 2c-32 37 -69 89 -87 142c-14 38 6 80 45 94c38 13 79 -7 93 -45z" />
    <glyph glyph-name="Zacute" unicode="&#x179;" horiz-adv-x="546" 
d="M519 104c2 -51 -37 -93 -88 -96l-315 -13h-4c-32 0 -61 16 -78 43c-17 28 -18 64 -2 93l206 471l-80 12c-50 6 -85 53 -78 103s53 85 103 78l264 -37c29 -4 55 -23 69 -50c13 -27 13 -59 -2 -85l-243 -438l152 6c51 2 93 -37 96 -87zM230 878v0c-24 27 -25 68 -1 96
c23 28 49 63 61 97c13 38 55 58 93 45c38 -14 59 -56 45 -94c-18 -53 -55 -105 -87 -142c-29 -35 -81 -35 -111 -2z" />
    <glyph glyph-name="Zcaron" unicode="&#x17d;" horiz-adv-x="546" 
d="M519 104c2 -51 -37 -93 -88 -96l-315 -13h-4c-32 0 -61 16 -78 43c-17 28 -18 64 -2 93l206 471l-80 12c-50 6 -85 53 -78 103s53 85 103 78l264 -37c29 -4 55 -23 69 -50c13 -27 13 -59 -2 -85l-243 -438l152 6c51 2 93 -37 96 -87zM241 905c-12 34 -38 69 -61 97
c-24 28 -23 69 1 96c29 33 82 33 111 -2c10 -12 20 -25 31 -40c10 15 21 28 31 40c29 35 81 35 111 2c24 -27 25 -68 1 -96c-23 -28 -49 -63 -61 -97s-47 -54 -82 -47c-35 -7 -70 13 -82 47z" />
    <glyph glyph-name="Zdotaccent" unicode="&#x17b;" horiz-adv-x="546" 
d="M519 104c2 -51 -37 -93 -88 -96l-315 -13h-4c-32 0 -61 16 -78 43c-17 28 -18 64 -2 93l206 471l-80 12c-50 6 -85 53 -78 103s53 85 103 78l264 -37c29 -4 55 -23 69 -50c13 -27 13 -59 -2 -85l-243 -438l152 6c51 2 93 -37 96 -87zM324 1080c60 0 110 -48 113 -110v0
c1 -29 -10 -57 -31 -79c-22 -23 -52 -36 -82 -36c-60 0 -110 48 -113 110c-1 29 10 57 31 79c22 23 52 36 82 36z" />
    <glyph glyph-name="aacute" unicode="&#xe1;" horiz-adv-x="572" 
d="M79 11c-47 23 -71 78 -53 123c1 2 114 241 150 438c9 44 32 69 74 63c46 9 109 -4 131 -42c79 -134 122 -299 145 -426c6 -11 10 -24 12 -37c1 -10 0 -19 -2 -28c11 -77 15 -130 15 -136c7 -50 -28 -92 -79 -94h-2c-49 0 -94 40 -101 89c0 1 -4 31 -13 77h-143
c-7 0 -14 1 -21 3c-15 -25 -42 -39 -71 -39c-14 0 -28 3 -42 9zM285 307c-9 -30 -18 -59 -27 -86h54c-8 28 -17 57 -27 86zM184 720v0c-24 27 -25 68 -1 96c23 28 49 63 61 97c13 38 55 58 93 45c38 -14 59 -56 45 -94c-18 -53 -55 -105 -87 -142c-29 -35 -81 -35 -111 -2z
" />
    <glyph glyph-name="acircumflex" unicode="&#xe2;" horiz-adv-x="572" 
d="M79 11c-47 23 -71 78 -53 123c1 2 114 241 150 438c9 44 32 69 74 63c46 9 109 -4 131 -42c79 -134 122 -299 145 -426c6 -11 10 -24 12 -37c1 -10 0 -19 -2 -28c11 -77 15 -130 15 -136c7 -50 -28 -92 -79 -94h-2c-49 0 -94 40 -101 89c0 1 -4 31 -13 77h-143
c-7 0 -14 1 -21 3c-15 -25 -42 -39 -71 -39c-14 0 -28 3 -42 9zM285 307c-9 -30 -18 -59 -27 -86h54c-8 28 -17 57 -27 86zM135 721v0c-24 27 -25 68 -1 96c23 28 49 63 61 97s47 54 82 47c35 7 70 -13 82 -47s38 -69 61 -97c24 -28 23 -69 -1 -96v0c-30 -33 -82 -33 -111 2
c-10 12 -21 25 -31 40c-11 -15 -21 -28 -31 -40c-29 -35 -82 -35 -111 -2z" />
    <glyph glyph-name="adieresis" unicode="&#xe4;" horiz-adv-x="572" 
d="M79 11c-47 23 -71 78 -53 123c1 2 114 241 150 438c9 44 32 69 74 63c46 9 109 -4 131 -42c79 -134 122 -299 145 -426c6 -11 10 -24 12 -37c1 -10 0 -19 -2 -28c11 -77 15 -130 15 -136c7 -50 -28 -92 -79 -94h-2c-49 0 -94 40 -101 89c0 1 -4 31 -13 77h-143
c-7 0 -14 1 -21 3c-15 -25 -42 -39 -71 -39c-14 0 -28 3 -42 9zM285 307c-9 -30 -18 -59 -27 -86h54c-8 28 -17 57 -27 86zM150 922c60 0 110 -48 113 -110v0c1 -29 -10 -57 -31 -79c-22 -23 -52 -36 -82 -36c-61 0 -110 48 -113 110c-1 29 10 57 31 79c22 23 51 36 82 36z
M394 922c60 0 110 -48 113 -110v0c1 -29 -10 -57 -31 -79c-22 -23 -52 -36 -82 -36c-60 0 -110 48 -113 110c-1 29 10 57 31 79c22 23 52 36 82 36z" />
    <glyph glyph-name="agrave" unicode="&#xe0;" horiz-adv-x="572" 
d="M79 11c-47 23 -71 78 -53 123c1 2 114 241 150 438c9 44 32 69 74 63c46 9 109 -4 131 -42c79 -134 122 -299 145 -426c6 -11 10 -24 12 -37c1 -10 0 -19 -2 -28c11 -77 15 -130 15 -136c7 -50 -28 -92 -79 -94h-2c-49 0 -94 40 -101 89c0 1 -4 31 -13 77h-143
c-7 0 -14 1 -21 3c-15 -25 -42 -39 -71 -39c-14 0 -28 3 -42 9zM285 307c-9 -30 -18 -59 -27 -86h54c-8 28 -17 57 -27 86zM307 913c11 -34 38 -69 61 -97s23 -69 -1 -96v0c-30 -33 -82 -33 -111 2c-32 37 -69 89 -87 142c-14 38 6 80 45 94c38 13 79 -7 93 -45z" />
    <glyph glyph-name="amacron" unicode="&#x101;" horiz-adv-x="572" 
d="M79 11c-47 23 -71 78 -53 123c1 2 114 241 150 438c9 44 32 69 74 63c46 9 109 -4 131 -42c79 -134 122 -299 145 -426c6 -11 10 -24 12 -37c1 -10 0 -19 -2 -28c11 -77 15 -130 15 -136c7 -50 -28 -92 -79 -94h-2c-49 0 -94 40 -101 89c0 1 -4 31 -13 77h-143
c-7 0 -14 1 -21 3c-15 -25 -42 -39 -71 -39c-14 0 -28 3 -42 9zM285 307c-9 -30 -18 -59 -27 -86h54c-8 28 -17 57 -27 86zM48 788c3 42 39 74 82 71c1 0 179 -12 299 -4c42 3 78 -29 81 -72c3 -42 -30 -78 -72 -81c-33 -2 -69 -3 -105 -3c-106 0 -208 7 -213 7
c-43 3 -75 39 -72 82z" />
    <glyph glyph-name="aogonek" unicode="&#x105;" horiz-adv-x="572" 
d="M568 -167c43 -30 22 -97 -30 -98h-1c-6 0 -14 0 -21 1l-7 6c-6 3 -12 6 -17 11c-5 1 -10 2 -16 2c-14 0 -31 -8 -43 -20c-4 -5 -14 -17 -13 -29c1 -31 21 -63 56 -63h2c12 1 24 -2 33 -9l18 -14c29 -24 19 -71 -18 -80c-11 -2 -23 -4 -35 -4c-88 0 -159 70 -163 160
c-2 42 14 82 44 114c19 20 43 35 68 44l-5 12c-3 7 -4 15 -3 22c-25 16 -44 43 -48 73c0 1 -4 31 -13 77h-143c-7 0 -14 1 -21 3c-15 -25 -42 -39 -71 -39c-14 0 -28 3 -42 9c-47 23 -71 78 -53 123c1 2 114 241 150 438c9 44 32 69 74 63c46 9 109 -4 131 -42
c79 -134 122 -299 145 -426c6 -11 10 -24 12 -37c1 -10 0 -19 -2 -28c11 -77 15 -130 15 -136c4 -29 -6 -55 -25 -72c9 -21 24 -41 38 -58zM285 307l-27 -86h54c-8 28 -17 57 -27 86z" />
    <glyph glyph-name="aring" unicode="&#xe5;" horiz-adv-x="572" 
d="M79 11c-47 23 -71 78 -53 123c1 2 114 241 150 438c9 44 32 69 74 63c46 9 109 -4 131 -42c79 -134 122 -299 145 -426c6 -11 10 -24 12 -37c1 -10 0 -19 -2 -28c11 -77 15 -130 15 -136c7 -50 -28 -92 -79 -94h-2c-49 0 -94 40 -101 89c0 1 -4 31 -13 77h-143
c-7 0 -14 1 -21 3c-15 -25 -42 -39 -71 -39c-14 0 -28 3 -42 9zM285 307c-9 -30 -18 -59 -27 -86h54c-8 28 -17 57 -27 86zM383 745c-29 -30 -68 -48 -108 -48c-79 0 -144 64 -148 146c-2 38 13 75 40 103c29 30 68 48 108 48c79 0 144 -64 148 -146v0
c2 -38 -13 -75 -40 -103zM235 850c1 -21 15 -44 40 -44c10 0 22 5 30 14c3 3 10 12 10 21c-1 21 -15 44 -40 44c-10 0 -22 -5 -30 -14c-3 -4 -10 -12 -10 -21z" />
    <glyph glyph-name="atilde" unicode="&#xe3;" horiz-adv-x="572" 
d="M79 11c-47 23 -71 78 -53 123c1 2 114 241 150 438c9 44 32 69 74 63c46 9 109 -4 131 -42c79 -134 122 -299 145 -426c6 -11 10 -24 12 -37c1 -10 0 -19 -2 -28c11 -77 15 -130 15 -136c7 -50 -28 -92 -79 -94h-2c-49 0 -94 40 -101 89c0 1 -4 31 -13 77h-143
c-7 0 -14 1 -21 3c-15 -25 -42 -39 -71 -39c-14 0 -28 3 -42 9zM285 307c-9 -30 -18 -59 -27 -86h54c-8 28 -17 57 -27 86zM456 774c-13 -41 -39 -59 -59 -68c-14 -7 -29 -9 -44 -9c-37 0 -74 17 -108 32c-8 4 -19 9 -29 12c-14 -23 -41 -36 -69 -32c-37 6 -62 41 -56 78
c8 50 34 73 55 84c52 28 106 3 155 -19c10 -5 26 -11 37 -16c17 22 47 33 75 23c36 -11 55 -50 43 -85z" />
    <glyph glyph-name="aeacute" unicode="&#x1fd;" horiz-adv-x="920" 
d="M899 99c5 -50 -31 -95 -81 -101l-301 -31c-3 -1 -6 -1 -9 -1c-23 0 -45 8 -61 23c-20 18 -31 42 -31 68c0 1 -1 4 -2 11h-177c-3 0 -6 1 -10 1c-9 -24 -14 -39 -15 -42c-14 -35 -47 -55 -83 -55c-14 0 -30 3 -45 10c-51 25 -77 85 -57 135c1 2 141 281 274 451
c30 38 37 73 77 69c36 10 222 62 306 58c50 -2 89 -44 87 -95c-2 -50 -45 -89 -96 -87c-26 1 -78 -9 -129 -22c2 -19 5 -39 9 -60l147 7c50 2 93 -37 95 -87c3 -50 -36 -93 -87 -96l-122 -5c5 -33 9 -64 9 -91l202 21c50 5 95 -31 100 -81zM310 251h62c-6 26 -12 54 -18 81
c-16 -27 -31 -55 -44 -81zM404 743v0c-24 27 -25 68 -1 96c23 28 49 63 61 97c13 38 55 58 93 45c38 -14 59 -56 45 -94c-18 -53 -55 -105 -87 -142c-29 -35 -81 -35 -111 -2z" />
    <glyph glyph-name="cacute" unicode="&#x107;" horiz-adv-x="618" 
d="M356 445c-28 6 -117 10 -146 -99c-18 -67 -3 -116 43 -145c58 -36 143 -31 195 12c39 33 97 27 129 -11c32 -39 25 -99 -14 -131c-62 -51 -142 -77 -222 -77c-65 0 -130 17 -185 52c-114 72 -160 201 -123 345c33 133 107 191 164 217c68 30 139 28 196 17
c59 -12 91 -78 64 -132c-19 -37 -60 -56 -101 -48zM207 720v0c-24 27 -25 68 -1 96c23 28 49 63 61 97c13 38 55 58 93 45c38 -14 59 -56 45 -94c-18 -53 -55 -105 -87 -142c-29 -35 -81 -35 -111 -2z" />
    <glyph glyph-name="ccaron" unicode="&#x10d;" horiz-adv-x="618" 
d="M356 445c-28 6 -117 10 -146 -99c-18 -67 -3 -116 43 -145c58 -36 143 -31 195 12c39 33 97 27 129 -11c32 -39 25 -99 -14 -131c-62 -51 -142 -77 -222 -77c-65 0 -130 17 -185 52c-114 72 -160 201 -123 345c33 133 107 191 164 217c68 30 139 28 196 17
c59 -12 91 -78 64 -132c-19 -37 -60 -56 -101 -48zM218 747c-12 34 -38 69 -61 97c-24 28 -23 69 1 96c29 33 82 33 111 -2c10 -12 20 -25 31 -40c10 15 21 28 31 40c29 35 81 35 111 2c24 -27 25 -68 1 -96c-23 -28 -49 -63 -61 -97s-47 -54 -82 -47c-35 -7 -70 13 -82 47z
" />
    <glyph glyph-name="ccircumflex" unicode="&#x109;" horiz-adv-x="618" 
d="M356 445c-28 6 -117 10 -146 -99c-18 -67 -3 -116 43 -145c58 -36 143 -31 195 12c39 33 97 27 129 -11c32 -39 25 -99 -14 -131c-62 -51 -142 -77 -222 -77c-65 0 -130 17 -185 52c-114 72 -160 201 -123 345c33 133 107 191 164 217c68 30 139 28 196 17
c59 -12 91 -78 64 -132c-19 -37 -60 -56 -101 -48zM158 721v0c-24 27 -25 68 -1 96c23 28 49 63 61 97s47 54 82 47c35 7 70 -13 82 -47s38 -69 61 -97c24 -28 23 -69 -1 -96v0c-30 -33 -82 -33 -111 2c-10 12 -21 25 -31 40c-11 -15 -21 -28 -31 -40
c-29 -35 -82 -35 -111 -2z" />
    <glyph glyph-name="cdotaccent" unicode="&#x10b;" horiz-adv-x="618" 
d="M356 445c-28 6 -117 10 -146 -99c-18 -67 -3 -116 43 -145c58 -36 143 -31 195 12c39 33 97 27 129 -11c32 -39 25 -99 -14 -131c-62 -51 -142 -77 -222 -77c-65 0 -130 17 -185 52c-114 72 -160 201 -123 345c33 133 107 191 164 217c68 30 139 28 196 17
c59 -12 91 -78 64 -132c-19 -37 -60 -56 -101 -48zM301 922c60 0 110 -48 113 -110v0c1 -29 -10 -57 -31 -79c-22 -23 -52 -36 -82 -36c-60 0 -110 48 -113 110c-1 29 10 57 31 79c22 23 52 36 82 36z" />
    <glyph glyph-name="dcaron" unicode="&#x10f;" horiz-adv-x="593" 
d="M22 511c-8 46 18 90 62 104c23 8 234 72 375 -32c52 -37 114 -113 114 -256c0 -89 -39 -176 -110 -247c-61 -62 -141 -103 -212 -111c-9 -1 -18 -2 -26 -2c-85 0 -149 49 -168 130c-1 7 -2 13 -2 20c0 2 -1 224 -33 394zM248 454c1 -74 3 -163 -3 -209
c55 -3 119 65 121 104c4 97 -79 109 -118 105zM196 735c-12 34 -38 69 -61 97c-24 28 -23 69 1 96c29 33 82 33 111 -2c10 -12 20 -25 31 -40c10 15 21 28 31 40c29 35 81 35 111 2c24 -27 25 -68 1 -96c-23 -28 -49 -63 -61 -97s-47 -54 -82 -47c-35 -7 -70 13 -82 47z" />
    <glyph glyph-name="eacute" unicode="&#xe9;" horiz-adv-x="600" 
d="M385 483c-26 1 -79 -9 -130 -22c3 -19 5 -39 7 -59l119 6c51 2 93 -37 96 -87c2 -51 -37 -93 -87 -96l-116 -5c1 -33 2 -64 3 -91l201 21c50 5 95 -31 101 -81c5 -51 -31 -96 -82 -101l-300 -32h-10c-22 0 -44 8 -61 23c-19 18 -30 42 -30 68c0 3 -42 304 -74 475
c-8 45 19 90 64 104c29 9 222 63 307 59c50 -2 90 -45 87 -95c-2 -51 -45 -90 -95 -87zM142 738v0c-24 27 -25 68 -1 96c23 28 49 63 61 97c13 38 55 58 93 45c38 -14 59 -56 45 -94c-18 -53 -55 -105 -87 -142c-29 -35 -81 -35 -111 -2z" />
    <glyph glyph-name="ecaron" unicode="&#x11b;" horiz-adv-x="600" 
d="M385 483c-26 1 -79 -9 -130 -22c3 -19 5 -39 7 -59l119 6c51 2 93 -37 96 -87c2 -51 -37 -93 -87 -96l-116 -5c1 -33 2 -64 3 -91l201 21c50 5 95 -31 101 -81c5 -51 -31 -96 -82 -101l-300 -32h-10c-22 0 -44 8 -61 23c-19 18 -30 42 -30 68c0 3 -42 304 -74 475
c-8 45 19 90 64 104c29 9 222 63 307 59c50 -2 90 -45 87 -95c-2 -51 -45 -90 -95 -87zM153 765c-12 34 -38 69 -61 97c-24 28 -23 69 1 96c29 33 82 33 111 -2c10 -12 20 -25 31 -40c10 15 21 28 31 40c29 35 81 35 111 2c24 -27 25 -68 1 -96c-23 -28 -49 -63 -61 -97
s-47 -54 -82 -47c-35 -7 -70 13 -82 47z" />
    <glyph glyph-name="ecircumflex" unicode="&#xea;" horiz-adv-x="600" 
d="M385 483c-26 1 -79 -9 -130 -22c3 -19 5 -39 7 -59l119 6c51 2 93 -37 96 -87c2 -51 -37 -93 -87 -96l-116 -5c1 -33 2 -64 3 -91l201 21c50 5 95 -31 101 -81c5 -51 -31 -96 -82 -101l-300 -32h-10c-22 0 -44 8 -61 23c-19 18 -30 42 -30 68c0 3 -42 304 -74 475
c-8 45 19 90 64 104c29 9 222 63 307 59c50 -2 90 -45 87 -95c-2 -51 -45 -90 -95 -87zM93 739v0c-24 27 -25 68 -1 96c23 28 49 63 61 97s47 54 82 47c35 7 70 -13 82 -47s38 -69 61 -97c24 -28 23 -69 -1 -96v0c-30 -33 -82 -33 -111 2c-10 12 -21 25 -31 40
c-11 -15 -21 -28 -31 -40c-29 -35 -82 -35 -111 -2z" />
    <glyph glyph-name="edieresis" unicode="&#xeb;" horiz-adv-x="600" 
d="M385 483c-26 1 -79 -9 -130 -22c3 -19 5 -39 7 -59l119 6c51 2 93 -37 96 -87c2 -51 -37 -93 -87 -96l-116 -5c1 -33 2 -64 3 -91l201 21c50 5 95 -31 101 -81c5 -51 -31 -96 -82 -101l-300 -32h-10c-22 0 -44 8 -61 23c-19 18 -30 42 -30 68c0 3 -42 304 -74 475
c-8 45 19 90 64 104c29 9 222 63 307 59c50 -2 90 -45 87 -95c-2 -51 -45 -90 -95 -87zM108 940c60 0 110 -48 113 -110v0c1 -29 -10 -57 -31 -79c-22 -23 -52 -36 -82 -36c-61 0 -110 48 -113 110c-1 29 10 57 31 79c22 23 51 36 82 36zM352 940c60 0 110 -48 113 -110v0
c1 -29 -10 -57 -31 -79c-22 -23 -52 -36 -82 -36c-60 0 -110 48 -113 110c-1 29 10 57 31 79c22 23 52 36 82 36z" />
    <glyph glyph-name="edotaccent" unicode="&#x117;" horiz-adv-x="600" 
d="M385 483c-26 1 -79 -9 -130 -22c3 -19 5 -39 7 -59l119 6c51 2 93 -37 96 -87c2 -51 -37 -93 -87 -96l-116 -5c1 -33 2 -64 3 -91l201 21c50 5 95 -31 101 -81c5 -51 -31 -96 -82 -101l-300 -32h-10c-22 0 -44 8 -61 23c-19 18 -30 42 -30 68c0 3 -42 304 -74 475
c-8 45 19 90 64 104c29 9 222 63 307 59c50 -2 90 -45 87 -95c-2 -51 -45 -90 -95 -87zM236 940c60 0 110 -48 113 -110v0c1 -29 -10 -57 -31 -79c-22 -23 -52 -36 -82 -36c-60 0 -110 48 -113 110c-1 29 10 57 31 79c22 23 52 36 82 36z" />
    <glyph glyph-name="egrave" unicode="&#xe8;" horiz-adv-x="600" 
d="M385 483c-26 1 -79 -9 -130 -22c3 -19 5 -39 7 -59l119 6c51 2 93 -37 96 -87c2 -51 -37 -93 -87 -96l-116 -5c1 -33 2 -64 3 -91l201 21c50 5 95 -31 101 -81c5 -51 -31 -96 -82 -101l-300 -32h-10c-22 0 -44 8 -61 23c-19 18 -30 42 -30 68c0 3 -42 304 -74 475
c-8 45 19 90 64 104c29 9 222 63 307 59c50 -2 90 -45 87 -95c-2 -51 -45 -90 -95 -87zM265 931c11 -34 38 -69 61 -97s23 -69 -1 -96v0c-30 -33 -82 -33 -111 2c-32 37 -69 89 -87 142c-14 38 6 80 45 94c38 13 79 -7 93 -45z" />
    <glyph glyph-name="emacron" unicode="&#x113;" horiz-adv-x="600" 
d="M385 483c-26 1 -79 -9 -130 -22c3 -19 5 -39 7 -59l119 6c51 2 93 -37 96 -87c2 -51 -37 -93 -87 -96l-116 -5c1 -33 2 -64 3 -91l201 21c50 5 95 -31 101 -81c5 -51 -31 -96 -82 -101l-300 -32h-10c-22 0 -44 8 -61 23c-19 18 -30 42 -30 68c0 3 -42 304 -74 475
c-8 45 19 90 64 104c29 9 222 63 307 59c50 -2 90 -45 87 -95c-2 -51 -45 -90 -95 -87zM6 806c3 42 39 74 82 71c1 0 179 -12 299 -4c42 3 78 -29 81 -72c3 -42 -30 -78 -72 -81c-33 -2 -69 -3 -105 -3c-106 0 -208 7 -213 7c-43 3 -75 39 -72 82z" />
    <glyph glyph-name="eogonek" unicode="&#x119;" horiz-adv-x="600" 
d="M442 -100c43 -30 22 -97 -30 -98h-1c-6 0 -14 0 -21 1l-7 6c-6 3 -12 6 -17 11c-5 1 -10 2 -16 2c-14 0 -31 -8 -43 -20c-4 -5 -14 -17 -13 -29c1 -31 21 -63 56 -63h2c12 1 24 -2 33 -9l18 -14c29 -24 19 -71 -18 -80c-11 -2 -23 -4 -35 -4c-88 0 -159 70 -163 160
c-2 42 14 82 44 114c19 20 43 35 68 44l-5 12c-2 5 -3 9 -3 13l-94 -10h-10c-22 0 -44 8 -61 23c-19 18 -30 42 -30 68c0 3 -42 304 -74 475c-8 45 19 90 64 104c29 9 222 63 307 59c50 -2 90 -45 87 -95c-2 -51 -45 -90 -95 -87c-26 1 -79 -9 -130 -22c3 -19 5 -39 7 -59
l119 6c51 2 93 -37 96 -87c2 -51 -37 -93 -87 -96l-116 -5l3 -91l201 21c50 5 95 -31 101 -81c5 -51 -31 -96 -82 -101l-96 -10c9 -19 23 -39 37 -55z" />
    <glyph glyph-name="gcircumflex" unicode="&#x11d;" horiz-adv-x="631" 
d="M33 391c34 133 108 191 164 217c68 30 138 28 195 17c60 -12 92 -79 64 -134v0c-19 -36 -60 -56 -100 -48c-29 6 -120 17 -145 -97c-15 -63 37 -179 169 -162c18 3 31 19 29 38h-86c-51 0 -94 42 -94 93c1 49 42 89 92 89l199 4c47 0 87 -37 91 -84l-12 -173
c2 -30 -10 -59 -33 -78c-63 -52 -144 -79 -224 -79c-65 0 -130 17 -185 52c-114 72 -160 201 -124 345zM184 721v0c-24 27 -25 68 -1 96c23 28 49 63 61 97s47 54 82 47c35 7 70 -13 82 -47s38 -69 61 -97c24 -28 23 -69 -1 -96v0c-30 -33 -82 -33 -111 2
c-10 12 -21 25 -31 40c-11 -15 -21 -28 -31 -40c-29 -35 -82 -35 -111 -2z" />
    <glyph glyph-name="gcommaaccent" unicode="&#x123;" horiz-adv-x="631" 
d="M33 391c34 133 108 191 164 217c68 30 138 28 195 17c60 -12 92 -79 64 -134v0c-19 -36 -60 -56 -100 -48c-29 6 -120 17 -145 -97c-15 -63 37 -179 169 -162c18 3 31 19 29 38h-86c-51 0 -94 42 -94 93c1 49 42 89 92 89l199 4c47 0 87 -37 91 -84l-12 -173
c2 -30 -10 -59 -33 -78c-63 -52 -144 -79 -224 -79c-65 0 -130 17 -185 52c-114 72 -160 201 -124 345zM297 -327l24 43c9 17 1 37 -17 42c-32 9 -72 34 -69 105c2 44 35 82 79 89c157 25 192 -232 -17 -279z" />
    <glyph glyph-name="gdotaccent" unicode="&#x121;" horiz-adv-x="631" 
d="M33 391c34 133 108 191 164 217c68 30 138 28 195 17c60 -12 92 -79 64 -134v0c-19 -36 -60 -56 -100 -48c-29 6 -120 17 -145 -97c-15 -63 37 -179 169 -162c18 3 31 19 29 38h-86c-51 0 -94 42 -94 93c1 49 42 89 92 89l199 4c47 0 87 -37 91 -84l-12 -173
c2 -30 -10 -59 -33 -78c-63 -52 -144 -79 -224 -79c-65 0 -130 17 -185 52c-114 72 -160 201 -124 345zM327 922c60 0 110 -48 113 -110v0c1 -29 -10 -57 -31 -79c-22 -23 -52 -36 -82 -36c-60 0 -110 48 -113 110c-1 29 10 57 31 79c22 23 52 36 82 36z" />
    <glyph glyph-name="hcircumflex" unicode="&#x125;" horiz-adv-x="600" 
d="M513 744c48 -13 76 -64 63 -113c-46 -159 -29 -457 -19 -558c5 -50 -32 -95 -82 -100h-9c-47 0 -86 35 -91 82c-1 7 -9 93 -12 206l-88 -4c3 -115 -7 -198 -8 -204c-5 -47 -45 -81 -90 -81c-4 0 -8 1 -11 1c-51 6 -86 52 -80 102c0 2 -1 97 -16 221c-8 12 -12 27 -13 42
c0 10 1 19 3 28c-9 55 -21 113 -37 169c-13 49 29 101 76 121c67 28 117 -21 130 -70c14 -49 24 -98 31 -147l106 5c4 84 14 168 34 237c13 49 64 77 113 63zM158 791v0c-24 27 -25 68 -1 96c23 28 49 63 61 97s47 54 82 47c35 7 70 -13 82 -47s38 -69 61 -97
c24 -28 23 -69 -1 -96v0c-30 -33 -82 -33 -111 2c-10 12 -21 25 -31 40c-11 -15 -21 -28 -31 -40c-29 -35 -82 -35 -111 -2z" />
    <glyph glyph-name="iacute" unicode="&#xed;" horiz-adv-x="258" 
d="M95 655c49 9 97 -24 106 -73c43 -227 37 -508 36 -520c-1 -50 -42 -89 -91 -89h-2c-51 1 -91 43 -89 93c0 4 6 275 -33 482c-10 49 23 97 73 107zM19 741v0c-24 27 -25 68 -1 96c23 28 49 63 61 97c13 38 55 58 93 45c38 -14 59 -56 45 -94c-18 -53 -55 -105 -87 -142
c-29 -35 -81 -35 -111 -2z" />
    <glyph glyph-name="icircumflex" unicode="&#xee;" horiz-adv-x="258" 
d="M95 655c49 9 97 -24 106 -73c43 -227 37 -508 36 -520c-1 -50 -42 -89 -91 -89h-2c-51 1 -91 43 -89 93c0 4 6 275 -33 482c-10 49 23 97 73 107zM-30 742v0c-24 27 -25 68 -1 96c23 28 49 63 61 97s47 54 82 47c35 7 70 -13 82 -47s38 -69 61 -97c24 -28 23 -69 -1 -96
v0c-30 -33 -82 -33 -111 2c-10 12 -21 25 -31 40c-11 -15 -21 -28 -31 -40c-29 -35 -82 -35 -111 -2z" />
    <glyph glyph-name="idieresis" unicode="&#xef;" horiz-adv-x="258" 
d="M95 655c49 9 97 -24 106 -73c43 -227 37 -508 36 -520c-1 -50 -42 -89 -91 -89h-2c-51 1 -91 43 -89 93c0 4 6 275 -33 482c-10 49 23 97 73 107zM-15 943c60 0 110 -48 113 -110v0c1 -29 -10 -57 -31 -79c-22 -23 -52 -36 -82 -36c-61 0 -110 48 -113 110
c-1 29 10 57 31 79c22 23 51 36 82 36zM229 943c60 0 110 -48 113 -110v0c1 -29 -10 -57 -31 -79c-22 -23 -52 -36 -82 -36c-60 0 -110 48 -113 110c-1 29 10 57 31 79c22 23 52 36 82 36z" />
    <glyph glyph-name="igrave" unicode="&#xec;" horiz-adv-x="258" 
d="M95 655c49 9 97 -24 106 -73c43 -227 37 -508 36 -520c-1 -50 -42 -89 -91 -89h-2c-51 1 -91 43 -89 93c0 4 6 275 -33 482c-10 49 23 97 73 107zM142 934c11 -34 38 -69 61 -97s23 -69 -1 -96v0c-30 -33 -82 -33 -111 2c-32 37 -69 89 -87 142c-14 38 6 80 45 94
c38 13 79 -7 93 -45z" />
    <glyph glyph-name="imacron" unicode="&#x12b;" horiz-adv-x="258" 
d="M95 655c49 9 97 -24 106 -73c43 -227 37 -508 36 -520c-1 -50 -42 -89 -91 -89h-2c-51 1 -91 43 -89 93c0 4 6 275 -33 482c-10 49 23 97 73 107zM-117 809c3 42 39 74 82 71c1 0 179 -12 299 -4c42 3 78 -29 81 -72c3 -42 -30 -78 -72 -81c-33 -2 -69 -3 -105 -3
c-106 0 -208 7 -213 7c-43 3 -75 39 -72 82z" />
    <glyph glyph-name="iogonek" unicode="&#x12f;" horiz-adv-x="258" 
d="M249 -75c43 -30 22 -97 -30 -98h-1c-6 0 -14 0 -21 1l-7 6c-6 3 -12 6 -17 11c-5 1 -10 2 -16 2c-14 0 -31 -8 -43 -20c-4 -5 -14 -17 -13 -29c1 -31 21 -63 56 -63h2c12 1 24 -2 33 -9l18 -14c29 -24 19 -71 -18 -80c-11 -2 -23 -4 -35 -4c-88 0 -159 70 -163 160
c-2 42 14 82 44 114c19 20 43 35 68 44l-5 12c-4 10 -5 19 -3 28c-27 16 -45 46 -43 80c0 4 6 275 -33 482c-10 49 23 97 73 107c49 9 97 -24 106 -73c43 -227 37 -508 36 -520c-1 -28 -14 -53 -33 -68c8 -23 25 -47 41 -66z" />
    <glyph glyph-name="itilde" unicode="&#x129;" horiz-adv-x="258" 
d="M95 655c49 9 97 -24 106 -73c43 -227 37 -508 36 -520c-1 -50 -42 -89 -91 -89h-2c-51 1 -91 43 -89 93c0 4 6 275 -33 482c-10 49 23 97 73 107zM291 795c-13 -41 -39 -59 -59 -68c-14 -7 -29 -9 -44 -9c-37 0 -74 17 -108 32c-8 4 -19 9 -29 12
c-14 -23 -41 -36 -69 -32c-37 6 -62 41 -56 78c8 50 34 73 55 84c52 28 106 3 155 -19c10 -5 26 -11 37 -16c17 22 47 33 75 23c36 -11 55 -50 43 -85z" />
    <glyph glyph-name="jcircumflex" unicode="&#x135;" horiz-adv-x="510" 
d="M42 150c32 39 90 44 128 12c44 -36 84 -42 105 -32c40 19 -59 433 -32 524c47 163 263 66 218 -61c-20 -54 -2 -136 10 -214c11 -72 23 -147 16 -214c-12 -119 -79 -175 -133 -200c-31 -15 -65 -23 -100 -23c-67 0 -138 27 -200 79c-39 32 -45 90 -12 129zM198 816v0
c-24 27 -25 68 -1 96c23 28 49 63 61 97s47 54 82 47c35 7 70 -13 82 -47s38 -69 61 -97c24 -28 23 -69 -1 -96v0c-30 -33 -82 -33 -111 2c-10 12 -21 25 -31 40c-11 -15 -21 -28 -31 -40c-29 -35 -82 -35 -111 -2z" />
    <glyph glyph-name="kcommaaccent" unicode="&#x137;" horiz-adv-x="591" 
d="M325 631c16 48 68 74 116 58s74 -68 57 -116c-17 -52 -60 -120 -107 -186c3 -4 7 -9 10 -13c100 -157 157 -272 159 -276c23 -46 5 -100 -40 -123c-14 -7 -28 -10 -41 -10c-34 0 -66 19 -82 51c-1 2 -46 92 -125 219c-9 -12 -18 -22 -26 -31c-3 -81 -8 -137 -9 -142
c-1 -50 -41 -89 -91 -89h-2c-51 1 -91 43 -89 93v0c0 1 1 51 -1 124c-6 18 -7 38 -2 57c-3 91 -12 203 -30 301c-9 49 12 107 83 125c63 17 110 -35 120 -84c6 -33 10 -66 14 -100c41 56 75 109 86 142zM261 -327l24 43c9 17 1 37 -17 42c-32 9 -72 34 -69 105
c2 44 35 82 79 89c157 25 192 -232 -17 -279z" />
    <glyph glyph-name="lacute" unicode="&#x13a;" horiz-adv-x="558" 
d="M228 589c23 -124 5 -312 8 -424l201 22c50 5 95 -32 100 -82c6 -50 -31 -95 -81 -100l-301 -32h-9c-23 0 -44 8 -61 23c-19 17 -30 42 -31 68c0 3 -1 314 -32 484c-10 50 24 117 89 130c70 14 108 -40 117 -89zM33 769v0c-24 27 -25 68 -1 96c23 28 49 63 61 97
c13 38 55 58 93 45c38 -14 59 -56 45 -94c-18 -53 -55 -105 -87 -142c-29 -35 -81 -35 -111 -2z" />
    <glyph glyph-name="lcaron" unicode="&#x13e;" horiz-adv-x="558" 
d="M228 589c23 -124 5 -312 8 -424l201 22c50 5 95 -32 100 -82c6 -50 -31 -95 -81 -100l-301 -32h-9c-23 0 -44 8 -61 23c-19 17 -30 42 -31 68c0 3 -1 314 -32 484c-10 50 24 117 89 130c70 14 108 -40 117 -89zM55 793c-12 34 -38 69 -61 97c-24 28 -23 69 1 96
c29 33 82 33 111 -2c10 -12 20 -25 31 -40c10 15 21 28 31 40c29 35 81 35 111 2c24 -27 25 -68 1 -96c-23 -28 -49 -63 -61 -97s-47 -54 -82 -47c-35 -7 -70 13 -82 47z" />
    <glyph glyph-name="lcommaaccent" unicode="&#x13c;" horiz-adv-x="558" 
d="M228 589c23 -124 5 -312 8 -424l201 22c50 5 95 -32 100 -82c6 -50 -31 -95 -81 -100l-301 -32h-9c-23 0 -44 8 -61 23c-19 17 -30 42 -31 68c0 3 -1 314 -32 484c-10 50 24 117 89 130c70 14 108 -40 117 -89zM256 -335l24 43c9 17 1 37 -17 42c-32 9 -72 34 -69 105
c2 44 35 82 79 89c157 25 192 -232 -17 -279z" />
    <glyph glyph-name="nacute" unicode="&#x144;" horiz-adv-x="652" 
d="M400 612c11 82 61 111 128 110c66 -2 116 -85 101 -133c-93 -286 -31 -511 -30 -514c6 -50 -30 -96 -80 -102h-11c-41 0 -77 27 -88 66c-6 5 -11 11 -15 18c-7 10 -111 167 -200 304c5 -148 22 -284 22 -286c7 -50 -29 -96 -79 -102c-4 0 -8 -1 -12 -1
c-45 0 -84 34 -90 81c-2 14 -42 344 -18 559c6 51 51 87 101 81c4 0 7 -1 11 -2c38 9 80 -8 100 -44c18 -31 81 -130 149 -234c0 69 2 139 11 199zM226 790v0c-24 27 -25 68 -1 96c23 28 49 63 61 97c13 38 55 58 93 45c38 -14 59 -56 45 -94c-18 -53 -55 -105 -87 -142
c-29 -35 -81 -35 -111 -2z" />
    <glyph glyph-name="ncaron" unicode="&#x148;" horiz-adv-x="652" 
d="M400 612c11 82 61 111 128 110c66 -2 116 -85 101 -133c-93 -286 -31 -511 -30 -514c6 -50 -30 -96 -80 -102h-11c-41 0 -77 27 -88 66c-6 5 -11 11 -15 18c-7 10 -111 167 -200 304c5 -148 22 -284 22 -286c7 -50 -29 -96 -79 -102c-4 0 -8 -1 -12 -1
c-45 0 -84 34 -90 81c-2 14 -42 344 -18 559c6 51 51 87 101 81c4 0 7 -1 11 -2c38 9 80 -8 100 -44c18 -31 81 -130 149 -234c0 69 2 139 11 199zM237 817c-12 34 -38 69 -61 97c-24 28 -23 69 1 96c29 33 82 33 111 -2c10 -12 20 -25 31 -40c10 15 21 28 31 40
c29 35 81 35 111 2c24 -27 25 -68 1 -96c-23 -28 -49 -63 -61 -97s-47 -54 -82 -47c-35 -7 -70 13 -82 47z" />
    <glyph glyph-name="ncommaaccent" unicode="&#x146;" horiz-adv-x="652" 
d="M400 612c11 82 61 111 128 110c66 -2 116 -85 101 -133c-93 -286 -31 -511 -30 -514c6 -50 -30 -96 -80 -102h-11c-41 0 -77 27 -88 66c-6 5 -11 11 -15 18c-7 10 -111 167 -200 304c5 -148 22 -284 22 -286c7 -50 -29 -96 -79 -102c-4 0 -8 -1 -12 -1
c-45 0 -84 34 -90 81c-2 14 -42 344 -18 559c6 51 51 87 101 81c4 0 7 -1 11 -2c38 9 80 -8 100 -44c18 -31 81 -130 149 -234c0 69 2 139 11 199zM284 -331l24 43c9 17 1 37 -17 42c-32 9 -72 34 -69 105c2 44 35 82 79 89c157 25 192 -232 -17 -279z" />
    <glyph glyph-name="ntilde" unicode="&#xf1;" horiz-adv-x="652" 
d="M400 612c11 82 61 111 128 110c66 -2 116 -85 101 -133c-93 -286 -31 -511 -30 -514c6 -50 -30 -96 -80 -102h-11c-41 0 -77 27 -88 66c-6 5 -11 11 -15 18c-7 10 -111 167 -200 304c5 -148 22 -284 22 -286c7 -50 -29 -96 -79 -102c-4 0 -8 -1 -12 -1
c-45 0 -84 34 -90 81c-2 14 -42 344 -18 559c6 51 51 87 101 81c4 0 7 -1 11 -2c38 9 80 -8 100 -44c18 -31 81 -130 149 -234c0 69 2 139 11 199zM498 844c-13 -41 -39 -59 -59 -68c-14 -7 -29 -9 -44 -9c-37 0 -74 17 -108 32c-8 4 -19 9 -29 12c-14 -23 -41 -36 -69 -32
c-37 6 -62 41 -56 78c8 50 34 73 55 84c52 28 106 3 155 -19c10 -5 26 -11 37 -16c17 22 47 33 75 23c36 -11 55 -50 43 -85z" />
    <glyph glyph-name="oacute" unicode="&#xf3;" 
d="M33 391c28 110 102 241 298 241c135 0 265 -91 316 -221c47 -120 18 -245 -78 -335c-1 -1 -2 -2 -4 -3c-62 -52 -143 -79 -224 -79c-65 0 -130 17 -185 52c-114 72 -160 201 -123 345zM408 268c39 38 20 188 -92 188c-107 0 -98 -174 -62 -197c45 -28 112 -24 154 9z
M230 724v0c-24 27 -25 68 -1 96c23 28 49 63 61 97c13 38 55 58 93 45c38 -14 59 -56 45 -94c-18 -53 -55 -105 -87 -142c-29 -35 -81 -35 -111 -2z" />
    <glyph glyph-name="ocircumflex" unicode="&#xf4;" 
d="M33 391c28 110 102 241 298 241c135 0 265 -91 316 -221c47 -120 18 -245 -78 -335c-1 -1 -2 -2 -4 -3c-62 -52 -143 -79 -224 -79c-65 0 -130 17 -185 52c-114 72 -160 201 -123 345zM408 268c39 38 20 188 -92 188c-107 0 -98 -174 -62 -197c45 -28 112 -24 154 9z
M181 725v0c-24 27 -25 68 -1 96c23 28 49 63 61 97s47 54 82 47c35 7 70 -13 82 -47s38 -69 61 -97c24 -28 23 -69 -1 -96v0c-30 -33 -82 -33 -111 2c-10 12 -21 25 -31 40c-11 -15 -21 -28 -31 -40c-29 -35 -82 -35 -111 -2z" />
    <glyph glyph-name="odieresis" unicode="&#xf6;" 
d="M33 391c28 110 102 241 298 241c135 0 265 -91 316 -221c47 -120 18 -245 -78 -335c-1 -1 -2 -2 -4 -3c-62 -52 -143 -79 -224 -79c-65 0 -130 17 -185 52c-114 72 -160 201 -123 345zM408 268c39 38 20 188 -92 188c-107 0 -98 -174 -62 -197c45 -28 112 -24 154 9z
M196 926c60 0 110 -48 113 -110v0c1 -29 -10 -57 -31 -79c-22 -23 -52 -36 -82 -36c-61 0 -110 48 -113 110c-1 29 10 57 31 79c22 23 51 36 82 36zM440 926c60 0 110 -48 113 -110v0c1 -29 -10 -57 -31 -79c-22 -23 -52 -36 -82 -36c-60 0 -110 48 -113 110
c-1 29 10 57 31 79c22 23 52 36 82 36z" />
    <glyph glyph-name="ograve" unicode="&#xf2;" 
d="M33 391c28 110 102 241 298 241c135 0 265 -91 316 -221c47 -120 18 -245 -78 -335c-1 -1 -2 -2 -4 -3c-62 -52 -143 -79 -224 -79c-65 0 -130 17 -185 52c-114 72 -160 201 -123 345zM408 268c39 38 20 188 -92 188c-107 0 -98 -174 -62 -197c45 -28 112 -24 154 9z
M353 917c11 -34 38 -69 61 -97s23 -69 -1 -96v0c-30 -33 -82 -33 -111 2c-32 37 -69 89 -87 142c-14 38 6 80 45 94c38 13 79 -7 93 -45z" />
    <glyph glyph-name="ohungarumlaut" unicode="&#x151;" 
d="M33 391c28 110 102 241 298 241c135 0 265 -91 316 -221c47 -120 18 -245 -78 -335c-1 -1 -2 -2 -4 -3c-62 -52 -143 -79 -224 -79c-65 0 -130 17 -185 52c-114 72 -160 201 -123 345zM408 268c39 38 20 188 -92 188c-107 0 -98 -174 -62 -197c45 -28 112 -24 154 9z
M340 725c-24 27 -25 68 -1 96c23 28 49 63 61 97c13 38 55 58 93 45c38 -14 59 -56 45 -94c-18 -53 -55 -105 -87 -142c-29 -35 -81 -35 -111 -2zM136 725c-24 27 -25 68 -1 96c23 28 49 63 61 97c13 38 55 58 93 45c38 -14 59 -56 45 -94c-18 -53 -55 -105 -87 -142
c-29 -35 -81 -35 -111 -2z" />
    <glyph glyph-name="omacron" unicode="&#x14d;" 
d="M33 391c28 110 102 241 298 241c135 0 265 -91 316 -221c47 -120 18 -245 -78 -335c-1 -1 -2 -2 -4 -3c-62 -52 -143 -79 -224 -79c-65 0 -130 17 -185 52c-114 72 -160 201 -123 345zM408 268c39 38 20 188 -92 188c-107 0 -98 -174 -62 -197c45 -28 112 -24 154 9z
M94 792c3 42 39 74 82 71c1 0 179 -12 299 -4c42 3 78 -29 81 -72c3 -42 -30 -78 -72 -81c-33 -2 -69 -3 -105 -3c-106 0 -208 7 -213 7c-43 3 -75 39 -72 82z" />
    <glyph glyph-name="oslashacute" unicode="&#x1ff;" 
d="M230 724c-24 27 -25 68 -1 96c23 28 49 63 61 97c13 38 55 58 93 45c38 -14 59 -56 45 -94c-18 -53 -55 -105 -87 -142c-29 -35 -81 -35 -111 -2zM573 472c57 -128 37 -271 -53 -371c-1 -2 -2 -3 -3 -4c-57 -57 -132 -86 -208 -86c-42 0 -82 9 -121 27
c-22 -37 -35 -60 -37 -63c-41 -60 -130 -18 -78 58c0 0 13 23 35 60c-27 27 -49 59 -63 96c-27 67 -32 144 -15 228c44 207 172 251 271 251c30 0 59 -6 88 -16c6 15 12 29 16 43c46 128 166 82 132 -7c-12 -29 -27 -63 -45 -101c33 -31 61 -70 81 -115zM212 406
c-9 -45 -6 -83 8 -112c34 65 70 135 103 206c-8 1 -15 3 -22 3c-27 0 -68 0 -89 -97zM380 268c49 55 34 118 23 146c-32 -59 -66 -119 -98 -176c27 -1 54 10 75 30z" />
    <glyph glyph-name="otilde" unicode="&#xf5;" 
d="M33 391c28 110 102 241 298 241c135 0 265 -91 316 -221c47 -120 18 -245 -78 -335c-1 -1 -2 -2 -4 -3c-62 -52 -143 -79 -224 -79c-65 0 -130 17 -185 52c-114 72 -160 201 -123 345zM408 268c39 38 20 188 -92 188c-107 0 -98 -174 -62 -197c45 -28 112 -24 154 9z
M502 778c-13 -41 -39 -59 -59 -68c-14 -7 -29 -9 -44 -9c-37 0 -74 17 -108 32c-8 4 -19 9 -29 12c-14 -23 -41 -36 -69 -32c-37 6 -62 41 -56 78c8 50 34 73 55 84c52 28 106 3 155 -19c10 -5 26 -11 37 -16c17 22 47 33 75 23c36 -11 55 -50 43 -85z" />
    <glyph glyph-name="racute" unicode="&#x155;" horiz-adv-x="554" 
d="M464 340c-12 -19 -28 -35 -47 -51c67 -112 105 -187 107 -191c23 -46 5 -100 -41 -123c-13 -7 -27 -10 -40 -10c-34 0 -66 19 -82 51c-1 2 -42 83 -113 199c-4 -2 -9 -3 -13 -4c2 -53 2 -90 2 -93c0 -51 -40 -92 -91 -92v0c-51 0 -91 41 -92 91c0 1 -20 327 -32 394
c-9 46 18 90 61 104c5 2 46 14 99 21c81 11 149 2 201 -25c50 -26 85 -68 101 -122c16 -52 9 -105 -20 -149zM273 415c21 10 32 19 36 23c-2 5 -5 8 -10 10c-19 10 -51 11 -84 8c3 -20 5 -40 7 -59c6 1 11 3 16 5v0c11 7 23 11 35 13zM139 720v0c-24 27 -25 68 -1 96
c23 28 49 63 61 97c13 38 55 58 93 45c38 -14 59 -56 45 -94c-18 -53 -55 -105 -87 -142c-29 -35 -81 -35 -111 -2z" />
    <glyph glyph-name="rcaron" unicode="&#x159;" horiz-adv-x="554" 
d="M464 340c-12 -19 -28 -35 -47 -51c67 -112 105 -187 107 -191c23 -46 5 -100 -41 -123c-13 -7 -27 -10 -40 -10c-34 0 -66 19 -82 51c-1 2 -42 83 -113 199c-4 -2 -9 -3 -13 -4c2 -53 2 -90 2 -93c0 -51 -40 -92 -91 -92v0c-51 0 -91 41 -92 91c0 1 -20 327 -32 394
c-9 46 18 90 61 104c5 2 46 14 99 21c81 11 149 2 201 -25c50 -26 85 -68 101 -122c16 -52 9 -105 -20 -149zM273 415c21 10 32 19 36 23c-2 5 -5 8 -10 10c-19 10 -51 11 -84 8c3 -20 5 -40 7 -59c6 1 11 3 16 5v0c11 7 23 11 35 13zM150 747c-12 34 -38 69 -61 97
c-24 28 -23 69 1 96c29 33 82 33 111 -2c10 -12 20 -25 31 -40c10 15 21 28 31 40c29 35 81 35 111 2c24 -27 25 -68 1 -96c-23 -28 -49 -63 -61 -97s-47 -54 -82 -47c-35 -7 -70 13 -82 47z" />
    <glyph glyph-name="rcommaaccent" unicode="&#x157;" horiz-adv-x="554" 
d="M464 340c-12 -19 -28 -35 -47 -51c67 -112 105 -187 107 -191c23 -46 5 -100 -41 -123c-13 -7 -27 -10 -40 -10c-34 0 -66 19 -82 51c-1 2 -42 83 -113 199c-4 -2 -9 -3 -13 -4c2 -53 2 -90 2 -93c0 -51 -40 -92 -91 -92v0c-51 0 -91 41 -92 91c0 1 -20 327 -32 394
c-9 46 18 90 61 104c5 2 46 14 99 21c81 11 149 2 201 -25c50 -26 85 -68 101 -122c16 -52 9 -105 -20 -149zM273 415c21 10 32 19 36 23c-2 5 -5 8 -10 10c-19 10 -51 11 -84 8c3 -20 5 -40 7 -59c6 1 11 3 16 5v0c11 7 23 11 35 13zM245 -339l24 43c9 17 1 37 -17 42
c-32 9 -72 34 -69 105c2 44 35 82 79 89c157 25 192 -232 -17 -279z" />
    <glyph glyph-name="sacute" unicode="&#x15b;" horiz-adv-x="557" 
d="M138 280c-60 50 -83 119 -68 199c10 56 41 100 89 129c111 66 281 18 314 7c48 -15 75 -66 59 -114c-15 -49 -66 -75 -114 -60c-1 0 -42 13 -88 17c-54 5 -76 -5 -79 -8c0 0 -1 -2 -1 -5c-4 -17 -1 -19 5 -24c17 -14 53 -27 85 -39c42 -15 85 -30 121 -57
c56 -41 80 -100 70 -167c-8 -53 -35 -96 -79 -125c-40 -26 -93 -39 -159 -39c-58 0 -126 10 -204 31c-49 13 -78 63 -65 112c13 48 63 77 112 65c43 -12 79 -19 109 -22c24 -3 33 31 10 40c-45 20 -96 42 -117 60zM219 720v0c-24 27 -25 68 -1 96c23 28 49 63 61 97
c13 38 55 58 93 45c38 -14 59 -56 45 -94c-18 -53 -55 -105 -87 -142c-29 -35 -81 -35 -111 -2z" />
    <glyph glyph-name="scaron" unicode="&#x161;" horiz-adv-x="557" 
d="M138 280c-60 50 -83 119 -68 199c10 56 41 100 89 129c111 66 281 18 314 7c48 -15 75 -66 59 -114c-15 -49 -66 -75 -114 -60c-1 0 -42 13 -88 17c-54 5 -76 -5 -79 -8c0 0 -1 -2 -1 -5c-4 -17 -1 -19 5 -24c17 -14 53 -27 85 -39c42 -15 85 -30 121 -57
c56 -41 80 -100 70 -167c-8 -53 -35 -96 -79 -125c-40 -26 -93 -39 -159 -39c-58 0 -126 10 -204 31c-49 13 -78 63 -65 112c13 48 63 77 112 65c43 -12 79 -19 109 -22c24 -3 33 31 10 40c-45 20 -96 42 -117 60zM230 747c-12 34 -38 69 -61 97c-24 28 -23 69 1 96
c29 33 82 33 111 -2c10 -12 20 -25 31 -40c10 15 21 28 31 40c29 35 81 35 111 2c24 -27 25 -68 1 -96c-23 -28 -49 -63 -61 -97s-47 -54 -82 -47c-35 -7 -70 13 -82 47z" />
    <glyph glyph-name="scedilla" unicode="&#x15f;" horiz-adv-x="557" 
d="M390 -278c-53 -72 -152 -91 -224 -42c-10 7 -19 14 -27 23c-26 28 -8 73 29 76c9 0 16 1 23 1c12 1 23 -3 32 -10c1 0 2 -1 2 -1c29 -19 64 -4 82 21c7 10 5 25 4 31c-3 17 -12 33 -23 41l-14 7c-22 -12 -50 -9 -67 11c-18 21 -18 51 -1 72c11 13 23 29 33 45
c-45 3 -95 13 -150 28c-49 13 -78 63 -65 112c13 48 63 77 112 65c43 -12 79 -19 109 -22c24 -3 33 31 10 40c-45 20 -96 42 -117 60c-60 50 -83 119 -68 199c10 56 41 100 89 129c111 66 281 18 314 7c48 -15 75 -66 59 -114c-15 -49 -66 -75 -114 -60c-1 0 -42 13 -88 17
c-54 5 -76 -5 -79 -8c0 0 -1 -2 -1 -5c-4 -17 -1 -19 5 -24c17 -14 53 -27 85 -39c42 -15 85 -30 121 -57c56 -41 80 -100 70 -167c-8 -53 -35 -96 -79 -125c-26 -17 -58 -29 -94 -34l-3 -11c-4 -11 -9 -22 -15 -33c3 -1 5 -3 7 -4c37 -25 62 -64 70 -109
c7 -44 -2 -86 -27 -120z" />
    <glyph glyph-name="scircumflex" unicode="&#x15d;" horiz-adv-x="557" 
d="M138 280c-60 50 -83 119 -68 199c10 56 41 100 89 129c111 66 281 18 314 7c48 -15 75 -66 59 -114c-15 -49 -66 -75 -114 -60c-1 0 -42 13 -88 17c-54 5 -76 -5 -79 -8c0 0 -1 -2 -1 -5c-4 -17 -1 -19 5 -24c17 -14 53 -27 85 -39c42 -15 85 -30 121 -57
c56 -41 80 -100 70 -167c-8 -53 -35 -96 -79 -125c-40 -26 -93 -39 -159 -39c-58 0 -126 10 -204 31c-49 13 -78 63 -65 112c13 48 63 77 112 65c43 -12 79 -19 109 -22c24 -3 33 31 10 40c-45 20 -96 42 -117 60zM170 721v0c-24 27 -25 68 -1 96c23 28 49 63 61 97
s47 54 82 47c35 7 70 -13 82 -47s38 -69 61 -97c24 -28 23 -69 -1 -96v0c-30 -33 -82 -33 -111 2c-10 12 -21 25 -31 40c-11 -15 -21 -28 -31 -40c-29 -35 -82 -35 -111 -2z" />
    <glyph glyph-name="scommaaccent" unicode="&#x219;" horiz-adv-x="557" 
d="M138 280c-60 50 -83 119 -68 199c10 56 41 100 89 129c111 66 281 18 314 7c48 -15 75 -66 59 -114c-15 -49 -66 -75 -114 -60c-1 0 -42 13 -88 17c-54 5 -76 -5 -79 -8c0 0 -1 -2 -1 -5c-4 -17 -1 -19 5 -24c17 -14 53 -27 85 -39c42 -15 85 -30 121 -57
c56 -41 80 -100 70 -167c-8 -53 -35 -96 -79 -125c-40 -26 -93 -39 -159 -39c-58 0 -126 10 -204 31c-49 13 -78 63 -65 112c13 48 63 77 112 65c43 -12 79 -19 109 -22c24 -3 33 31 10 40c-45 20 -96 42 -117 60zM256 -339l24 43c9 17 1 37 -17 42c-32 9 -72 34 -69 105
c2 44 35 82 79 89c157 25 192 -232 -17 -279z" />
    <glyph glyph-name="tcaron" unicode="&#x165;" horiz-adv-x="577" 
d="M263 652c3 1 7 2 10 3c8 1 17 2 25 1c44 5 94 12 151 23c49 9 97 -24 106 -73c10 -50 -23 -98 -73 -107c-25 -5 -48 -9 -71 -12c22 -204 5 -415 4 -425c-1 -50 -42 -89 -91 -89h-2c-51 1 -91 43 -89 93v0c0 3 -12 208 -41 398c-23 -1 -41 -1 -55 -1h-29
c-51 3 -90 46 -87 96c3 51 46 89 96 87c2 0 55 -2 146 6zM205 766c-12 34 -38 69 -61 97c-24 28 -23 69 1 96c29 33 82 33 111 -2c10 -12 20 -25 31 -40c10 15 21 28 31 40c29 35 81 35 111 2c24 -27 25 -68 1 -96c-23 -28 -49 -63 -61 -97s-47 -54 -82 -47
c-35 -7 -70 13 -82 47z" />
    <glyph glyph-name="tcommaaccent" unicode="&#x163;" horiz-adv-x="577" 
d="M263 652c3 1 7 2 10 3c8 1 17 2 25 1c44 5 94 12 151 23c49 9 97 -24 106 -73c10 -50 -23 -98 -73 -107c-25 -5 -48 -9 -71 -12c22 -204 5 -415 4 -425c-1 -50 -42 -89 -91 -89h-2c-51 1 -91 43 -89 93v0c0 3 -12 208 -41 398c-23 -1 -41 -1 -55 -1h-29
c-51 3 -90 46 -87 96c3 51 46 89 96 87c2 0 55 -2 146 6zM301 -345l24 43c9 17 1 37 -17 42c-32 9 -72 34 -69 105c2 44 35 82 79 89c157 25 192 -232 -17 -279z" />
    <glyph glyph-name="uacute" unicode="&#xfa;" horiz-adv-x="559" 
d="M29 576c10 85 56 129 141 119c65 -8 111 -64 94 -142c-23 -103 -46 -209 -38 -314c1 -20 -2 -84 62 -84c19 0 34 6 45 18c17 17 25 48 23 82c-7 105 -12 208 1 321c5 50 51 86 101 80c50 -5 86 -51 80 -101c-11 -97 -6 -192 0 -288c6 -84 -20 -164 -71 -219
c-46 -49 -109 -75 -179 -75c-141 0 -247 105 -258 256c-8 110 -16 227 -1 347zM207 757v0c-24 27 -25 68 -1 96c23 28 49 63 61 97c13 38 55 58 93 45c38 -14 59 -56 45 -94c-18 -53 -55 -105 -87 -142c-29 -35 -81 -35 -111 -2z" />
    <glyph glyph-name="ucircumflex" unicode="&#xfb;" horiz-adv-x="559" 
d="M29 576c10 85 56 129 141 119c65 -8 111 -64 94 -142c-23 -103 -46 -209 -38 -314c1 -20 -2 -84 62 -84c19 0 34 6 45 18c17 17 25 48 23 82c-7 105 -12 208 1 321c5 50 51 86 101 80c50 -5 86 -51 80 -101c-11 -97 -6 -192 0 -288c6 -84 -20 -164 -71 -219
c-46 -49 -109 -75 -179 -75c-141 0 -247 105 -258 256c-8 110 -16 227 -1 347zM158 758v0c-24 27 -25 68 -1 96c23 28 49 63 61 97s47 54 82 47c35 7 70 -13 82 -47s38 -69 61 -97c24 -28 23 -69 -1 -96v0c-30 -33 -82 -33 -111 2c-10 12 -21 25 -31 40
c-11 -15 -21 -28 -31 -40c-29 -35 -82 -35 -111 -2z" />
    <glyph glyph-name="udieresis" unicode="&#xfc;" horiz-adv-x="559" 
d="M29 576c10 85 56 129 141 119c65 -8 111 -64 94 -142c-23 -103 -46 -209 -38 -314c1 -20 -2 -84 62 -84c19 0 34 6 45 18c17 17 25 48 23 82c-7 105 -12 208 1 321c5 50 51 86 101 80c50 -5 86 -51 80 -101c-11 -97 -6 -192 0 -288c6 -84 -20 -164 -71 -219
c-46 -49 -109 -75 -179 -75c-141 0 -247 105 -258 256c-8 110 -16 227 -1 347zM173 959c60 0 110 -48 113 -110v0c1 -29 -10 -57 -31 -79c-22 -23 -52 -36 -82 -36c-61 0 -110 48 -113 110c-1 29 10 57 31 79c22 23 51 36 82 36zM417 959c60 0 110 -48 113 -110v0
c1 -29 -10 -57 -31 -79c-22 -23 -52 -36 -82 -36c-60 0 -110 48 -113 110c-1 29 10 57 31 79c22 23 52 36 82 36z" />
    <glyph glyph-name="uhungarumlaut" unicode="&#x171;" horiz-adv-x="559" 
d="M29 576c10 85 56 129 141 119c65 -8 111 -64 94 -142c-23 -103 -46 -209 -38 -314c1 -20 -2 -84 62 -84c19 0 34 6 45 18c17 17 25 48 23 82c-7 105 -12 208 1 321c5 50 51 86 101 80c50 -5 86 -51 80 -101c-11 -97 -6 -192 0 -288c6 -84 -20 -164 -71 -219
c-46 -49 -109 -75 -179 -75c-141 0 -247 105 -258 256c-8 110 -16 227 -1 347zM317 758c-24 27 -25 68 -1 96c23 28 49 63 61 97c13 38 55 58 93 45c38 -14 59 -56 45 -94c-18 -53 -55 -105 -87 -142c-29 -35 -81 -35 -111 -2zM113 758c-24 27 -25 68 -1 96
c23 28 49 63 61 97c13 38 55 58 93 45c38 -14 59 -56 45 -94c-18 -53 -55 -105 -87 -142c-29 -35 -81 -35 -111 -2z" />
    <glyph glyph-name="ugrave" unicode="&#xf9;" horiz-adv-x="559" 
d="M29 576c10 85 56 129 141 119c65 -8 111 -64 94 -142c-23 -103 -46 -209 -38 -314c1 -20 -2 -84 62 -84c19 0 34 6 45 18c17 17 25 48 23 82c-7 105 -12 208 1 321c5 50 51 86 101 80c50 -5 86 -51 80 -101c-11 -97 -6 -192 0 -288c6 -84 -20 -164 -71 -219
c-46 -49 -109 -75 -179 -75c-141 0 -247 105 -258 256c-8 110 -16 227 -1 347zM330 950c11 -34 38 -69 61 -97s23 -69 -1 -96v0c-30 -33 -82 -33 -111 2c-32 37 -69 89 -87 142c-14 38 6 80 45 94c38 13 79 -7 93 -45z" />
    <glyph glyph-name="umacron" unicode="&#x16b;" horiz-adv-x="559" 
d="M29 576c10 85 56 129 141 119c65 -8 111 -64 94 -142c-23 -103 -46 -209 -38 -314c1 -20 -2 -84 62 -84c19 0 34 6 45 18c17 17 25 48 23 82c-7 105 -12 208 1 321c5 50 51 86 101 80c50 -5 86 -51 80 -101c-11 -97 -6 -192 0 -288c6 -84 -20 -164 -71 -219
c-46 -49 -109 -75 -179 -75c-141 0 -247 105 -258 256c-8 110 -16 227 -1 347zM71 825c3 42 39 74 82 71c1 0 179 -12 299 -4c42 3 78 -29 81 -72c3 -42 -30 -78 -72 -81c-33 -2 -69 -3 -105 -3c-106 0 -208 7 -213 7c-43 3 -75 39 -72 82z" />
    <glyph glyph-name="uogonek" unicode="&#x173;" horiz-adv-x="559" 
d="M378 -76c43 -30 22 -97 -30 -98h-1c-6 0 -14 0 -21 1l-7 6c-6 3 -12 6 -17 11c-5 1 -10 2 -16 2c-14 0 -31 -8 -43 -20c-4 -5 -14 -17 -13 -29c1 -31 21 -63 56 -63h2c12 1 24 -2 33 -9l18 -14c29 -24 19 -71 -18 -80c-11 -2 -23 -4 -35 -4c-88 0 -159 70 -163 160
c-2 42 14 82 44 114c19 20 43 35 68 44l-5 12c-3 8 -4 16 -3 23c-110 25 -188 120 -197 249c-8 110 -16 227 -1 347c10 85 56 129 141 119c65 -8 111 -64 94 -142c-23 -103 -46 -209 -38 -314c1 -20 -2 -84 62 -84c19 0 34 6 45 18c17 17 25 48 23 82c-7 105 -12 208 1 321
c5 50 51 86 101 80c50 -5 86 -51 80 -101c-11 -97 -6 -192 0 -288c6 -84 -20 -164 -71 -219c-35 -37 -79 -60 -128 -70c9 -18 22 -36 35 -51z" />
    <glyph glyph-name="uring" unicode="&#x16f;" horiz-adv-x="559" 
d="M29 576c10 85 56 129 141 119c65 -8 111 -64 94 -142c-23 -103 -46 -209 -38 -314c1 -20 -2 -84 62 -84c19 0 34 6 45 18c17 17 25 48 23 82c-7 105 -12 208 1 321c5 50 51 86 101 80c50 -5 86 -51 80 -101c-11 -97 -6 -192 0 -288c6 -84 -20 -164 -71 -219
c-46 -49 -109 -75 -179 -75c-141 0 -247 105 -258 256c-8 110 -16 227 -1 347zM406 782c-29 -30 -68 -48 -108 -48c-79 0 -144 64 -148 146c-2 38 13 75 40 103c29 30 68 48 108 48c79 0 144 -64 148 -146v0c2 -38 -13 -75 -40 -103zM258 887c1 -21 15 -44 40 -44
c10 0 22 5 30 14c3 3 10 12 10 21c-1 21 -15 44 -40 44c-10 0 -22 -5 -30 -14c-3 -4 -10 -12 -10 -21z" />
    <glyph glyph-name="utilde" unicode="&#x169;" horiz-adv-x="559" 
d="M29 576c10 85 56 129 141 119c65 -8 111 -64 94 -142c-23 -103 -46 -209 -38 -314c1 -20 -2 -84 62 -84c19 0 34 6 45 18c17 17 25 48 23 82c-7 105 -12 208 1 321c5 50 51 86 101 80c50 -5 86 -51 80 -101c-11 -97 -6 -192 0 -288c6 -84 -20 -164 -71 -219
c-46 -49 -109 -75 -179 -75c-141 0 -247 105 -258 256c-8 110 -16 227 -1 347zM479 811c-13 -41 -39 -59 -59 -68c-14 -7 -29 -9 -44 -9c-37 0 -74 17 -108 32c-8 4 -19 9 -29 12c-14 -23 -41 -36 -69 -32c-37 6 -62 41 -56 78c8 50 34 73 55 84c52 28 106 3 155 -19
c10 -5 26 -11 37 -16c17 22 47 33 75 23c36 -11 55 -50 43 -85z" />
    <glyph glyph-name="wacute" unicode="&#x1e83;" horiz-adv-x="902" 
d="M481 705c49 -11 97 -55 78 -135c-3 -15 -7 -31 -13 -48c14 -50 30 -106 45 -160c24 70 48 156 68 260c16 82 90 93 140 83c49 -11 97 -55 78 -135c-43 -184 -211 -485 -217 -498c-15 -35 -48 -56 -84 -56h-5h-5c-41 0 -77 27 -89 67c0 2 -20 73 -45 164
c-46 -95 -86 -169 -89 -175c-15 -35 -49 -56 -84 -56h-6h-5c-40 0 -77 27 -88 67c-1 4 -99 360 -136 495c-13 49 15 99 64 112c49 14 99 -15 112 -64c17 -60 46 -166 73 -264c23 66 46 146 65 242c1 13 4 26 9 37c23 65 89 73 134 64zM360 787v0c-24 27 -25 68 -1 96
c23 28 49 63 61 97c13 38 55 58 93 45c38 -14 59 -56 45 -94c-18 -53 -55 -105 -87 -142c-29 -35 -81 -35 -111 -2z" />
    <glyph glyph-name="wcircumflex" unicode="&#x175;" horiz-adv-x="902" 
d="M481 705c49 -11 97 -55 78 -135c-3 -15 -7 -31 -13 -48c14 -50 30 -106 45 -160c24 70 48 156 68 260c16 82 90 93 140 83c49 -11 97 -55 78 -135c-43 -184 -211 -485 -217 -498c-15 -35 -48 -56 -84 -56h-5h-5c-41 0 -77 27 -89 67c0 2 -20 73 -45 164
c-46 -95 -86 -169 -89 -175c-15 -35 -49 -56 -84 -56h-6h-5c-40 0 -77 27 -88 67c-1 4 -99 360 -136 495c-13 49 15 99 64 112c49 14 99 -15 112 -64c17 -60 46 -166 73 -264c23 66 46 146 65 242c1 13 4 26 9 37c23 65 89 73 134 64zM311 788v0c-24 27 -25 68 -1 96
c23 28 49 63 61 97s47 54 82 47c35 7 70 -13 82 -47s38 -69 61 -97c24 -28 23 -69 -1 -96v0c-30 -33 -82 -33 -111 2c-10 12 -21 25 -31 40c-11 -15 -21 -28 -31 -40c-29 -35 -82 -35 -111 -2z" />
    <glyph glyph-name="wdieresis" unicode="&#x1e85;" horiz-adv-x="902" 
d="M481 705c49 -11 97 -55 78 -135c-3 -15 -7 -31 -13 -48c14 -50 30 -106 45 -160c24 70 48 156 68 260c16 82 90 93 140 83c49 -11 97 -55 78 -135c-43 -184 -211 -485 -217 -498c-15 -35 -48 -56 -84 -56h-5h-5c-41 0 -77 27 -89 67c0 2 -20 73 -45 164
c-46 -95 -86 -169 -89 -175c-15 -35 -49 -56 -84 -56h-6h-5c-40 0 -77 27 -88 67c-1 4 -99 360 -136 495c-13 49 15 99 64 112c49 14 99 -15 112 -64c17 -60 46 -166 73 -264c23 66 46 146 65 242c1 13 4 26 9 37c23 65 89 73 134 64zM326 989c60 0 110 -48 113 -110v0
c1 -29 -10 -57 -31 -79c-22 -23 -52 -36 -82 -36c-61 0 -110 48 -113 110c-1 29 10 57 31 79c22 23 51 36 82 36zM570 989c60 0 110 -48 113 -110v0c1 -29 -10 -57 -31 -79c-22 -23 -52 -36 -82 -36c-60 0 -110 48 -113 110c-1 29 10 57 31 79c22 23 52 36 82 36z" />
    <glyph glyph-name="wgrave" unicode="&#x1e81;" horiz-adv-x="902" 
d="M481 705c49 -11 97 -55 78 -135c-3 -15 -7 -31 -13 -48c14 -50 30 -106 45 -160c24 70 48 156 68 260c16 82 90 93 140 83c49 -11 97 -55 78 -135c-43 -184 -211 -485 -217 -498c-15 -35 -48 -56 -84 -56h-5h-5c-41 0 -77 27 -89 67c0 2 -20 73 -45 164
c-46 -95 -86 -169 -89 -175c-15 -35 -49 -56 -84 -56h-6h-5c-40 0 -77 27 -88 67c-1 4 -99 360 -136 495c-13 49 15 99 64 112c49 14 99 -15 112 -64c17 -60 46 -166 73 -264c23 66 46 146 65 242c1 13 4 26 9 37c23 65 89 73 134 64zM483 980c11 -34 38 -69 61 -97
s23 -69 -1 -96v0c-30 -33 -82 -33 -111 2c-32 37 -69 89 -87 142c-14 38 6 80 45 94c38 13 79 -7 93 -45z" />
    <glyph glyph-name="yacute" unicode="&#xfd;" horiz-adv-x="540" 
d="M471 679c45 -23 62 -79 38 -123c-152 -286 -220 -568 -221 -571c-10 -42 -48 -70 -89 -70c-7 0 -14 1 -21 2c-49 12 -80 61 -68 110c2 7 25 103 74 241c-2 7 -3 15 -2 23c-1 7 -28 81 -141 253c-42 63 -13 124 26 156s130 36 159 -60c19 -58 35 -106 49 -146
c22 48 46 98 72 148c24 44 79 61 124 37zM207 804v0c-24 27 -25 68 -1 96c23 28 49 63 61 97c13 38 55 58 93 45c38 -14 59 -56 45 -94c-18 -53 -55 -105 -87 -142c-29 -35 -81 -35 -111 -2z" />
    <glyph glyph-name="ycircumflex" unicode="&#x177;" horiz-adv-x="540" 
d="M471 679c45 -23 62 -79 38 -123c-152 -286 -220 -568 -221 -571c-10 -42 -48 -70 -89 -70c-7 0 -14 1 -21 2c-49 12 -80 61 -68 110c2 7 25 103 74 241c-2 7 -3 15 -2 23c-1 7 -28 81 -141 253c-42 63 -13 124 26 156s130 36 159 -60c19 -58 35 -106 49 -146
c22 48 46 98 72 148c24 44 79 61 124 37zM158 805v0c-24 27 -25 68 -1 96c23 28 49 63 61 97s47 54 82 47c35 7 70 -13 82 -47s38 -69 61 -97c24 -28 23 -69 -1 -96v0c-30 -33 -82 -33 -111 2c-10 12 -21 25 -31 40c-11 -15 -21 -28 -31 -40c-29 -35 -82 -35 -111 -2z" />
    <glyph glyph-name="ydieresis" unicode="&#xff;" horiz-adv-x="540" 
d="M471 679c45 -23 62 -79 38 -123c-152 -286 -220 -568 -221 -571c-10 -42 -48 -70 -89 -70c-7 0 -14 1 -21 2c-49 12 -80 61 -68 110c2 7 25 103 74 241c-2 7 -3 15 -2 23c-1 7 -28 81 -141 253c-42 63 -13 124 26 156s130 36 159 -60c19 -58 35 -106 49 -146
c22 48 46 98 72 148c24 44 79 61 124 37zM173 1006c60 0 110 -48 113 -110v0c1 -29 -10 -57 -31 -79c-22 -23 -52 -36 -82 -36c-61 0 -110 48 -113 110c-1 29 10 57 31 79c22 23 51 36 82 36zM417 1006c60 0 110 -48 113 -110v0c1 -29 -10 -57 -31 -79
c-22 -23 -52 -36 -82 -36c-60 0 -110 48 -113 110c-1 29 10 57 31 79c22 23 52 36 82 36z" />
    <glyph glyph-name="ygrave" unicode="&#x1ef3;" horiz-adv-x="540" 
d="M471 679c45 -23 62 -79 38 -123c-152 -286 -220 -568 -221 -571c-10 -42 -48 -70 -89 -70c-7 0 -14 1 -21 2c-49 12 -80 61 -68 110c2 7 25 103 74 241c-2 7 -3 15 -2 23c-1 7 -28 81 -141 253c-42 63 -13 124 26 156s130 36 159 -60c19 -58 35 -106 49 -146
c22 48 46 98 72 148c24 44 79 61 124 37zM330 997c11 -34 38 -69 61 -97s23 -69 -1 -96v0c-30 -33 -82 -33 -111 2c-32 37 -69 89 -87 142c-14 38 6 80 45 94c38 13 79 -7 93 -45z" />
    <glyph glyph-name="zacute" unicode="&#x17a;" horiz-adv-x="584" 
d="M32 33c-17 30 -15 67 4 96l239 360l-115 13c-51 6 -87 51 -81 101s51 86 102 81l263 -31c32 -4 171 -53 99 -173l-256 -304l137 5c50 1 93 -38 94 -88c2 -51 -37 -93 -88 -95l-315 -11c-1 0 -2 -1 -3 -1c-33 0 -64 18 -80 47zM219 773v0c-24 27 -25 68 -1 96
c23 28 49 63 61 97c13 38 55 58 93 45c38 -14 59 -56 45 -94c-18 -53 -55 -105 -87 -142c-29 -35 -81 -35 -111 -2z" />
    <glyph glyph-name="zcaron" unicode="&#x17e;" horiz-adv-x="584" 
d="M32 33c-17 30 -15 67 4 96l239 360l-115 13c-51 6 -87 51 -81 101s51 86 102 81l263 -31c32 -4 171 -53 99 -173l-256 -304l137 5c50 1 93 -38 94 -88c2 -51 -37 -93 -88 -95l-315 -11c-1 0 -2 -1 -3 -1c-33 0 -64 18 -80 47zM230 800c-12 34 -38 69 -61 97
c-24 28 -23 69 1 96c29 33 82 33 111 -2c10 -12 20 -25 31 -40c10 15 21 28 31 40c29 35 81 35 111 2c24 -27 25 -68 1 -96c-23 -28 -49 -63 -61 -97s-47 -54 -82 -47c-35 -7 -70 13 -82 47z" />
    <glyph glyph-name="zdotaccent" unicode="&#x17c;" horiz-adv-x="584" 
d="M32 33c-17 30 -15 67 4 96l239 360l-115 13c-51 6 -87 51 -81 101s51 86 102 81l263 -31c32 -4 171 -53 99 -173l-256 -304l137 5c50 1 93 -38 94 -88c2 -51 -37 -93 -88 -95l-315 -11c-1 0 -2 -1 -3 -1c-33 0 -64 18 -80 47zM313 975c60 0 110 -48 113 -110v0
c1 -29 -10 -57 -31 -79c-22 -23 -52 -36 -82 -36c-60 0 -110 48 -113 110c-1 29 10 57 31 79c22 23 52 36 82 36z" />
    <glyph glyph-name="Y.ss01" unicode="&#xe498;" horiz-adv-x="568" 
d="M544 581c-1 -8 -2 -15 -2 -21c5 -14 7 -28 5 -43c-2 -20 -4 -40 -5 -61c0 -10 1 -20 2 -33c2 -34 0 -67 -6 -98v-7c-1 -94 -2 -191 -20 -274c-25 -110 -80 -186 -164 -226c-31 -15 -65 -22 -100 -22c-67 0 -138 27 -201 79c-38 32 -44 90 -11 129c32 39 90 44 128 12
c44 -37 84 -43 105 -33c36 17 55 55 66 111c-15 -3 -31 -5 -48 -5c-141 0 -247 121 -258 293c-2 41 -5 62 -6 77c-5 42 -4 49 5 139v1c5 50 49 87 99 82c51 -5 88 -49 83 -100v0c-8 -79 -8 -79 -5 -102c1 -16 4 -40 7 -86c3 -45 21 -121 75 -121c15 0 26 5 36 16
c12 13 21 32 27 55c0 37 1 74 2 111c-1 15 -2 24 -2 30c-3 27 -2 35 1 72c1 10 3 24 5 43c4 50 49 87 99 82c51 -5 87 -49 83 -100z" />
    <glyph glyph-name="E.ss01" unicode="&#xe484;" horiz-adv-x="524" 
d="M405 185c48 6 92 -28 98 -76c6 -47 -28 -91 -76 -97l-126 -16c-10 -2 -19 -2 -29 -2c-55 0 -109 20 -151 56c-50 44 -78 106 -79 172v20c-1 50 14 96 40 134c-34 37 -56 84 -60 135l-1 3c-5 55 9 110 41 155c32 44 78 77 132 90c56 14 99 20 132 19c49 -3 86 -44 83 -92
c-3 -49 -44 -86 -92 -83c-5 0 -27 0 -80 -14c-27 -6 -44 -31 -41 -58v-3c3 -30 28 -52 58 -50l59 4c47 3 88 -33 92 -80c5 -47 -30 -89 -77 -95l-63 -7c-28 -3 -48 -27 -48 -55v-22c0 -21 12 -35 19 -41s22 -15 43 -13z" />
    <glyph glyph-name="J.ss01" unicode="&#xe489;" horiz-adv-x="476" 
d="M430 696c-15 -67 -3 -161 9 -251c10 -78 21 -159 15 -230c-9 -98 -48 -168 -118 -208c-31 -17 -65 -26 -99 -26c-65 0 -133 31 -192 89c-33 33 -33 87 0 120s87 33 120 0c33 -32 117 -72 84 233c-7 69 -18 139 -17 207h-74c-47 0 -85 38 -85 85c0 46 38 84 85 84h189
c26 0 50 -11 66 -31s22 -47 17 -72z" />
    <glyph glyph-name="y.ss01" unicode="&#xe4d8;" horiz-adv-x="528" 
d="M505 577c-3 -39 -2 -85 0 -134c3 -82 6 -166 -9 -243c-19 -104 -69 -176 -148 -214c-29 -13 -60 -20 -92 -20c-62 0 -127 25 -184 72c-35 30 -40 82 -10 118c29 36 82 40 117 11c40 -33 77 -39 96 -30c28 14 45 43 54 82c-21 -7 -43 -10 -66 -10c-129 0 -226 97 -236 235
c-2 22 -3 38 -4 49c-4 42 -4 48 2 98c1 8 2 18 4 30c5 46 47 79 92 74c46 -5 79 -47 74 -93c-1 -12 -2 -22 -3 -31c-5 -37 -5 -37 -3 -63c1 -12 3 -28 5 -52c1 -18 10 -79 69 -79c18 0 31 5 41 16c15 16 23 44 21 75c-1 21 -3 34 -3 44c-3 30 -3 36 1 64c1 10 3 23 6 45
c5 46 46 79 92 74c39 -5 69 -35 74 -72c7 -14 11 -30 10 -46z" />
    <glyph glyph-name="e.ss01" unicode="&#xe4c4;" horiz-adv-x="507" 
d="M394 189c46 5 88 -29 92 -75c5 -46 -28 -88 -75 -93l-155 -16c-6 -1 -13 -1 -20 -1c-47 0 -94 17 -130 48c-41 36 -65 88 -67 142c0 5 0 10 -1 15c-1 41 10 80 31 113c-25 29 -42 67 -47 109v3c-10 99 55 190 152 212c62 14 108 20 141 18c47 -2 83 -41 81 -88
c-2 -46 -42 -82 -88 -80c-7 0 -32 0 -97 -15c-13 -3 -23 -16 -21 -30v-3c2 -15 15 -26 30 -26l84 5c45 2 83 -31 88 -75c5 -45 -26 -85 -70 -93l-92 -15c-14 -3 -24 -15 -23 -29v-15c1 -11 7 -17 10 -21c4 -3 11 -7 22 -6z" />
    <glyph glyph-name="j.ss01" unicode="&#xe4c9;" horiz-adv-x="458" 
d="M412 591c-13 -49 -1 -121 10 -191c10 -64 20 -130 14 -190c-11 -106 -70 -156 -118 -179c-28 -13 -59 -20 -90 -20c-60 0 -123 24 -179 70c-34 29 -39 81 -10 115c29 35 80 40 115 11c38 -32 119 -26 77 168c-11 51 -16 104 -17 156h-33c-46 0 -82 36 -82 81s36 82 82 82
h153c25 0 49 -12 64 -32c16 -20 21 -46 14 -71z" />
    <glyph glyph-name="two" unicode="2" horiz-adv-x="554" 
d="M336 4c-90 0 -190 9 -229 13c-42 5 -75 36 -81 77c-10 62 10 119 57 170c32 35 73 62 113 89c89 60 103 81 89 119c-13 39 -145 5 -146 5c-48 -15 -99 11 -114 59c-16 48 11 100 59 115c33 11 203 59 314 -8c48 -28 79 -72 89 -128c14 -75 -5 -144 -57 -205
c-22 -27 -57 -63 -82 -90c-12 -12 -3 -33 14 -33c28 -1 41 1 57 5c49 13 99 -16 111 -65c13 -49 -16 -99 -64 -112c-33 -8 -80 -11 -130 -11z" />
    <glyph glyph-name="zero" unicode="0" horiz-adv-x="592" 
d="M522 551c64 -117 78 -302 -32 -453c0 -1 -2 -2 -3 -3c-57 -71 -135 -109 -213 -109c-34 0 -68 7 -101 23c-99 47 -187 179 -139 406c21 96 54 165 102 213c43 42 95 65 157 68c91 6 177 -49 229 -145zM332 218c57 79 48 179 16 238c-16 28 -34 43 -44 42
c-13 0 -21 -4 -29 -12c-11 -10 -31 -39 -47 -112c-23 -107 0 -172 31 -186c21 -10 49 2 73 30z" />
    <glyph glyph-name="one" unicode="1" horiz-adv-x="348" 
d="M127 424c-30 -4 -61 6 -83 30c-34 37 -30 95 7 129l85 75c77 69 167 21 175 -47c27 -229 12 -512 11 -524c-1 -50 -42 -89 -91 -89h-2c-51 1 -91 43 -89 94c0 2 3 163 -13 332z" />
    </font>
</defs>
</svg>
